<svg width="66" height="83" viewBox="0 0 66 83" fill="none" xmlns="http://www.w3.org/2000/svg">
<path fill-rule="evenodd" clip-rule="evenodd" d="M65.6 32.9752C65.6 41.5064 62.3785 49.2849 57.0881 55.1381C57.081 55.1416 42.478 71.2945 35.9195 78.5491C34.0209 80.6492 32.7965 82.0035 32.7955 82.0046L8.52555 55.1563C8.52101 55.1472 8.51647 55.1426 8.51194 55.1381C3.22147 49.2849 0 41.5064 0 32.9752C0 14.7631 14.6872 0 32.8 0C50.9128 0 65.6 14.7631 65.6 32.9752ZM32.8003 11.4647C20.9852 11.4647 11.407 21.0954 11.407 32.9752C11.407 44.855 20.9852 54.4811 32.8003 54.4857C44.6153 54.4857 54.1935 44.855 54.1935 32.9752C54.1935 21.0954 44.6153 11.4647 32.8003 11.4647Z" fill="white"/>
</svg>
