<svg width="84" height="84" viewBox="0 0 84 84" fill="none" xmlns="http://www.w3.org/2000/svg">
<path d="M41.6937 83.7777C18.7053 83.7777 0 64.9848 0 41.8888C0 18.7928 18.7053 0 41.6937 0C64.6821 0 83.3874 18.7928 83.3874 41.8888C83.3874 64.9848 64.6821 83.7777 41.6937 83.7777ZM41.6937 5.96282C21.9794 5.96282 5.93504 22.0823 5.93504 41.8888C5.93504 61.6954 21.9794 77.8149 41.6937 77.8149C61.4079 77.8149 77.4523 61.6954 77.4523 41.8888C77.4523 22.0823 61.4079 5.96282 41.6937 5.96282Z" fill="white"/>
<path fill-rule="evenodd" clip-rule="evenodd" d="M20.4953 41.4809C31.7818 36.5417 39.3094 33.282 43.0781 31.7118C53.8305 27.2198 56.066 26.4347 57.5201 26.4149C57.8366 26.4049 58.5587 26.4844 59.0236 26.872C59.4193 27.19 59.5281 27.6273 59.5776 27.9254C59.627 28.2236 59.6963 28.9192 59.6468 29.4559C59.0632 35.6075 56.5408 50.5345 55.2549 57.4315C54.7108 60.3433 53.6425 61.3272 52.6039 61.4166C50.3585 61.6253 48.6472 59.9259 46.471 58.4849C43.0583 56.2389 41.1394 54.8476 37.8256 52.6513C33.9975 50.1171 36.4803 48.7258 38.6565 46.4499C39.2302 45.8537 49.1319 36.8001 49.3297 35.9753C49.3495 35.8759 49.3792 35.4883 49.1517 35.2895C48.9242 35.0908 48.5878 35.1603 48.3504 35.21C48.0042 35.2895 42.5638 38.907 32.0192 46.0524C30.4761 47.1158 29.0714 47.6425 27.8152 47.6127C26.4303 47.5829 23.7695 46.8276 21.7911 46.1816C19.3676 45.3866 17.4387 44.9692 17.6069 43.6275C17.7058 42.9219 18.6653 42.2064 20.4953 41.4809Z" fill="white"/>
</svg>
