<svg width="44" height="45" viewBox="0 0 44 45" fill="none" xmlns="http://www.w3.org/2000/svg">
<g clip-path="url(#clip0_3_60)">
<circle cx="22" cy="22.5" r="20.9258" stroke="white" stroke-width="2.14844"/>
<path d="M32.0895 27.9691C30.404 26.5275 28.6934 25.6542 27.0285 27.0937L26.0344 27.9637C25.3071 28.5952 23.9547 31.546 18.726 25.5312C13.4984 19.524 16.6093 18.5886 17.3377 17.9626L18.3373 17.0915C19.9934 15.6487 19.3684 13.8325 18.174 11.963L17.4531 10.8306C16.2532 8.96536 14.9466 7.7404 13.2861 9.18095L12.3889 9.96492C11.655 10.4996 9.60361 12.2374 9.106 15.5388C8.50713 19.5 10.3963 24.0362 14.7245 29.0133C19.0472 33.9927 23.2796 36.4937 27.2888 36.4502C30.6207 36.4143 32.6329 34.6264 33.2622 33.9763L34.1627 33.1913C35.8188 31.7518 34.7899 30.2862 33.1032 28.8413L32.0895 27.9691Z" fill="white"/>
</g>
<defs>
<clipPath id="clip0_3_60">
<rect width="44" height="44" fill="white" transform="translate(0 0.5)"/>
</clipPath>
</defs>
</svg>
