<svg width="512" height="512" viewBox="0 0 512 512" fill="none" xmlns="http://www.w3.org/2000/svg">
<g clip-path="url(#clip0_4_441)">
<circle cx="256.474" cy="256.474" r="256.474" fill="#0D263F"/>
<mask id="mask0_4_441" style="mask-type:alpha" maskUnits="userSpaceOnUse" x="0" y="0" width="513" height="513">
<circle cx="256.474" cy="256.474" r="256.474" fill="#0D263F"/>
</mask>
<g mask="url(#mask0_4_441)">
<g style="mix-blend-mode:soft-light">
<path d="M647.133 315.401L638.58 315.032L631.405 313.811L625.296 311.949L619.963 309.602L610.364 304.25L605.477 301.613L600.144 299.266L594.054 297.385L586.86 296.183L578.307 295.795L569.774 296.396L562.618 297.792L556.568 299.809L551.293 302.291L541.829 307.877L537.02 310.63L531.745 313.113L525.694 315.149L518.558 316.545L510.006 317.127L501.453 316.758L494.278 315.537L488.169 313.656L482.836 311.309L473.237 305.957L468.369 303.339L463.017 300.992L456.927 299.111L449.752 297.889L441.18 297.521L432.647 298.103L425.492 299.499L419.441 301.535L414.166 304.017L404.702 309.602L399.893 312.356L394.618 314.839L388.567 316.855L381.431 318.252L372.879 318.833L364.326 318.465L357.151 317.243L351.042 315.382L345.709 313.035L336.11 307.683L331.223 305.045L325.89 302.699L319.781 300.818L312.606 299.615L304.053 299.247L295.501 299.828L288.365 301.225L282.314 303.242L277.039 305.724L267.575 311.309L262.766 314.063L257.491 316.545L251.441 318.581L244.285 319.978L235.752 320.559L226.715 320.133L219.229 318.775L212.907 316.7L207.38 314.14L202.28 311.309L197.257 308.439L191.943 305.743L185.951 303.455L178.95 301.807" stroke="#E5E6E0" stroke-width="7.62845" stroke-miterlimit="10" stroke-linejoin="round"/>
<path d="M647.133 460.965L638.58 460.596L631.405 459.375L625.296 457.513L619.963 455.166L610.364 449.814L605.477 447.176L600.144 444.83L594.054 442.968L586.86 441.746L578.307 441.378L569.774 441.96L562.618 443.356L556.568 445.373L551.293 447.855L541.829 453.46L537.02 456.194L531.745 458.676L525.694 460.713L518.558 462.109L510.006 462.691L501.453 462.322L494.278 461.101L488.169 459.219L482.836 456.873L473.237 451.52L468.369 448.902L463.017 446.556L456.927 444.675L449.752 443.453L441.18 443.085L432.647 443.666L425.492 445.063L419.441 447.099L414.166 449.581L404.702 455.166L399.893 457.92L394.618 460.402L388.567 462.419L381.431 463.816L372.879 464.397L364.326 464.029L357.151 462.827L351.042 460.945L345.709 458.599L336.11 453.246L331.223 450.609L325.89 448.262L319.781 446.401L312.606 445.179L304.053 444.811L295.501 445.392L288.365 446.789L282.314 448.825L277.039 451.288L267.575 456.892L262.766 459.646L257.491 462.109L251.441 464.145L244.285 465.542L235.752 466.123L226.715 465.697L219.229 464.339L212.907 462.264L207.38 459.704L202.28 456.873L197.257 454.003L191.943 451.307L185.951 449.019L178.95 447.37" stroke="#E5E6E0" stroke-width="7.62845" stroke-miterlimit="10" stroke-linejoin="round"/>
<path d="M647.133 351.803L638.58 351.434L631.405 350.212L625.296 348.331L619.963 345.985L610.364 340.632L605.477 338.014L600.144 335.668L594.054 333.787L586.86 332.565L578.307 332.196L569.774 332.778L562.618 334.174L556.568 336.211L551.293 338.693L541.829 344.278L537.02 347.032L531.745 349.514L525.694 351.531L518.558 352.927L510.006 353.509L501.453 353.141L494.278 351.919L488.169 350.057L482.836 347.711L473.237 342.358L468.369 339.721L463.017 337.374L456.927 335.493L449.752 334.291L441.18 333.922L432.647 334.504L425.492 335.9L419.441 337.917L414.166 340.4L404.702 345.985L399.893 348.738L394.618 351.221L388.567 353.257L381.431 354.653L372.879 355.235L364.326 354.867L357.151 353.645L351.042 351.764L345.709 349.417L336.11 344.065L331.223 341.447L325.89 339.1L319.781 337.219L312.606 335.997L304.053 335.629L295.501 336.211L288.365 337.607L282.314 339.643L277.039 342.126L267.575 347.711L262.766 350.464L257.491 352.947L251.441 354.964L244.285 356.36L235.752 356.942L226.715 356.534L219.229 355.177L212.907 353.102L207.38 350.542L202.28 347.711L197.257 344.821L191.943 342.145L185.951 339.857L178.95 338.189" stroke="#E5E6E0" stroke-width="7.62845" stroke-miterlimit="10" stroke-linejoin="round"/>
<path d="M647.133 388.183L638.58 387.815L631.405 386.593L625.296 384.731L619.963 382.385L610.364 377.032L605.477 374.395L600.144 372.048L594.054 370.167L586.86 368.965L578.307 368.597L569.774 369.178L562.618 370.575L556.568 372.591L551.293 375.074L541.829 380.659L537.02 383.413L531.745 385.895L525.694 387.931L518.558 389.327L510.006 389.909L501.453 389.541L494.278 388.319L488.169 386.438L482.836 384.091L473.237 378.739L468.369 376.121L463.017 373.774L456.927 371.893L449.752 370.672L441.18 370.303L432.647 370.885L425.492 372.281L419.441 374.317L414.166 376.8L404.702 382.385L399.893 385.139L394.618 387.621L388.567 389.638L381.431 391.034L372.879 391.616L364.326 391.247L357.151 390.045L351.042 388.164L345.709 385.817L336.11 380.465L331.223 377.827L325.89 375.481L319.781 373.619L312.606 372.398L304.053 372.029L295.501 372.611L288.365 374.007L282.314 376.024L277.039 378.506L267.575 384.111L262.766 386.845L257.491 389.327L251.441 391.364L244.285 392.76L235.752 393.342L226.715 392.915L219.229 391.558L212.907 389.483L207.38 386.923L202.28 384.091L197.257 381.221L191.943 378.526L185.951 376.237L178.95 374.589" stroke="#E5E6E0" stroke-width="7.62845" stroke-miterlimit="10" stroke-linejoin="round"/>
<path d="M647.133 424.586L638.58 424.218L631.405 422.996L625.296 421.115L619.963 418.768L610.364 413.416L605.477 410.798L600.144 408.451L594.054 406.57L586.86 405.348L578.307 404.98L569.774 405.562L562.618 406.958L556.568 408.994L551.293 411.476L541.829 417.062L537.02 419.815L531.745 422.298L525.694 424.314L518.558 425.711L510.006 426.293L501.453 425.924L494.278 424.722L488.169 422.841L482.836 420.494L473.237 415.142L468.369 412.504L463.017 410.158L456.927 408.296L449.752 407.074L441.18 406.706L432.647 407.288L425.492 408.684L419.441 410.701L414.166 413.183L404.702 418.788L399.893 421.522L394.618 424.004L388.567 426.04L381.431 427.437L372.879 428.019L364.326 427.65L357.151 426.428L351.042 424.547L345.709 422.201L336.11 416.848L331.223 414.23L325.89 411.884L319.781 410.003L312.606 408.781L304.053 408.412L295.501 408.994L288.365 410.39L282.314 412.427L277.039 414.909L267.575 420.494L262.766 423.248L257.491 425.73L251.441 427.747L244.285 429.143L235.752 429.725L226.715 429.318L219.229 427.96L212.907 425.885L207.38 423.325L202.28 420.494L197.257 417.624L191.943 414.928L185.951 412.64L178.95 410.972" stroke="#E5E6E0" stroke-width="7.62845" stroke-miterlimit="10" stroke-linejoin="round"/>
<path d="M647.132 496.066L638.58 495.697L631.404 494.476L625.295 492.614L619.962 490.267L610.363 484.915L605.476 482.278L600.143 479.931L594.054 478.05L586.859 476.848L578.307 476.479L569.774 477.061L562.618 478.457L556.567 480.474L551.292 482.956L541.829 488.541L537.019 491.295L531.744 493.778L525.694 495.814L518.557 497.21L510.005 497.792L501.453 497.423L494.277 496.202L488.169 494.321L482.835 491.974L473.236 486.622L468.368 484.004L463.016 481.657L456.927 479.776L449.751 478.554L441.18 478.186L432.647 478.767L425.491 480.164L419.44 482.2L414.165 484.682L404.702 490.267L399.892 493.021L394.617 495.503L388.567 497.52L381.43 498.917L372.878 499.498L364.326 499.13L357.15 497.928L351.042 496.046L345.709 493.7L336.109 488.348L331.222 485.71L325.889 483.364L319.78 481.502L312.605 480.28L304.053 479.912L295.5 480.493L288.364 481.89L282.313 483.907L277.038 486.389L267.575 491.993L262.765 494.728L257.49 497.21L251.44 499.246L244.284 500.643L235.751 501.224L226.714 500.798L219.228 499.44L212.906 497.365L207.379 494.805L202.279 491.974L197.256 489.104L191.943 486.408L185.95 484.12L178.949 482.471" stroke="#E5E6E0" stroke-width="7.62845" stroke-miterlimit="10" stroke-linejoin="round"/>
<path d="M647.133 283.19L638.58 282.822L631.405 281.6L625.296 279.738L619.963 277.392L610.364 272.039L605.477 269.402L600.144 267.055L594.054 265.174L586.86 263.972L578.307 263.603L569.774 264.185L562.618 265.582L556.568 267.598L551.293 270.081L541.829 275.666L537.02 278.42L531.745 280.902L525.694 282.938L518.558 284.334L510.006 284.916L501.453 284.548L494.278 283.326L488.169 281.445L482.836 279.098L473.237 273.746L468.369 271.128L463.017 268.781L456.927 266.9L449.752 265.679L441.18 265.31L432.647 265.892L425.492 267.288L419.441 269.324L414.166 271.807L404.702 277.392L399.893 280.146L394.618 282.628L388.567 284.645L381.431 286.041L372.879 286.623L364.326 286.254L357.151 285.052L351.042 283.171L345.709 280.824L336.11 275.472L331.223 272.834L325.89 270.488L319.781 268.626L312.606 267.404L304.053 267.036L295.501 267.618L288.365 269.014L282.314 271.031L277.039 273.513L267.575 279.118L262.766 281.852L257.491 284.334L251.441 286.371L244.285 287.767L235.752 288.349L226.715 287.922L219.229 286.565L212.907 284.49L207.38 281.93L202.28 279.098L197.257 276.228L191.943 273.533L185.951 271.244L178.95 269.596" stroke="#E5E6E0" stroke-width="7.62845" stroke-miterlimit="10" stroke-linejoin="round"/>
<path d="M372.589 318.937L364.037 318.569L356.861 317.347L350.753 315.485L345.419 313.139L335.82 307.786L330.933 305.149L325.6 302.802L319.511 300.921L312.316 299.719L303.764 299.331L295.231 299.932L288.075 301.328L282.024 303.345L276.749 305.828L267.286 311.413L262.476 314.167L257.201 316.649L251.151 318.685L244.014 320.081L235.462 320.663L226.91 320.295L219.734 319.073L213.626 317.192L208.293 314.845L198.693 309.493L193.825 306.875L188.473 304.528L182.384 302.647L175.208 301.425L166.637 301.057L158.104 301.639L150.948 303.035L144.897 305.071L139.622 307.554L130.159 313.139L125.349 315.893L120.074 318.375L114.024 320.392L106.887 321.788L98.335 322.37L89.7827 322.001L82.6074 320.78L76.4986 318.918L71.1656 316.571L61.5661 311.219L56.6791 308.581L51.346 306.235L45.2373 304.354L38.062 303.151L29.5097 302.783L20.9574 303.365L13.8209 304.761L7.77028 306.778L2.49544 309.26L-6.96828 314.845L-11.7777 317.599L-17.0526 320.081L-23.1032 322.118L-30.2591 323.514L-38.792 324.096L-47.8291 323.669L-55.3147 322.312L-61.6368 320.237L-67.1638 317.677L-72.2641 314.845L-77.2868 311.975L-82.6005 309.28L-88.5928 306.991L-95.5937 305.343" stroke="#E5E6E0" stroke-width="7.62845" stroke-miterlimit="10" stroke-linejoin="round"/>
<path d="M372.589 464.501L364.037 464.132L356.861 462.911L350.753 461.049L345.419 458.702L335.82 453.35L330.933 450.713L325.6 448.366L319.511 446.504L312.316 445.283L303.764 444.914L295.231 445.496L288.075 446.892L282.024 448.909L276.749 451.391L267.286 456.996L262.476 459.73L257.201 462.213L251.151 464.249L244.014 465.645L235.462 466.227L226.91 465.858L219.734 464.637L213.626 462.756L208.293 460.409L198.693 455.057L193.825 452.439L188.473 450.092L182.384 448.211L175.208 446.989L166.637 446.621L158.104 447.202L150.948 448.599L144.897 450.635L139.622 453.117L130.159 458.702L125.349 461.456L120.074 463.939L114.024 465.955L106.887 467.352L98.335 467.933L89.7827 467.565L82.6074 466.363L76.4986 464.482L71.1656 462.135L61.5661 456.783L56.6791 454.145L51.346 451.799L45.2373 449.937L38.062 448.715L29.5097 448.347L20.9574 448.928L13.8209 450.325L7.77028 452.361L2.49544 454.824L-6.96828 460.428L-11.7777 463.182L-17.0526 465.645L-23.1032 467.681L-30.2591 469.078L-38.792 469.659L-47.8291 469.233L-55.3147 467.875L-61.6368 465.8L-67.1638 463.24L-72.2641 460.409L-77.2868 457.539L-82.6005 454.843L-88.5928 452.555L-95.5937 450.907" stroke="#E5E6E0" stroke-width="7.62845" stroke-miterlimit="10" stroke-linejoin="round"/>
<path d="M372.589 355.34L364.037 354.971L356.861 353.749L350.753 351.868L345.419 349.522L335.82 344.169L330.933 341.551L325.6 339.205L319.511 337.324L312.316 336.102L303.764 335.733L295.231 336.315L288.075 337.711L282.024 339.748L276.749 342.23L267.286 347.815L262.476 350.569L257.201 353.051L251.151 355.068L244.014 356.464L235.462 357.046L226.91 356.678L219.734 355.456L213.626 353.594L208.293 351.248L198.693 345.895L193.825 343.258L188.473 340.911L182.384 339.03L175.208 337.828L166.637 337.459L158.104 338.041L150.948 339.437L144.897 341.454L139.622 343.937L130.159 349.522L125.349 352.275L120.074 354.758L114.024 356.794L106.887 358.19L98.335 358.772L89.7827 358.404L82.6074 357.182L76.4986 355.301L71.1656 352.954L61.5661 347.602L56.6791 344.984L51.346 342.637L45.2373 340.756L38.062 339.534L29.5097 339.166L20.9574 339.748L13.8209 341.144L7.77028 343.18L2.49544 345.662L-6.96828 351.248L-11.7777 354.001L-17.0526 356.484L-23.1032 358.501L-30.2591 359.897L-38.792 360.479L-47.8291 360.071L-55.3147 358.714L-61.6368 356.639L-67.1638 354.079L-72.2641 351.248L-77.2868 348.358L-82.6005 345.682L-88.5928 343.394L-95.5937 341.726" stroke="#E5E6E0" stroke-width="7.62845" stroke-miterlimit="10" stroke-linejoin="round"/>
<path d="M372.589 391.72L364.037 391.351L356.861 390.13L350.753 388.268L345.419 385.921L335.82 380.569L330.933 377.932L325.6 375.585L319.511 373.704L312.316 372.502L303.764 372.133L295.231 372.715L288.075 374.111L282.024 376.128L276.749 378.61L267.286 384.195L262.476 386.949L257.201 389.432L251.151 391.468L244.014 392.864L235.462 393.446L226.91 393.077L219.734 391.856L213.626 389.975L208.293 387.628L198.693 382.276L193.825 379.658L188.473 377.311L182.384 375.43L175.208 374.208L166.637 373.84L158.104 374.421L150.948 375.818L144.897 377.854L139.622 380.336L130.159 385.921L125.349 388.675L120.074 391.158L114.024 393.174L106.887 394.571L98.335 395.152L89.7827 394.784L82.6074 393.582L76.4986 391.701L71.1656 389.354L61.5661 384.002L56.6791 381.364L51.346 379.018L45.2373 377.156L38.062 375.934L29.5097 375.566L20.9574 376.147L13.8209 377.544L7.77028 379.561L2.49544 382.043L-6.96828 387.647L-11.7777 390.382L-17.0526 392.864L-23.1032 394.9L-30.2591 396.297L-38.792 396.878L-47.8291 396.452L-55.3147 395.094L-61.6368 393.019L-67.1638 390.459L-72.2641 387.628L-77.2868 384.758L-82.6005 382.062L-88.5928 379.774L-95.5937 378.126" stroke="#E5E6E0" stroke-width="7.62845" stroke-miterlimit="10" stroke-linejoin="round"/>
<path d="M372.589 428.122L364.037 427.753L356.861 426.532L350.753 424.651L345.419 422.304L335.82 416.952L330.933 414.334L325.6 411.987L319.511 410.106L312.316 408.884L303.764 408.516L295.231 409.097L288.075 410.494L282.024 412.53L276.749 415.012L267.286 420.597L262.476 423.351L257.201 425.834L251.151 427.85L244.014 429.247L235.462 429.828L226.91 429.46L219.734 428.258L213.626 426.377L208.293 424.03L198.693 418.678L193.825 416.04L188.473 413.694L182.384 411.832L175.208 410.61L166.637 410.242L158.104 410.823L150.948 412.22L144.897 414.237L139.622 416.719L130.159 422.323L125.349 425.058L120.074 427.54L114.024 429.576L106.887 430.973L98.335 431.554L89.7827 431.186L82.6074 429.964L76.4986 428.083L71.1656 425.737L61.5661 420.384L56.6791 417.766L51.346 415.42L45.2373 413.538L38.062 412.317L29.5097 411.948L20.9574 412.53L13.8209 413.926L7.77028 415.963L2.49544 418.445L-6.96828 424.03L-11.7777 426.784L-17.0526 429.266L-23.1032 431.283L-30.2591 432.679L-38.792 433.261L-47.8291 432.854L-55.3147 431.496L-61.6368 429.421L-67.1638 426.861L-72.2641 424.03L-77.2868 421.16L-82.6005 418.464L-88.5928 416.176L-95.5937 414.508" stroke="#E5E6E0" stroke-width="7.62845" stroke-miterlimit="10" stroke-linejoin="round"/>
<path d="M372.589 499.602L364.037 499.233L356.861 498.012L350.753 496.15L345.419 493.803L335.82 488.451L330.933 485.813L325.6 483.467L319.511 481.586L312.316 480.383L303.764 480.015L295.231 480.597L288.075 481.993L282.024 484.01L276.749 486.492L267.286 492.077L262.476 494.831L257.201 497.313L251.151 499.35L244.014 500.746L235.462 501.328L226.91 500.959L219.734 499.738L213.626 497.856L208.293 495.51L198.693 490.157L193.825 487.539L188.473 485.193L182.384 483.312L175.208 482.09L166.637 481.722L158.104 482.303L150.948 483.7L144.897 485.736L139.622 488.218L130.159 493.803L125.349 496.557L120.074 499.039L114.024 501.056L106.887 502.453L98.335 503.034L89.7827 502.666L82.6074 501.463L76.4986 499.582L71.1656 497.236L61.5661 491.883L56.6791 489.246L51.346 486.899L45.2373 485.038L38.062 483.816L29.5097 483.447L20.9574 484.029L13.8209 485.426L7.77028 487.442L2.49544 489.925L-6.96828 495.529L-11.7777 498.264L-17.0526 500.746L-23.1032 502.782L-30.2591 504.178L-38.792 504.76L-47.8291 504.334L-55.3147 502.976L-61.6368 500.901L-67.1638 498.341L-72.2641 495.51L-77.2868 492.64L-82.6005 489.944L-88.5928 487.656L-95.5937 486.007" stroke="#E5E6E0" stroke-width="7.62845" stroke-miterlimit="10" stroke-linejoin="round"/>
<path d="M372.589 286.726L364.037 286.357L356.861 285.136L350.753 283.274L345.419 280.927L335.82 275.575L330.933 272.937L325.6 270.591L319.511 268.71L312.316 267.507L303.764 267.139L295.231 267.721L288.075 269.117L282.024 271.134L276.749 273.616L267.286 279.201L262.476 281.955L257.201 284.437L251.151 286.474L244.014 287.87L235.462 288.452L226.91 288.083L219.734 286.862L213.626 284.98L208.293 282.634L198.693 277.281L193.825 274.663L188.473 272.317L182.384 270.436L175.208 269.214L166.637 268.846L158.104 269.427L150.948 270.824L144.897 272.86L139.622 275.342L130.159 280.927L125.349 283.681L120.074 286.163L114.024 288.18L106.887 289.577L98.335 290.158L89.7827 289.79L82.6074 288.587L76.4986 286.706L71.1656 284.36L61.5661 279.007L56.6791 276.37L51.346 274.023L45.2373 272.162L38.062 270.94L29.5097 270.572L20.9574 271.153L13.8209 272.55L7.77028 274.566L2.49544 277.049L-6.96828 282.653L-11.7777 285.388L-17.0526 287.87L-23.1032 289.906L-30.2591 291.303L-38.792 291.884L-47.8291 291.458L-55.3147 290.1L-61.6368 288.025L-67.1638 285.465L-72.2641 282.634L-77.2868 279.764L-82.6005 277.068L-88.5928 274.78L-95.5937 273.131" stroke="#E5E6E0" stroke-width="7.62845" stroke-miterlimit="10" stroke-linejoin="round"/>
<path d="M97.2345 322.64L88.6822 322.272L81.5069 321.05L75.3981 319.188L70.0651 316.842L60.4656 311.489L55.5786 308.852L50.2456 306.505L44.1562 304.624L36.9615 303.422L28.4092 303.034L19.8764 303.635L12.7204 305.031L6.66982 307.048L1.39496 309.531L-8.06876 315.116L-12.8782 317.87L-18.153 320.352L-24.2036 322.388L-31.3402 323.784L-39.8925 324.366L-48.4447 323.998L-55.6201 322.776L-61.7288 320.895L-67.0619 318.548L-76.6613 313.196L-81.5289 310.578L-86.8814 308.231L-92.9707 306.35L-100.146 305.128L-108.718 304.76L-117.251 305.342L-124.407 306.738L-130.457 308.774L-135.732 311.257L-145.196 316.842L-150.005 319.596L-155.28 322.078L-161.331 324.095L-168.467 325.491L-177.019 326.073L-185.572 325.704L-192.747 324.483L-198.856 322.621L-204.189 320.274L-213.788 314.922L-218.675 312.284L-224.008 309.938L-230.117 308.057L-237.292 306.854L-245.845 306.486L-254.397 307.068L-261.534 308.464L-267.584 310.481L-272.859 312.963L-282.323 318.548L-287.132 321.302L-292.407 323.784L-298.458 325.821L-305.614 327.217L-314.146 327.799L-323.183 327.372L-330.669 326.015L-336.991 323.94L-342.518 321.38L-347.618 318.548L-352.641 315.678L-357.955 312.983L-363.947 310.694L-370.948 309.046" stroke="#E5E6E0" stroke-width="7.62845" stroke-miterlimit="10" stroke-linejoin="round"/>
<path d="M97.2345 468.204L88.6822 467.836L81.5069 466.614L75.3981 464.752L70.0651 462.406L60.4656 457.053L55.5786 454.416L50.2456 452.069L44.1562 450.207L36.9615 448.986L28.4092 448.617L19.8764 449.199L12.7204 450.595L6.66982 452.612L1.39496 455.094L-8.06876 460.699L-12.8782 463.433L-18.153 465.916L-24.2036 467.952L-31.3402 469.348L-39.8925 469.93L-48.4447 469.562L-55.6201 468.34L-61.7288 466.459L-67.0619 464.112L-76.6613 458.76L-81.5289 456.142L-86.8814 453.795L-92.9707 451.914L-100.146 450.692L-108.718 450.324L-117.251 450.906L-124.407 452.302L-130.457 454.338L-135.732 456.82L-145.196 462.406L-150.005 465.159L-155.28 467.642L-161.331 469.659L-168.467 471.055L-177.019 471.637L-185.572 471.268L-192.747 470.066L-198.856 468.185L-204.189 465.838L-213.788 460.486L-218.675 457.848L-224.008 455.502L-230.117 453.64L-237.292 452.418L-245.845 452.05L-254.397 452.632L-261.534 454.028L-267.584 456.064L-272.859 458.527L-282.323 464.132L-287.132 466.885L-292.407 469.348L-298.458 471.384L-305.614 472.781L-314.146 473.363L-323.183 472.936L-330.669 471.578L-336.991 469.503L-342.518 466.944L-347.618 464.112L-352.641 461.242L-357.955 458.546L-363.947 456.258L-370.948 454.61" stroke="#E5E6E0" stroke-width="7.62845" stroke-miterlimit="10" stroke-linejoin="round"/>
<path d="M97.2345 359.043L88.6822 358.674L81.5069 357.452L75.3981 355.571L70.0651 353.225L60.4656 347.872L55.5786 345.254L50.2456 342.908L44.1562 341.027L36.9615 339.805L28.4092 339.436L19.8764 340.018L12.7204 341.414L6.66982 343.451L1.39496 345.933L-8.06876 351.518L-12.8782 354.272L-18.153 356.754L-24.2036 358.771L-31.3402 360.167L-39.8925 360.749L-48.4447 360.381L-55.6201 359.159L-61.7288 357.297L-67.0619 354.951L-76.6613 349.598L-81.5289 346.961L-86.8814 344.614L-92.9707 342.733L-100.146 341.531L-108.718 341.162L-117.251 341.744L-124.407 343.14L-130.457 345.157L-135.732 347.64L-145.196 353.225L-150.005 355.978L-155.28 358.461L-161.331 360.497L-168.467 361.893L-177.019 362.475L-185.572 362.107L-192.747 360.885L-198.856 359.004L-204.189 356.657L-213.788 351.305L-218.675 348.687L-224.008 346.34L-230.117 344.459L-237.292 343.237L-245.845 342.869L-254.397 343.451L-261.534 344.847L-267.584 346.883L-272.859 349.365L-282.323 354.951L-287.132 357.704L-292.407 360.187L-298.458 362.204L-305.614 363.6L-314.146 364.182L-323.183 363.774L-330.669 362.417L-336.991 360.342L-342.518 357.782L-347.618 354.951L-352.641 352.061L-357.955 349.385L-363.947 347.097L-370.948 345.429" stroke="#E5E6E0" stroke-width="7.62845" stroke-miterlimit="10" stroke-linejoin="round"/>
<path d="M97.2345 395.423L88.6822 395.055L81.5069 393.833L75.3981 391.971L70.0651 389.625L60.4656 384.272L55.5786 381.635L50.2456 379.288L44.1562 377.407L36.9615 376.205L28.4092 375.836L19.8764 376.418L12.7204 377.814L6.66982 379.831L1.39496 382.313L-8.06876 387.899L-12.8782 390.652L-18.153 393.135L-24.2036 395.171L-31.3402 396.567L-39.8925 397.149L-48.4447 396.781L-55.6201 395.559L-61.7288 393.678L-67.0619 391.331L-76.6613 385.979L-81.5289 383.361L-86.8814 381.014L-92.9707 379.133L-100.146 377.911L-108.718 377.543L-117.251 378.125L-124.407 379.521L-130.457 381.557L-135.732 384.039L-145.196 389.625L-150.005 392.378L-155.28 394.861L-161.331 396.878L-168.467 398.274L-177.019 398.856L-185.572 398.487L-192.747 397.285L-198.856 395.404L-204.189 393.057L-213.788 387.705L-218.675 385.067L-224.008 382.721L-230.117 380.859L-237.292 379.637L-245.845 379.269L-254.397 379.851L-261.534 381.247L-267.584 383.264L-272.859 385.746L-282.323 391.351L-287.132 394.085L-292.407 396.567L-298.458 398.603L-305.614 400L-314.146 400.582L-323.183 400.155L-330.669 398.797L-336.991 396.722L-342.518 394.163L-347.618 391.331L-352.641 388.461L-357.955 385.765L-363.947 383.477L-370.948 381.829" stroke="#E5E6E0" stroke-width="7.62845" stroke-miterlimit="10" stroke-linejoin="round"/>
<path d="M97.2345 431.826L88.6822 431.458L81.5069 430.236L75.3981 428.355L70.0651 426.008L60.4656 420.656L55.5786 418.038L50.2456 415.691L44.1562 413.81L36.9615 412.588L28.4092 412.22L19.8764 412.802L12.7204 414.198L6.66982 416.234L1.39496 418.716L-8.06876 424.302L-12.8782 427.055L-18.153 429.538L-24.2036 431.554L-31.3402 432.951L-39.8925 433.533L-48.4447 433.164L-55.6201 431.962L-61.7288 430.081L-67.0619 427.734L-76.6613 422.382L-81.5289 419.744L-86.8814 417.398L-92.9707 415.536L-100.146 414.314L-108.718 413.946L-117.251 414.528L-124.407 415.924L-130.457 417.941L-135.732 420.423L-145.196 426.028L-150.005 428.762L-155.28 431.244L-161.331 433.28L-168.467 434.677L-177.019 435.259L-185.572 434.89L-192.747 433.668L-198.856 431.787L-204.189 429.441L-213.788 424.088L-218.675 421.47L-224.008 419.124L-230.117 417.243L-237.292 416.021L-245.845 415.652L-254.397 416.234L-261.534 417.63L-267.584 419.667L-272.859 422.149L-282.323 427.734L-287.132 430.488L-292.407 432.97L-298.458 434.987L-305.614 436.383L-314.146 436.965L-323.183 436.558L-330.669 435.2L-336.991 433.125L-342.518 430.565L-347.618 427.734L-352.641 424.864L-357.955 422.168L-363.947 419.88L-370.948 418.212" stroke="#E5E6E0" stroke-width="7.62845" stroke-miterlimit="10" stroke-linejoin="round"/>
<path d="M97.2346 503.306L88.6824 502.937L81.507 501.715L75.3983 499.854L70.0652 497.507L60.4657 492.155L55.5787 489.517L50.2457 487.171L44.1564 485.29L36.9616 484.087L28.4093 483.719L19.8765 484.301L12.7205 485.697L6.66994 487.714L1.39509 490.196L-8.06863 495.781L-12.8781 498.535L-18.1529 501.017L-24.2035 503.054L-31.3401 504.45L-39.8923 505.032L-48.4446 504.663L-55.62 503.441L-61.7287 501.56L-67.0617 499.214L-76.6612 493.861L-81.5288 491.243L-86.8812 488.897L-92.9706 487.016L-100.146 485.794L-108.718 485.425L-117.25 486.007L-124.406 487.403L-130.457 489.44L-135.732 491.922L-145.196 497.507L-150.005 500.261L-155.28 502.743L-161.33 504.76L-168.467 506.156L-177.019 506.738L-185.572 506.37L-192.747 505.167L-198.856 503.286L-204.189 500.94L-213.788 495.587L-218.675 492.95L-224.008 490.603L-230.117 488.742L-237.292 487.52L-245.845 487.151L-254.397 487.733L-261.533 489.129L-267.584 491.146L-272.859 493.629L-282.323 499.233L-287.132 501.968L-292.407 504.45L-298.457 506.486L-305.613 507.882L-314.146 508.464L-323.183 508.037L-330.669 506.68L-336.991 504.605L-342.518 502.045L-347.618 499.214L-352.641 496.344L-357.955 493.648L-363.947 491.36L-370.948 489.711" stroke="#E5E6E0" stroke-width="7.62845" stroke-miterlimit="10" stroke-linejoin="round"/>
<path d="M97.2345 290.43L88.6822 290.061L81.5069 288.839L75.3981 286.978L70.0651 284.631L60.4656 279.279L55.5786 276.641L50.2456 274.295L44.1562 272.414L36.9615 271.211L28.4092 270.843L19.8764 271.425L12.7204 272.821L6.66982 274.838L1.39496 277.32L-8.06876 282.905L-12.8782 285.659L-18.153 288.141L-24.2036 290.178L-31.3402 291.574L-39.8925 292.156L-48.4447 291.787L-55.6201 290.565L-61.7288 288.684L-67.0619 286.338L-76.6613 280.985L-81.5289 278.367L-86.8814 276.021L-92.9707 274.14L-100.146 272.918L-108.718 272.549L-117.251 273.131L-124.407 274.527L-130.457 276.564L-135.732 279.046L-145.196 284.631L-150.005 287.385L-155.28 289.867L-161.331 291.884L-168.467 293.28L-177.019 293.862L-185.572 293.494L-192.747 292.291L-198.856 290.41L-204.189 288.064L-213.788 282.711L-218.675 280.074L-224.008 277.727L-230.117 275.866L-237.292 274.644L-245.845 274.275L-254.397 274.857L-261.534 276.253L-267.584 278.27L-272.859 280.753L-282.323 286.357L-287.132 289.092L-292.407 291.574L-298.458 293.61L-305.614 295.006L-314.146 295.588L-323.183 295.161L-330.669 293.804L-336.991 291.729L-342.518 289.169L-347.618 286.338L-352.641 283.468L-357.955 280.772L-363.947 278.484L-370.948 276.835" stroke="#E5E6E0" stroke-width="7.62845" stroke-miterlimit="10" stroke-linejoin="round"/>
</g>
<path d="M127.901 120.499L264.843 54.337L371.351 329.361L277.829 374.544L127.901 120.499ZM415.057 535.792C392.79 546.55 371.086 548.242 349.946 540.867C328.805 533.493 313.068 519.111 302.734 497.721C292.616 476.777 291.237 455.733 298.599 434.588C305.745 412.997 320.452 396.823 342.719 386.065C364.095 375.738 385.238 374.591 406.149 382.627C427.289 390.001 442.918 404.161 453.037 425.105C463.371 446.494 464.857 467.761 457.496 488.906C450.58 509.836 436.433 525.465 415.057 535.792Z" fill="#E50040"/>
<path d="M144.176 105.304L142.925 105.886L143.609 107.085L286.018 356.608L286.597 357.623L287.657 357.13L379.338 314.465L380.4 313.971L379.993 312.873L280.15 43.5403L279.671 42.2498L278.423 42.8305L144.176 105.304ZM354.568 520.162C375.397 527.773 396.901 526.392 419 516.108C440.238 506.224 454.485 490.96 461.634 470.331C469.216 449.511 468.033 428.434 458.14 407.177C448.449 386.352 433.187 372.099 412.389 364.494C391.803 356.24 370.844 357.085 349.598 366.972C327.491 377.26 312.689 393.046 305.305 414.318C297.726 435.13 298.801 455.989 308.493 476.817C318.387 498.078 333.753 512.557 354.568 520.162Z" stroke="white" stroke-width="2.53935"/>
</g>
</g>
<defs>
<clipPath id="clip0_4_441">
<rect width="512" height="512" fill="white"/>
</clipPath>
</defs>
</svg>
