<svg width="84" height="84" viewBox="0 0 84 84" fill="none" xmlns="http://www.w3.org/2000/svg">
<path d="M41.731 83.8382C18.7426 83.8382 0.0373535 65.0454 0.0373535 41.9494C0.0373535 18.8534 18.7426 0.0605469 41.731 0.0605469C64.7194 0.0605469 83.4247 18.8534 83.4247 41.9494C83.4247 65.0454 64.7194 83.8382 41.731 83.8382ZM41.731 6.02337C22.0168 6.02337 5.9724 22.1429 5.9724 41.9494C5.9724 61.7559 22.0168 77.8754 41.731 77.8754C61.4453 77.8754 77.4897 61.7559 77.4897 41.9494C77.4897 22.1429 61.4453 6.02337 41.731 6.02337Z" fill="white"/>
<path d="M58.6151 47.5159C57.7895 46.4682 58.0257 46.002 58.6151 45.0654C58.6258 45.0547 65.4414 35.5906 66.1436 32.381L66.1479 32.3789C66.4969 31.2092 66.1479 30.3496 64.4605 30.3496H58.8769C57.4554 30.3496 56.8 31.0873 56.4489 31.9127C56.4489 31.9127 53.6061 38.751 49.5843 43.1837C48.2863 44.4646 47.6862 44.8751 46.9777 44.8751C46.6287 44.8751 46.0861 44.4646 46.0861 43.2949V32.3789C46.0861 30.9761 45.6881 30.3496 44.5114 30.3496H35.7317C34.8401 30.3496 34.3103 31.0039 34.3103 31.6133C34.3103 32.9434 36.3211 33.2492 36.5297 36.9912V45.1103C36.5297 46.8894 36.2084 47.2166 35.4955 47.2166C33.5974 47.2166 28.9905 40.3505 26.2604 32.4922C25.7093 30.9676 25.171 30.3517 23.7389 30.3517H18.1531C16.5593 30.3517 16.238 31.0895 16.238 31.9148C16.238 33.3732 18.1361 40.6242 25.0646 50.2038C29.6821 56.7427 36.185 60.2859 42.1005 60.2859C45.6562 60.2859 46.0903 59.499 46.0903 58.1455C46.0903 51.8973 45.769 51.3071 47.5501 51.3071C48.3757 51.3071 49.7971 51.7177 53.1166 54.8717C56.9107 58.6116 57.5342 60.2859 59.6578 60.2859H65.2414C66.8331 60.2859 67.6395 59.499 67.1757 57.9466C66.1138 54.6814 58.9386 47.965 58.6151 47.5159Z" fill="white"/>
</svg>
