<svg width="512" height="512" viewBox="0 0 512 512" fill="none" xmlns="http://www.w3.org/2000/svg">
<g clip-path="url(#clip0_4_238)">
<circle cx="256.474" cy="256.474" r="256.474" fill="#0D263F"/>
<mask id="mask0_4_238" style="mask-type:alpha" maskUnits="userSpaceOnUse" x="0" y="0" width="513" height="513">
<circle cx="256.474" cy="256.474" r="256.474" fill="#0D263F"/>
</mask>
<g mask="url(#mask0_4_238)">
<g style="mix-blend-mode:soft-light">
<path d="M647.132 315.401L638.58 315.032L631.405 313.811L625.296 311.949L619.963 309.602L610.363 304.25L605.476 301.613L600.143 299.266L594.054 297.385L586.859 296.183L578.307 295.795L569.774 296.396L562.618 297.792L556.568 299.809L551.293 302.291L541.829 307.877L537.02 310.63L531.745 313.113L525.694 315.149L518.558 316.545L510.005 317.127L501.453 316.758L494.278 315.537L488.169 313.656L482.836 311.309L473.236 305.957L468.369 303.339L463.016 300.992L456.927 299.111L449.752 297.889L441.18 297.521L432.647 298.103L425.491 299.499L419.441 301.535L414.166 304.017L404.702 309.602L399.893 312.356L394.618 314.839L388.567 316.855L381.431 318.252L372.878 318.833L364.326 318.465L357.151 317.243L351.042 315.382L345.709 313.035L336.109 307.683L331.222 305.045L325.889 302.699L319.781 300.818L312.605 299.615L304.053 299.247L295.501 299.828L288.364 301.225L282.314 303.242L277.039 305.724L267.575 311.309L262.766 314.063L257.491 316.545L251.44 318.581L244.284 319.978L235.751 320.559L226.714 320.133L219.229 318.775L212.907 316.7L207.38 314.14L202.279 311.309L197.257 308.439L191.943 305.743L185.95 303.455L178.95 301.807" stroke="#E5E6E0" stroke-width="7.62845" stroke-miterlimit="10" stroke-linejoin="round"/>
<path d="M647.132 460.965L638.58 460.596L631.405 459.375L625.296 457.513L619.963 455.166L610.363 449.814L605.476 447.176L600.143 444.83L594.054 442.968L586.859 441.746L578.307 441.378L569.774 441.96L562.618 443.356L556.568 445.373L551.293 447.855L541.829 453.46L537.02 456.194L531.745 458.676L525.694 460.713L518.558 462.109L510.005 462.691L501.453 462.322L494.278 461.101L488.169 459.219L482.836 456.873L473.236 451.52L468.369 448.902L463.016 446.556L456.927 444.675L449.752 443.453L441.18 443.085L432.647 443.666L425.491 445.063L419.441 447.099L414.166 449.581L404.702 455.166L399.893 457.92L394.618 460.402L388.567 462.419L381.431 463.816L372.878 464.397L364.326 464.029L357.151 462.827L351.042 460.945L345.709 458.599L336.109 453.246L331.222 450.609L325.889 448.262L319.781 446.401L312.605 445.179L304.053 444.811L295.501 445.392L288.364 446.789L282.314 448.825L277.039 451.288L267.575 456.892L262.766 459.646L257.491 462.109L251.44 464.145L244.284 465.542L235.751 466.123L226.714 465.697L219.229 464.339L212.907 462.264L207.38 459.704L202.279 456.873L197.257 454.003L191.943 451.307L185.95 449.019L178.95 447.37" stroke="#E5E6E0" stroke-width="7.62845" stroke-miterlimit="10" stroke-linejoin="round"/>
<path d="M647.132 351.803L638.58 351.434L631.405 350.212L625.296 348.331L619.963 345.985L610.363 340.632L605.476 338.014L600.143 335.668L594.054 333.787L586.859 332.565L578.307 332.196L569.774 332.778L562.618 334.174L556.568 336.211L551.293 338.693L541.829 344.278L537.02 347.032L531.745 349.514L525.694 351.531L518.558 352.927L510.005 353.509L501.453 353.141L494.278 351.919L488.169 350.057L482.836 347.711L473.236 342.358L468.369 339.721L463.016 337.374L456.927 335.493L449.752 334.291L441.18 333.922L432.647 334.504L425.491 335.9L419.441 337.917L414.166 340.4L404.702 345.985L399.893 348.738L394.618 351.221L388.567 353.257L381.431 354.653L372.878 355.235L364.326 354.867L357.151 353.645L351.042 351.764L345.709 349.417L336.109 344.065L331.222 341.447L325.889 339.1L319.781 337.219L312.605 335.997L304.053 335.629L295.501 336.211L288.364 337.607L282.314 339.643L277.039 342.126L267.575 347.711L262.766 350.464L257.491 352.947L251.44 354.964L244.284 356.36L235.751 356.942L226.714 356.534L219.229 355.177L212.907 353.102L207.38 350.542L202.279 347.711L197.257 344.821L191.943 342.145L185.95 339.857L178.95 338.189" stroke="#E5E6E0" stroke-width="7.62845" stroke-miterlimit="10" stroke-linejoin="round"/>
<path d="M647.132 388.183L638.58 387.815L631.405 386.593L625.296 384.731L619.963 382.385L610.363 377.032L605.476 374.395L600.143 372.048L594.054 370.167L586.859 368.965L578.307 368.597L569.774 369.178L562.618 370.575L556.568 372.591L551.293 375.074L541.829 380.659L537.02 383.413L531.745 385.895L525.694 387.931L518.558 389.327L510.005 389.909L501.453 389.541L494.278 388.319L488.169 386.438L482.836 384.091L473.236 378.739L468.369 376.121L463.016 373.774L456.927 371.893L449.752 370.672L441.18 370.303L432.647 370.885L425.491 372.281L419.441 374.317L414.166 376.8L404.702 382.385L399.893 385.139L394.618 387.621L388.567 389.638L381.431 391.034L372.878 391.616L364.326 391.247L357.151 390.045L351.042 388.164L345.709 385.817L336.109 380.465L331.222 377.827L325.889 375.481L319.781 373.619L312.605 372.398L304.053 372.029L295.501 372.611L288.364 374.007L282.314 376.024L277.039 378.506L267.575 384.111L262.766 386.845L257.491 389.327L251.44 391.364L244.284 392.76L235.751 393.342L226.714 392.915L219.229 391.558L212.907 389.483L207.38 386.923L202.279 384.091L197.257 381.221L191.943 378.526L185.95 376.237L178.95 374.589" stroke="#E5E6E0" stroke-width="7.62845" stroke-miterlimit="10" stroke-linejoin="round"/>
<path d="M647.132 424.586L638.58 424.218L631.405 422.996L625.296 421.115L619.963 418.768L610.363 413.416L605.476 410.798L600.143 408.451L594.054 406.57L586.859 405.348L578.307 404.98L569.774 405.562L562.618 406.958L556.568 408.994L551.293 411.476L541.829 417.062L537.02 419.815L531.745 422.298L525.694 424.314L518.558 425.711L510.005 426.293L501.453 425.924L494.278 424.722L488.169 422.841L482.836 420.494L473.236 415.142L468.369 412.504L463.016 410.158L456.927 408.296L449.752 407.074L441.18 406.706L432.647 407.288L425.491 408.684L419.441 410.701L414.166 413.183L404.702 418.788L399.893 421.522L394.618 424.004L388.567 426.04L381.431 427.437L372.878 428.019L364.326 427.65L357.151 426.428L351.042 424.547L345.709 422.201L336.109 416.848L331.222 414.23L325.889 411.884L319.781 410.003L312.605 408.781L304.053 408.412L295.501 408.994L288.364 410.39L282.314 412.427L277.039 414.909L267.575 420.494L262.766 423.248L257.491 425.73L251.44 427.747L244.284 429.143L235.751 429.725L226.714 429.318L219.229 427.96L212.907 425.885L207.38 423.325L202.279 420.494L197.257 417.624L191.943 414.928L185.95 412.64L178.95 410.972" stroke="#E5E6E0" stroke-width="7.62845" stroke-miterlimit="10" stroke-linejoin="round"/>
<path d="M647.132 496.066L638.58 495.697L631.404 494.476L625.296 492.614L619.963 490.267L610.363 484.915L605.476 482.278L600.143 479.931L594.054 478.05L586.859 476.848L578.307 476.479L569.774 477.061L562.618 478.457L556.567 480.474L551.292 482.956L541.829 488.541L537.019 491.295L531.744 493.778L525.694 495.814L518.557 497.21L510.005 497.792L501.453 497.423L494.277 496.202L488.169 494.321L482.836 491.974L473.236 486.622L468.369 484.004L463.016 481.657L456.927 479.776L449.751 478.554L441.18 478.186L432.647 478.767L425.491 480.164L419.44 482.2L414.165 484.682L404.702 490.267L399.892 493.021L394.617 495.503L388.567 497.52L381.43 498.917L372.878 499.498L364.326 499.13L357.15 497.928L351.042 496.046L345.709 493.7L336.109 488.348L331.222 485.71L325.889 483.364L319.78 481.502L312.605 480.28L304.053 479.912L295.501 480.493L288.364 481.89L282.313 483.907L277.039 486.389L267.575 491.993L262.765 494.728L257.491 497.21L251.44 499.246L244.284 500.643L235.751 501.224L226.714 500.798L219.228 499.44L212.906 497.365L207.379 494.805L202.279 491.974L197.256 489.104L191.943 486.408L185.95 484.12L178.949 482.471" stroke="#E5E6E0" stroke-width="7.62845" stroke-miterlimit="10" stroke-linejoin="round"/>
<path d="M647.132 283.19L638.58 282.822L631.405 281.6L625.296 279.738L619.963 277.392L610.363 272.039L605.476 269.402L600.143 267.055L594.054 265.174L586.859 263.972L578.307 263.603L569.774 264.185L562.618 265.582L556.568 267.598L551.293 270.081L541.829 275.666L537.02 278.42L531.745 280.902L525.694 282.938L518.558 284.334L510.005 284.916L501.453 284.548L494.278 283.326L488.169 281.445L482.836 279.098L473.236 273.746L468.369 271.128L463.016 268.781L456.927 266.9L449.752 265.679L441.18 265.31L432.647 265.892L425.491 267.288L419.441 269.324L414.166 271.807L404.702 277.392L399.893 280.146L394.618 282.628L388.567 284.645L381.431 286.041L372.878 286.623L364.326 286.254L357.151 285.052L351.042 283.171L345.709 280.824L336.109 275.472L331.222 272.834L325.889 270.488L319.781 268.626L312.605 267.404L304.053 267.036L295.501 267.618L288.364 269.014L282.314 271.031L277.039 273.513L267.575 279.118L262.766 281.852L257.491 284.334L251.44 286.371L244.284 287.767L235.751 288.349L226.714 287.922L219.229 286.565L212.907 284.49L207.38 281.93L202.279 279.098L197.257 276.228L191.943 273.533L185.95 271.244L178.95 269.596" stroke="#E5E6E0" stroke-width="7.62845" stroke-miterlimit="10" stroke-linejoin="round"/>
<path d="M372.59 318.937L364.037 318.569L356.862 317.347L350.753 315.485L345.42 313.139L335.821 307.786L330.934 305.149L325.601 302.802L319.511 300.921L312.317 299.719L303.764 299.331L295.231 299.932L288.075 301.328L282.025 303.345L276.75 305.828L267.286 311.413L262.477 314.167L257.202 316.649L251.151 318.685L244.015 320.081L235.463 320.663L226.91 320.295L219.735 319.073L213.626 317.192L208.293 314.845L198.694 309.493L193.826 306.875L188.474 304.528L182.384 302.647L175.209 301.425L166.637 301.057L158.105 301.639L150.949 303.035L144.898 305.071L139.623 307.554L130.159 313.139L125.35 315.893L120.075 318.375L114.025 320.392L106.888 321.788L98.3357 322.37L89.7834 322.001L82.6081 320.78L76.4993 318.918L71.1663 316.571L61.5668 311.219L56.6798 308.581L51.3468 306.235L45.238 304.354L38.0627 303.151L29.5104 302.783L20.9582 303.365L13.8216 304.761L7.77101 306.778L2.49618 309.26L-6.96755 314.845L-11.777 317.599L-17.0518 320.081L-23.1024 322.118L-30.2584 323.514L-38.7912 324.096L-47.8283 323.669L-55.314 322.312L-61.636 320.237L-67.163 317.677L-72.2633 314.845L-77.2861 311.975L-82.5997 309.28L-88.5921 306.991L-95.5929 305.343" stroke="#E5E6E0" stroke-width="7.62845" stroke-miterlimit="10" stroke-linejoin="round"/>
<path d="M372.59 464.501L364.037 464.132L356.862 462.911L350.753 461.049L345.42 458.702L335.821 453.35L330.934 450.713L325.601 448.366L319.511 446.504L312.317 445.283L303.764 444.914L295.231 445.496L288.075 446.892L282.025 448.909L276.75 451.391L267.286 456.996L262.477 459.73L257.202 462.213L251.151 464.249L244.015 465.645L235.463 466.227L226.91 465.858L219.735 464.637L213.626 462.756L208.293 460.409L198.694 455.057L193.826 452.439L188.474 450.092L182.384 448.211L175.209 446.989L166.637 446.621L158.105 447.202L150.949 448.599L144.898 450.635L139.623 453.117L130.159 458.702L125.35 461.456L120.075 463.939L114.025 465.955L106.888 467.352L98.3357 467.933L89.7834 467.565L82.6081 466.363L76.4993 464.482L71.1663 462.135L61.5668 456.783L56.6798 454.145L51.3468 451.799L45.238 449.937L38.0627 448.715L29.5104 448.347L20.9582 448.928L13.8216 450.325L7.77101 452.361L2.49618 454.824L-6.96755 460.428L-11.777 463.182L-17.0518 465.645L-23.1024 467.681L-30.2584 469.078L-38.7912 469.659L-47.8283 469.233L-55.314 467.875L-61.636 465.8L-67.163 463.24L-72.2633 460.409L-77.2861 457.539L-82.5997 454.843L-88.5921 452.555L-95.5929 450.907" stroke="#E5E6E0" stroke-width="7.62845" stroke-miterlimit="10" stroke-linejoin="round"/>
<path d="M372.59 355.34L364.037 354.971L356.862 353.749L350.753 351.868L345.42 349.522L335.821 344.169L330.934 341.551L325.601 339.205L319.511 337.324L312.317 336.102L303.764 335.733L295.231 336.315L288.075 337.711L282.025 339.748L276.75 342.23L267.286 347.815L262.477 350.569L257.202 353.051L251.151 355.068L244.015 356.464L235.463 357.046L226.91 356.678L219.735 355.456L213.626 353.594L208.293 351.248L198.694 345.895L193.826 343.258L188.474 340.911L182.384 339.03L175.209 337.828L166.637 337.459L158.105 338.041L150.949 339.437L144.898 341.454L139.623 343.937L130.159 349.522L125.35 352.275L120.075 354.758L114.025 356.794L106.888 358.19L98.3357 358.772L89.7834 358.404L82.6081 357.182L76.4993 355.301L71.1663 352.954L61.5668 347.602L56.6798 344.984L51.3468 342.637L45.238 340.756L38.0627 339.534L29.5104 339.166L20.9582 339.748L13.8216 341.144L7.77101 343.18L2.49618 345.662L-6.96755 351.248L-11.777 354.001L-17.0518 356.484L-23.1024 358.501L-30.2584 359.897L-38.7912 360.479L-47.8283 360.071L-55.314 358.714L-61.636 356.639L-67.163 354.079L-72.2633 351.248L-77.2861 348.358L-82.5997 345.682L-88.5921 343.394L-95.5929 341.726" stroke="#E5E6E0" stroke-width="7.62845" stroke-miterlimit="10" stroke-linejoin="round"/>
<path d="M372.59 391.72L364.037 391.351L356.862 390.13L350.753 388.268L345.42 385.921L335.821 380.569L330.934 377.932L325.601 375.585L319.511 373.704L312.317 372.502L303.764 372.133L295.231 372.715L288.075 374.111L282.025 376.128L276.75 378.61L267.286 384.195L262.477 386.949L257.202 389.432L251.151 391.468L244.015 392.864L235.463 393.446L226.91 393.077L219.735 391.856L213.626 389.975L208.293 387.628L198.694 382.276L193.826 379.658L188.474 377.311L182.384 375.43L175.209 374.208L166.637 373.84L158.105 374.421L150.949 375.818L144.898 377.854L139.623 380.336L130.159 385.921L125.35 388.675L120.075 391.158L114.025 393.174L106.888 394.571L98.3357 395.152L89.7834 394.784L82.6081 393.582L76.4993 391.701L71.1663 389.354L61.5668 384.002L56.6798 381.364L51.3468 379.018L45.238 377.156L38.0627 375.934L29.5104 375.566L20.9582 376.147L13.8216 377.544L7.77101 379.561L2.49618 382.043L-6.96755 387.647L-11.777 390.382L-17.0518 392.864L-23.1024 394.9L-30.2584 396.297L-38.7912 396.878L-47.8283 396.452L-55.314 395.094L-61.636 393.019L-67.163 390.459L-72.2633 387.628L-77.2861 384.758L-82.5997 382.062L-88.5921 379.774L-95.5929 378.126" stroke="#E5E6E0" stroke-width="7.62845" stroke-miterlimit="10" stroke-linejoin="round"/>
<path d="M372.59 428.122L364.037 427.753L356.862 426.532L350.753 424.651L345.42 422.304L335.821 416.952L330.934 414.334L325.601 411.987L319.511 410.106L312.317 408.884L303.764 408.516L295.231 409.097L288.075 410.494L282.025 412.53L276.75 415.012L267.286 420.597L262.477 423.351L257.202 425.834L251.151 427.85L244.015 429.247L235.463 429.828L226.91 429.46L219.735 428.258L213.626 426.377L208.293 424.03L198.694 418.678L193.826 416.04L188.474 413.694L182.384 411.832L175.209 410.61L166.637 410.242L158.105 410.823L150.949 412.22L144.898 414.237L139.623 416.719L130.159 422.323L125.35 425.058L120.075 427.54L114.025 429.576L106.888 430.973L98.3357 431.554L89.7834 431.186L82.6081 429.964L76.4993 428.083L71.1663 425.737L61.5668 420.384L56.6798 417.766L51.3468 415.42L45.238 413.538L38.0627 412.317L29.5104 411.948L20.9582 412.53L13.8216 413.926L7.77101 415.963L2.49618 418.445L-6.96755 424.03L-11.777 426.784L-17.0518 429.266L-23.1024 431.283L-30.2584 432.679L-38.7912 433.261L-47.8283 432.854L-55.314 431.496L-61.636 429.421L-67.163 426.861L-72.2633 424.03L-77.2861 421.16L-82.5997 418.464L-88.5921 416.176L-95.5929 414.508" stroke="#E5E6E0" stroke-width="7.62845" stroke-miterlimit="10" stroke-linejoin="round"/>
<path d="M372.59 499.602L364.037 499.233L356.862 498.012L350.753 496.15L345.42 493.803L335.821 488.451L330.934 485.813L325.601 483.467L319.511 481.586L312.317 480.383L303.764 480.015L295.231 480.597L288.075 481.993L282.025 484.01L276.75 486.492L267.286 492.077L262.477 494.831L257.202 497.313L251.151 499.35L244.015 500.746L235.463 501.328L226.91 500.959L219.735 499.738L213.626 497.856L208.293 495.51L198.694 490.157L193.826 487.539L188.474 485.193L182.384 483.312L175.209 482.09L166.637 481.722L158.105 482.303L150.949 483.7L144.898 485.736L139.623 488.218L130.159 493.803L125.35 496.557L120.075 499.039L114.025 501.056L106.888 502.453L98.3357 503.034L89.7834 502.666L82.6081 501.463L76.4993 499.582L71.1663 497.236L61.5668 491.883L56.6798 489.246L51.3468 486.899L45.238 485.038L38.0627 483.816L29.5104 483.447L20.9582 484.029L13.8216 485.426L7.77101 487.442L2.49618 489.925L-6.96755 495.529L-11.777 498.264L-17.0518 500.746L-23.1024 502.782L-30.2584 504.178L-38.7912 504.76L-47.8283 504.334L-55.314 502.976L-61.636 500.901L-67.163 498.341L-72.2633 495.51L-77.2861 492.64L-82.5997 489.944L-88.5921 487.656L-95.5929 486.007" stroke="#E5E6E0" stroke-width="7.62845" stroke-miterlimit="10" stroke-linejoin="round"/>
<path d="M372.59 286.726L364.037 286.357L356.862 285.136L350.753 283.274L345.42 280.927L335.821 275.575L330.934 272.937L325.601 270.591L319.511 268.71L312.317 267.507L303.764 267.139L295.231 267.721L288.075 269.117L282.025 271.134L276.75 273.616L267.286 279.201L262.477 281.955L257.202 284.437L251.151 286.474L244.015 287.87L235.463 288.452L226.91 288.083L219.735 286.862L213.626 284.98L208.293 282.634L198.694 277.281L193.826 274.663L188.474 272.317L182.384 270.436L175.209 269.214L166.637 268.846L158.105 269.427L150.949 270.824L144.898 272.86L139.623 275.342L130.159 280.927L125.35 283.681L120.075 286.163L114.025 288.18L106.888 289.577L98.3357 290.158L89.7834 289.79L82.6081 288.587L76.4993 286.706L71.1663 284.36L61.5668 279.007L56.6798 276.37L51.3468 274.023L45.238 272.162L38.0627 270.94L29.5104 270.572L20.9582 271.153L13.8216 272.55L7.77101 274.566L2.49618 277.049L-6.96755 282.653L-11.777 285.388L-17.0518 287.87L-23.1024 289.906L-30.2584 291.303L-38.7912 291.884L-47.8283 291.458L-55.314 290.1L-61.636 288.025L-67.163 285.465L-72.2633 282.634L-77.2861 279.764L-82.5997 277.068L-88.5921 274.78L-95.5929 273.131" stroke="#E5E6E0" stroke-width="7.62845" stroke-miterlimit="10" stroke-linejoin="round"/>
</g>
<circle cx="246.832" cy="245.452" r="115.632" fill="#0D263F" stroke="#E50040" stroke-width="45.7083"/>
<circle cx="246.831" cy="245.452" r="114.842" fill="#0D263F" stroke="#0D263F" stroke-width="2.25181"/>
<ellipse cx="170.271" cy="246.578" rx="14.6368" ry="22.5181" fill="#E50040"/>
<path d="M353.792 372.679L333.526 352.413L353.792 332.147L374.059 352.413L353.792 372.679Z" fill="#E50040"/>
<path d="M340.282 381.686L351.541 370.427L381.941 340.028L446.713 404.8C458.005 416.092 467.943 431.282 463.862 446.721C461.943 453.98 457.704 458.571 450.529 461.181C433.415 467.406 415.315 456.719 402.439 443.843L340.282 381.686Z" fill="#E50040"/>
<circle cx="254.476" cy="240.06" r="112.447" stroke="#E5E6E0" stroke-width="2.53935"/>
<path d="M191.425 241.186C191.425 247.219 189.834 252.628 187.32 256.495C184.8 260.373 181.449 262.578 177.915 262.578C174.38 262.578 171.029 260.373 168.509 256.495C165.995 252.628 164.404 247.219 164.404 241.186C164.404 235.153 165.995 229.744 168.509 225.877C171.029 221.999 174.38 219.794 177.915 219.794C181.449 219.794 184.8 221.999 187.32 225.877C189.834 229.744 191.425 235.153 191.425 241.186Z" stroke="#E5E6E0" stroke-width="2.25181"/>
<circle cx="254.476" cy="240.06" r="137.217" stroke="#E5E6E0" stroke-width="2.53935"/>
<path d="M359.741 362.28L341.966 345.351L359.741 328.422L377.517 345.351L359.741 362.28Z" stroke="#E5E6E0" stroke-width="2.53935" stroke-linecap="round"/>
<path d="M347.925 376.295L359.184 365.036L389.584 334.636L454.356 399.408C465.648 410.7 475.586 425.89 471.505 441.329C469.586 448.588 465.348 453.179 458.172 455.789C441.059 462.014 422.958 451.328 410.082 438.451L347.925 376.295Z" stroke="#E5E6E0" stroke-width="2.53935" stroke-linecap="round"/>
</g>
</g>
<defs>
<clipPath id="clip0_4_238">
<rect width="512" height="512" fill="white"/>
</clipPath>
</defs>
</svg>
