<svg width="512" height="512" viewBox="0 0 512 512" fill="none" xmlns="http://www.w3.org/2000/svg">
<g clip-path="url(#clip0_4_510)">
<circle cx="256.474" cy="256.474" r="256.474" fill="#0D263F"/>
<mask id="mask0_4_510" style="mask-type:alpha" maskUnits="userSpaceOnUse" x="0" y="0" width="513" height="513">
<circle cx="256.474" cy="256.474" r="256.474" fill="#0D263F"/>
</mask>
<g mask="url(#mask0_4_510)">
<g style="mix-blend-mode:soft-light">
<path d="M647.132 315.401L638.58 315.032L631.404 313.811L625.296 311.949L619.963 309.602L610.363 304.25L605.476 301.613L600.143 299.266L594.054 297.385L586.859 296.183L578.307 295.795L569.774 296.396L562.618 297.792L556.567 299.809L551.293 302.291L541.829 307.877L537.019 310.63L531.745 313.113L525.694 315.149L518.557 316.545L510.005 317.127L501.453 316.758L494.278 315.537L488.169 313.656L482.836 311.309L473.236 305.957L468.369 303.339L463.016 300.992L456.927 299.111L449.751 297.889L441.18 297.521L432.647 298.103L425.491 299.499L419.44 301.535L414.166 304.017L404.702 309.602L399.892 312.356L394.618 314.839L388.567 316.855L381.43 318.252L372.878 318.833L364.326 318.465L357.151 317.243L351.042 315.382L345.709 313.035L336.109 307.683L331.222 305.045L325.889 302.699L319.781 300.818L312.605 299.615L304.053 299.247L295.501 299.828L288.364 301.225L282.313 303.242L277.039 305.724L267.575 311.309L262.766 314.063L257.491 316.545L251.44 318.581L244.284 319.978L235.751 320.559L226.714 320.133L219.229 318.775L212.906 316.7L207.379 314.14L202.279 311.309L197.256 308.439L191.943 305.743L185.95 303.455L178.95 301.807" stroke="#E5E6E0" stroke-width="7.62845" stroke-miterlimit="10" stroke-linejoin="round"/>
<path d="M647.132 460.965L638.58 460.596L631.404 459.374L625.296 457.513L619.963 455.166L610.363 449.814L605.476 447.176L600.143 444.83L594.054 442.968L586.859 441.746L578.307 441.378L569.774 441.96L562.618 443.356L556.567 445.373L551.293 447.855L541.829 453.46L537.019 456.194L531.745 458.676L525.694 460.712L518.557 462.109L510.005 462.691L501.453 462.322L494.278 461.1L488.169 459.219L482.836 456.873L473.236 451.52L468.369 448.902L463.016 446.556L456.927 444.675L449.751 443.453L441.18 443.084L432.647 443.666L425.491 445.062L419.44 447.099L414.166 449.581L404.702 455.166L399.892 457.92L394.618 460.402L388.567 462.419L381.43 463.815L372.878 464.397L364.326 464.029L357.151 462.826L351.042 460.945L345.709 458.599L336.109 453.246L331.222 450.609L325.889 448.262L319.781 446.401L312.605 445.179L304.053 444.81L295.501 445.392L288.364 446.788L282.313 448.825L277.039 451.288L267.575 456.892L262.766 459.646L257.491 462.109L251.44 464.145L244.284 465.541L235.751 466.123L226.714 465.696L219.229 464.339L212.906 462.264L207.379 459.704L202.279 456.873L197.256 454.003L191.943 451.307L185.95 449.019L178.95 447.37" stroke="#E5E6E0" stroke-width="7.62845" stroke-miterlimit="10" stroke-linejoin="round"/>
<path d="M647.132 351.802L638.58 351.434L631.404 350.212L625.296 348.331L619.963 345.985L610.363 340.632L605.476 338.014L600.143 335.668L594.054 333.786L586.859 332.565L578.307 332.196L569.774 332.778L562.618 334.174L556.567 336.211L551.293 338.693L541.829 344.278L537.019 347.032L531.745 349.514L525.694 351.531L518.557 352.927L510.005 353.509L501.453 353.141L494.278 351.919L488.169 350.057L482.836 347.711L473.236 342.358L468.369 339.721L463.016 337.374L456.927 335.493L449.751 334.291L441.18 333.922L432.647 334.504L425.491 335.9L419.44 337.917L414.166 340.399L404.702 345.985L399.892 348.738L394.618 351.221L388.567 353.257L381.43 354.653L372.878 355.235L364.326 354.866L357.151 353.645L351.042 351.764L345.709 349.417L336.109 344.065L331.222 341.447L325.889 339.1L319.781 337.219L312.605 335.997L304.053 335.629L295.501 336.211L288.364 337.607L282.313 339.643L277.039 342.125L267.575 347.711L262.766 350.464L257.491 352.947L251.44 354.963L244.284 356.36L235.751 356.942L226.714 356.534L219.229 355.177L212.906 353.102L207.379 350.542L202.279 347.711L197.256 344.821L191.943 342.145L185.95 339.856L178.95 338.189" stroke="#E5E6E0" stroke-width="7.62845" stroke-miterlimit="10" stroke-linejoin="round"/>
<path d="M647.132 388.183L638.58 387.815L631.404 386.593L625.296 384.731L619.963 382.385L610.363 377.032L605.476 374.395L600.143 372.048L594.054 370.167L586.859 368.965L578.307 368.597L569.774 369.178L562.618 370.575L556.567 372.591L551.293 375.074L541.829 380.659L537.019 383.413L531.745 385.895L525.694 387.931L518.557 389.327L510.005 389.909L501.453 389.541L494.278 388.319L488.169 386.438L482.836 384.091L473.236 378.739L468.369 376.121L463.016 373.774L456.927 371.893L449.751 370.672L441.18 370.303L432.647 370.885L425.491 372.281L419.44 374.317L414.166 376.8L404.702 382.385L399.892 385.139L394.618 387.621L388.567 389.638L381.43 391.034L372.878 391.616L364.326 391.247L357.151 390.045L351.042 388.164L345.709 385.817L336.109 380.465L331.222 377.827L325.889 375.481L319.781 373.619L312.605 372.398L304.053 372.029L295.501 372.611L288.364 374.007L282.313 376.024L277.039 378.506L267.575 384.111L262.766 386.845L257.491 389.327L251.44 391.364L244.284 392.76L235.751 393.342L226.714 392.915L219.229 391.558L212.906 389.483L207.379 386.923L202.279 384.091L197.256 381.221L191.943 378.526L185.95 376.237L178.95 374.589" stroke="#E5E6E0" stroke-width="7.62845" stroke-miterlimit="10" stroke-linejoin="round"/>
<path d="M647.132 424.586L638.58 424.217L631.404 422.996L625.296 421.114L619.963 418.768L610.363 413.415L605.476 410.797L600.143 408.451L594.054 406.57L586.859 405.348L578.307 404.98L569.774 405.561L562.618 406.958L556.567 408.994L551.293 411.476L541.829 417.061L537.019 419.815L531.745 422.297L525.694 424.314L518.557 425.711L510.005 426.292L501.453 425.924L494.278 424.721L488.169 422.84L482.836 420.494L473.236 415.141L468.369 412.504L463.016 410.157L456.927 408.296L449.751 407.074L441.18 406.706L432.647 407.287L425.491 408.684L419.44 410.7L414.166 413.183L404.702 418.787L399.892 421.522L394.618 424.004L388.567 426.04L381.43 427.436L372.878 428.018L364.326 427.65L357.151 426.428L351.042 424.547L345.709 422.2L336.109 416.848L331.222 414.23L325.889 411.883L319.781 410.002L312.605 408.781L304.053 408.412L295.501 408.994L288.364 410.39L282.313 412.426L277.039 414.909L267.575 420.494L262.766 423.248L257.491 425.73L251.44 427.747L244.284 429.143L235.751 429.725L226.714 429.318L219.229 427.96L212.906 425.885L207.379 423.325L202.279 420.494L197.256 417.624L191.943 414.928L185.95 412.64L178.95 410.972" stroke="#E5E6E0" stroke-width="7.62845" stroke-miterlimit="10" stroke-linejoin="round"/>
<path d="M647.132 496.066L638.579 495.697L631.404 494.476L625.295 492.614L619.962 490.267L610.363 484.915L605.476 482.278L600.143 479.931L594.053 478.05L586.859 476.848L578.306 476.479L569.773 477.061L562.617 478.457L556.567 480.474L551.292 482.956L541.828 488.541L537.019 491.295L531.744 493.778L525.693 495.814L518.557 497.21L510.005 497.792L501.452 497.423L494.277 496.202L488.168 494.321L482.835 491.974L473.236 486.622L468.368 484.004L463.016 481.657L456.926 479.776L449.751 478.554L441.179 478.186L432.646 478.767L425.491 480.164L419.44 482.2L414.165 484.682L404.701 490.267L399.892 493.021L394.617 495.503L388.567 497.52L381.43 498.917L372.878 499.498L364.325 499.13L357.15 497.928L351.041 496.046L345.708 493.7L336.109 488.348L331.222 485.71L325.889 483.364L319.78 481.502L312.605 480.28L304.052 479.912L295.5 480.493L288.364 481.89L282.313 483.907L277.038 486.389L267.574 491.993L262.765 494.728L257.49 497.21L251.44 499.246L244.284 500.643L235.751 501.224L226.714 500.798L219.228 499.44L212.906 497.365L207.379 494.805L202.279 491.974L197.256 489.104L191.942 486.408L185.95 484.12L178.949 482.471" stroke="#E5E6E0" stroke-width="7.62845" stroke-miterlimit="10" stroke-linejoin="round"/>
<path d="M647.132 283.19L638.58 282.822L631.404 281.6L625.296 279.738L619.963 277.392L610.363 272.039L605.476 269.402L600.143 267.055L594.054 265.174L586.859 263.972L578.307 263.603L569.774 264.185L562.618 265.582L556.567 267.598L551.293 270.081L541.829 275.666L537.019 278.42L531.745 280.902L525.694 282.938L518.557 284.334L510.005 284.916L501.453 284.548L494.278 283.326L488.169 281.445L482.836 279.098L473.236 273.746L468.369 271.128L463.016 268.781L456.927 266.9L449.751 265.679L441.18 265.31L432.647 265.892L425.491 267.288L419.44 269.324L414.166 271.807L404.702 277.392L399.892 280.146L394.618 282.628L388.567 284.645L381.43 286.041L372.878 286.623L364.326 286.254L357.151 285.052L351.042 283.171L345.709 280.824L336.109 275.472L331.222 272.834L325.889 270.488L319.781 268.626L312.605 267.404L304.053 267.036L295.501 267.618L288.364 269.014L282.313 271.031L277.039 273.513L267.575 279.118L262.766 281.852L257.491 284.334L251.44 286.371L244.284 287.767L235.751 288.349L226.714 287.922L219.229 286.565L212.906 284.49L207.379 281.93L202.279 279.098L197.256 276.228L191.943 273.533L185.95 271.244L178.95 269.596" stroke="#E5E6E0" stroke-width="7.62845" stroke-miterlimit="10" stroke-linejoin="round"/>
<path d="M372.589 318.937L364.037 318.569L356.862 317.347L350.753 315.485L345.42 313.139L335.82 307.786L330.933 305.149L325.6 302.802L319.511 300.921L312.316 299.719L303.764 299.331L295.231 299.932L288.075 301.328L282.025 303.345L276.75 305.828L267.286 311.413L262.477 314.167L257.202 316.649L251.151 318.685L244.015 320.081L235.462 320.663L226.91 320.295L219.735 319.073L213.626 317.192L208.293 314.845L198.694 309.493L193.826 306.875L188.473 304.528L182.384 302.647L175.209 301.425L166.637 301.057L158.104 301.639L150.948 303.035L144.898 305.071L139.623 307.554L130.159 313.139L125.35 315.893L120.075 318.375L114.024 320.392L106.888 321.788L98.3355 322.37L89.7832 322.001L82.6079 320.78L76.4991 318.918L71.166 316.571L61.5666 311.219L56.6796 308.581L51.3465 306.235L45.2378 304.354L38.0624 303.151L29.5102 302.783L20.9579 303.365L13.8214 304.761L7.77076 306.778L2.49593 309.26L-6.9678 314.845L-11.7772 317.599L-17.0521 320.081L-23.1027 322.118L-30.2586 323.514L-38.7915 324.096L-47.8286 323.669L-55.3142 322.312L-61.6363 320.237L-67.1633 317.677L-72.2636 314.845L-77.2863 311.975L-82.6 309.28L-88.5924 306.991L-95.5932 305.343" stroke="#E5E6E0" stroke-width="7.62845" stroke-miterlimit="10" stroke-linejoin="round"/>
<path d="M372.589 464.501L364.037 464.132L356.862 462.911L350.753 461.049L345.42 458.702L335.82 453.35L330.933 450.713L325.6 448.366L319.511 446.504L312.316 445.283L303.764 444.914L295.231 445.496L288.075 446.892L282.025 448.909L276.75 451.391L267.286 456.996L262.477 459.73L257.202 462.213L251.151 464.249L244.015 465.645L235.462 466.227L226.91 465.858L219.735 464.637L213.626 462.756L208.293 460.409L198.694 455.057L193.826 452.439L188.473 450.092L182.384 448.211L175.209 446.989L166.637 446.621L158.104 447.202L150.948 448.599L144.898 450.635L139.623 453.117L130.159 458.702L125.35 461.456L120.075 463.939L114.024 465.955L106.888 467.352L98.3355 467.933L89.7832 467.565L82.6079 466.363L76.4991 464.482L71.166 462.135L61.5666 456.783L56.6796 454.145L51.3465 451.799L45.2378 449.937L38.0624 448.715L29.5102 448.347L20.9579 448.928L13.8214 450.325L7.77076 452.361L2.49593 454.824L-6.9678 460.428L-11.7772 463.182L-17.0521 465.645L-23.1027 467.681L-30.2586 469.078L-38.7915 469.659L-47.8286 469.233L-55.3142 467.875L-61.6363 465.8L-67.1633 463.24L-72.2636 460.409L-77.2863 457.539L-82.6 454.843L-88.5924 452.555L-95.5932 450.907" stroke="#E5E6E0" stroke-width="7.62845" stroke-miterlimit="10" stroke-linejoin="round"/>
<path d="M372.589 355.34L364.037 354.971L356.862 353.749L350.753 351.868L345.42 349.522L335.82 344.169L330.933 341.551L325.6 339.205L319.511 337.324L312.316 336.102L303.764 335.733L295.231 336.315L288.075 337.711L282.025 339.748L276.75 342.23L267.286 347.815L262.477 350.569L257.202 353.051L251.151 355.068L244.015 356.464L235.462 357.046L226.91 356.678L219.735 355.456L213.626 353.594L208.293 351.248L198.694 345.895L193.826 343.258L188.473 340.911L182.384 339.03L175.209 337.828L166.637 337.459L158.104 338.041L150.948 339.437L144.898 341.454L139.623 343.937L130.159 349.522L125.35 352.275L120.075 354.758L114.024 356.794L106.888 358.19L98.3355 358.772L89.7832 358.404L82.6079 357.182L76.4991 355.301L71.166 352.954L61.5666 347.602L56.6796 344.984L51.3465 342.637L45.2378 340.756L38.0624 339.534L29.5102 339.166L20.9579 339.748L13.8214 341.144L7.77076 343.18L2.49593 345.662L-6.9678 351.248L-11.7772 354.001L-17.0521 356.484L-23.1027 358.501L-30.2586 359.897L-38.7915 360.479L-47.8286 360.071L-55.3142 358.714L-61.6363 356.639L-67.1633 354.079L-72.2636 351.248L-77.2863 348.358L-82.6 345.682L-88.5924 343.394L-95.5932 341.726" stroke="#E5E6E0" stroke-width="7.62845" stroke-miterlimit="10" stroke-linejoin="round"/>
<path d="M372.589 391.72L364.037 391.351L356.862 390.13L350.753 388.268L345.42 385.921L335.82 380.569L330.933 377.932L325.6 375.585L319.511 373.704L312.316 372.502L303.764 372.133L295.231 372.715L288.075 374.111L282.025 376.128L276.75 378.61L267.286 384.195L262.477 386.949L257.202 389.432L251.151 391.468L244.015 392.864L235.462 393.446L226.91 393.077L219.735 391.856L213.626 389.975L208.293 387.628L198.694 382.276L193.826 379.658L188.473 377.311L182.384 375.43L175.209 374.208L166.637 373.84L158.104 374.421L150.948 375.818L144.898 377.854L139.623 380.336L130.159 385.921L125.35 388.675L120.075 391.158L114.024 393.174L106.888 394.571L98.3355 395.152L89.7832 394.784L82.6079 393.582L76.4991 391.701L71.166 389.354L61.5666 384.002L56.6796 381.364L51.3465 379.018L45.2378 377.156L38.0624 375.934L29.5102 375.566L20.9579 376.147L13.8214 377.544L7.77076 379.561L2.49593 382.043L-6.9678 387.647L-11.7772 390.382L-17.0521 392.864L-23.1027 394.9L-30.2586 396.297L-38.7915 396.878L-47.8286 396.452L-55.3142 395.094L-61.6363 393.019L-67.1633 390.459L-72.2636 387.628L-77.2863 384.758L-82.6 382.062L-88.5924 379.774L-95.5932 378.126" stroke="#E5E6E0" stroke-width="7.62845" stroke-miterlimit="10" stroke-linejoin="round"/>
<path d="M372.589 428.122L364.037 427.753L356.862 426.532L350.753 424.651L345.42 422.304L335.82 416.952L330.933 414.334L325.6 411.987L319.511 410.106L312.316 408.884L303.764 408.516L295.231 409.097L288.075 410.494L282.025 412.53L276.75 415.012L267.286 420.597L262.477 423.351L257.202 425.834L251.151 427.85L244.015 429.247L235.462 429.828L226.91 429.46L219.735 428.258L213.626 426.377L208.293 424.03L198.694 418.678L193.826 416.04L188.473 413.694L182.384 411.832L175.209 410.61L166.637 410.242L158.104 410.823L150.948 412.22L144.898 414.237L139.623 416.719L130.159 422.323L125.35 425.058L120.075 427.54L114.024 429.576L106.888 430.973L98.3355 431.554L89.7832 431.186L82.6079 429.964L76.4991 428.083L71.166 425.737L61.5666 420.384L56.6796 417.766L51.3465 415.42L45.2378 413.538L38.0624 412.317L29.5102 411.948L20.9579 412.53L13.8214 413.926L7.77076 415.963L2.49593 418.445L-6.9678 424.03L-11.7772 426.784L-17.0521 429.266L-23.1027 431.283L-30.2586 432.679L-38.7915 433.261L-47.8286 432.854L-55.3142 431.496L-61.6363 429.421L-67.1633 426.861L-72.2636 424.03L-77.2863 421.16L-82.6 418.464L-88.5924 416.176L-95.5932 414.508" stroke="#E5E6E0" stroke-width="7.62845" stroke-miterlimit="10" stroke-linejoin="round"/>
<path d="M372.589 499.602L364.037 499.233L356.862 498.012L350.753 496.15L345.42 493.803L335.82 488.451L330.933 485.813L325.6 483.467L319.511 481.586L312.316 480.383L303.764 480.015L295.231 480.597L288.075 481.993L282.025 484.01L276.75 486.492L267.286 492.077L262.477 494.831L257.202 497.313L251.151 499.35L244.015 500.746L235.462 501.328L226.91 500.959L219.735 499.738L213.626 497.856L208.293 495.51L198.693 490.157L193.826 487.539L188.473 485.193L182.384 483.312L175.209 482.09L166.637 481.722L158.104 482.303L150.948 483.7L144.898 485.736L139.623 488.218L130.159 493.803L125.35 496.557L120.075 499.039L114.024 501.056L106.888 502.453L98.3353 503.034L89.7831 502.666L82.6077 501.463L76.499 499.582L71.1659 497.236L61.5665 491.883L56.6794 489.246L51.3464 486.899L45.2377 485.038L38.0623 483.816L29.5101 483.447L20.9578 484.029L13.8212 485.426L7.77064 487.442L2.49581 489.925L-6.96792 495.529L-11.7773 498.264L-17.0522 500.746L-23.1028 502.782L-30.2588 504.178L-38.7916 504.76L-47.8287 504.334L-55.3143 502.976L-61.6364 500.901L-67.1634 498.341L-72.2637 495.51L-77.2865 492.64L-82.6001 489.944L-88.5925 487.656L-95.5933 486.007" stroke="#E5E6E0" stroke-width="7.62845" stroke-miterlimit="10" stroke-linejoin="round"/>
<path d="M372.589 286.726L364.037 286.357L356.862 285.136L350.753 283.274L345.42 280.927L335.82 275.575L330.933 272.937L325.6 270.591L319.511 268.71L312.316 267.507L303.764 267.139L295.231 267.721L288.075 269.117L282.025 271.134L276.75 273.616L267.286 279.201L262.477 281.955L257.202 284.437L251.151 286.474L244.015 287.87L235.462 288.452L226.91 288.083L219.735 286.862L213.626 284.98L208.293 282.634L198.694 277.281L193.826 274.663L188.473 272.317L182.384 270.436L175.209 269.214L166.637 268.846L158.104 269.427L150.948 270.824L144.898 272.86L139.623 275.342L130.159 280.927L125.35 283.681L120.075 286.163L114.024 288.18L106.888 289.577L98.3355 290.158L89.7832 289.79L82.6079 288.587L76.4991 286.706L71.166 284.36L61.5666 279.007L56.6796 276.37L51.3465 274.023L45.2378 272.162L38.0624 270.94L29.5102 270.572L20.9579 271.153L13.8214 272.55L7.77076 274.566L2.49593 277.049L-6.9678 282.653L-11.7772 285.388L-17.0521 287.87L-23.1027 289.906L-30.2586 291.303L-38.7915 291.884L-47.8286 291.458L-55.3142 290.1L-61.6363 288.025L-67.1633 285.465L-72.2636 282.634L-77.2863 279.764L-82.6 277.068L-88.5924 274.78L-95.5932 273.131" stroke="#E5E6E0" stroke-width="7.62845" stroke-miterlimit="10" stroke-linejoin="round"/>
<path d="M97.2344 322.64L88.6821 322.272L81.5068 321.05L75.398 319.188L70.065 316.842L60.4655 311.489L55.5785 308.852L50.2455 306.505L44.1561 304.624L36.9614 303.422L28.4091 303.034L19.8762 303.635L12.7203 305.031L6.6697 307.048L1.39484 309.531L-8.06888 315.116L-12.8783 317.87L-18.1532 320.352L-24.2037 322.388L-31.3403 323.784L-39.8926 324.366L-48.4448 323.998L-55.6202 322.776L-61.7289 320.895L-67.062 318.548L-76.6615 313.196L-81.5291 310.578L-86.8815 308.231L-92.9708 306.35L-100.146 305.128L-108.718 304.76L-117.251 305.342L-124.407 306.738L-130.457 308.774L-135.732 311.257L-145.196 316.842L-150.005 319.596L-155.28 322.078L-161.331 324.095L-168.467 325.491L-177.02 326.073L-185.572 325.704L-192.747 324.483L-198.856 322.621L-204.189 320.274L-213.788 314.922L-218.675 312.284L-224.008 309.938L-230.117 308.057L-237.293 306.854L-245.845 306.486L-254.397 307.068L-261.534 308.464L-267.584 310.481L-272.859 312.963L-282.323 318.548L-287.132 321.302L-292.407 323.784L-298.458 325.821L-305.614 327.217L-314.146 327.799L-323.184 327.372L-330.669 326.015L-336.991 323.94L-342.518 321.38L-347.619 318.548L-352.641 315.678L-357.955 312.983L-363.947 310.694L-370.948 309.046" stroke="#E5E6E0" stroke-width="7.62845" stroke-miterlimit="10" stroke-linejoin="round"/>
<path d="M97.2344 468.204L88.6821 467.836L81.5068 466.614L75.398 464.752L70.065 462.406L60.4655 457.053L55.5785 454.416L50.2455 452.069L44.1561 450.207L36.9614 448.986L28.4091 448.617L19.8762 449.199L12.7203 450.595L6.6697 452.612L1.39484 455.094L-8.06888 460.699L-12.8783 463.433L-18.1532 465.916L-24.2037 467.952L-31.3403 469.348L-39.8926 469.93L-48.4448 469.562L-55.6202 468.34L-61.7289 466.459L-67.062 464.112L-76.6615 458.76L-81.5291 456.142L-86.8815 453.795L-92.9708 451.914L-100.146 450.692L-108.718 450.324L-117.251 450.906L-124.407 452.302L-130.457 454.338L-135.732 456.82L-145.196 462.406L-150.005 465.159L-155.28 467.642L-161.331 469.659L-168.467 471.055L-177.02 471.637L-185.572 471.268L-192.747 470.066L-198.856 468.185L-204.189 465.838L-213.788 460.486L-218.675 457.848L-224.008 455.502L-230.117 453.64L-237.293 452.418L-245.845 452.05L-254.397 452.632L-261.534 454.028L-267.584 456.064L-272.859 458.527L-282.323 464.132L-287.132 466.885L-292.407 469.348L-298.458 471.384L-305.614 472.781L-314.146 473.363L-323.184 472.936L-330.669 471.578L-336.991 469.503L-342.518 466.944L-347.619 464.112L-352.641 461.242L-357.955 458.546L-363.947 456.258L-370.948 454.61" stroke="#E5E6E0" stroke-width="7.62845" stroke-miterlimit="10" stroke-linejoin="round"/>
<path d="M97.2344 359.043L88.6821 358.674L81.5068 357.452L75.398 355.571L70.065 353.225L60.4655 347.872L55.5785 345.254L50.2455 342.908L44.1561 341.027L36.9614 339.805L28.4091 339.436L19.8762 340.018L12.7203 341.414L6.6697 343.451L1.39484 345.933L-8.06888 351.518L-12.8783 354.272L-18.1532 356.754L-24.2037 358.771L-31.3403 360.167L-39.8926 360.749L-48.4448 360.381L-55.6202 359.159L-61.7289 357.297L-67.062 354.951L-76.6615 349.598L-81.5291 346.961L-86.8815 344.614L-92.9708 342.733L-100.146 341.531L-108.718 341.162L-117.251 341.744L-124.407 343.14L-130.457 345.157L-135.732 347.64L-145.196 353.225L-150.005 355.978L-155.28 358.461L-161.331 360.497L-168.467 361.893L-177.02 362.475L-185.572 362.107L-192.747 360.885L-198.856 359.004L-204.189 356.657L-213.788 351.305L-218.675 348.687L-224.008 346.34L-230.117 344.459L-237.293 343.237L-245.845 342.869L-254.397 343.451L-261.534 344.847L-267.584 346.883L-272.859 349.365L-282.323 354.951L-287.132 357.704L-292.407 360.187L-298.458 362.204L-305.614 363.6L-314.146 364.182L-323.184 363.774L-330.669 362.417L-336.991 360.342L-342.518 357.782L-347.619 354.951L-352.641 352.061L-357.955 349.385L-363.947 347.097L-370.948 345.429" stroke="#E5E6E0" stroke-width="7.62845" stroke-miterlimit="10" stroke-linejoin="round"/>
<path d="M97.2344 395.423L88.6821 395.055L81.5068 393.833L75.398 391.971L70.065 389.625L60.4655 384.272L55.5785 381.635L50.2455 379.288L44.1561 377.407L36.9614 376.205L28.4091 375.836L19.8762 376.418L12.7203 377.814L6.6697 379.831L1.39484 382.313L-8.06888 387.899L-12.8783 390.652L-18.1532 393.135L-24.2037 395.171L-31.3403 396.567L-39.8926 397.149L-48.4448 396.781L-55.6202 395.559L-61.7289 393.678L-67.062 391.331L-76.6615 385.979L-81.5291 383.361L-86.8815 381.014L-92.9708 379.133L-100.146 377.911L-108.718 377.543L-117.251 378.125L-124.407 379.521L-130.457 381.557L-135.732 384.039L-145.196 389.625L-150.005 392.378L-155.28 394.861L-161.331 396.878L-168.467 398.274L-177.02 398.856L-185.572 398.487L-192.747 397.285L-198.856 395.404L-204.189 393.057L-213.788 387.705L-218.675 385.067L-224.008 382.721L-230.117 380.859L-237.293 379.637L-245.845 379.269L-254.397 379.851L-261.534 381.247L-267.584 383.264L-272.859 385.746L-282.323 391.351L-287.132 394.085L-292.407 396.567L-298.458 398.603L-305.614 400L-314.146 400.582L-323.184 400.155L-330.669 398.797L-336.991 396.722L-342.518 394.163L-347.619 391.331L-352.641 388.461L-357.955 385.765L-363.947 383.477L-370.948 381.829" stroke="#E5E6E0" stroke-width="7.62845" stroke-miterlimit="10" stroke-linejoin="round"/>
<path d="M97.2344 431.826L88.6821 431.458L81.5068 430.236L75.398 428.355L70.065 426.008L60.4655 420.656L55.5785 418.038L50.2455 415.691L44.1561 413.81L36.9614 412.588L28.4091 412.22L19.8762 412.802L12.7203 414.198L6.6697 416.234L1.39484 418.716L-8.06888 424.302L-12.8783 427.055L-18.1532 429.538L-24.2037 431.554L-31.3403 432.951L-39.8926 433.533L-48.4448 433.164L-55.6202 431.962L-61.7289 430.081L-67.062 427.734L-76.6615 422.382L-81.5291 419.744L-86.8815 417.398L-92.9708 415.536L-100.146 414.314L-108.718 413.946L-117.251 414.528L-124.407 415.924L-130.457 417.941L-135.732 420.423L-145.196 426.028L-150.005 428.762L-155.28 431.244L-161.331 433.28L-168.467 434.677L-177.02 435.259L-185.572 434.89L-192.747 433.668L-198.856 431.787L-204.189 429.441L-213.788 424.088L-218.675 421.47L-224.008 419.124L-230.117 417.243L-237.293 416.021L-245.845 415.652L-254.397 416.234L-261.534 417.63L-267.584 419.667L-272.859 422.149L-282.323 427.734L-287.132 430.488L-292.407 432.97L-298.458 434.987L-305.614 436.383L-314.146 436.965L-323.184 436.558L-330.669 435.2L-336.991 433.125L-342.518 430.565L-347.619 427.734L-352.641 424.864L-357.955 422.168L-363.947 419.88L-370.948 418.212" stroke="#E5E6E0" stroke-width="7.62845" stroke-miterlimit="10" stroke-linejoin="round"/>
<path d="M97.2346 503.306L88.6824 502.937L81.507 501.715L75.3983 499.854L70.0652 497.507L60.4657 492.155L55.5787 489.517L50.2457 487.171L44.1564 485.29L36.9616 484.087L28.4093 483.719L19.8765 484.301L12.7205 485.697L6.66994 487.714L1.39509 490.196L-8.06863 495.781L-12.8781 498.535L-18.1529 501.017L-24.2035 503.054L-31.3401 504.45L-39.8923 505.032L-48.4446 504.663L-55.62 503.441L-61.7287 501.56L-67.0617 499.214L-76.6612 493.861L-81.5288 491.243L-86.8812 488.897L-92.9706 487.016L-100.146 485.794L-108.718 485.425L-117.25 486.007L-124.406 487.403L-130.457 489.44L-135.732 491.922L-145.196 497.507L-150.005 500.261L-155.28 502.743L-161.33 504.76L-168.467 506.156L-177.019 506.738L-185.572 506.37L-192.747 505.167L-198.856 503.286L-204.189 500.94L-213.788 495.587L-218.675 492.95L-224.008 490.603L-230.117 488.742L-237.292 487.52L-245.845 487.151L-254.397 487.733L-261.533 489.129L-267.584 491.146L-272.859 493.629L-282.323 499.233L-287.132 501.968L-292.407 504.45L-298.457 506.486L-305.613 507.882L-314.146 508.464L-323.183 508.037L-330.669 506.68L-336.991 504.605L-342.518 502.045L-347.618 499.214L-352.641 496.344L-357.955 493.648L-363.947 491.36L-370.948 489.711" stroke="#E5E6E0" stroke-width="7.62845" stroke-miterlimit="10" stroke-linejoin="round"/>
<path d="M97.2344 290.43L88.6821 290.061L81.5068 288.839L75.398 286.978L70.065 284.631L60.4655 279.279L55.5785 276.641L50.2455 274.295L44.1561 272.414L36.9614 271.211L28.4091 270.843L19.8762 271.425L12.7203 272.821L6.6697 274.838L1.39484 277.32L-8.06888 282.905L-12.8783 285.659L-18.1532 288.141L-24.2037 290.178L-31.3403 291.574L-39.8926 292.156L-48.4448 291.787L-55.6202 290.565L-61.7289 288.684L-67.062 286.338L-76.6615 280.985L-81.5291 278.367L-86.8815 276.021L-92.9708 274.14L-100.146 272.918L-108.718 272.549L-117.251 273.131L-124.407 274.527L-130.457 276.564L-135.732 279.046L-145.196 284.631L-150.005 287.385L-155.28 289.867L-161.331 291.884L-168.467 293.28L-177.02 293.862L-185.572 293.494L-192.747 292.291L-198.856 290.41L-204.189 288.064L-213.788 282.711L-218.675 280.074L-224.008 277.727L-230.117 275.866L-237.293 274.644L-245.845 274.275L-254.397 274.857L-261.534 276.253L-267.584 278.27L-272.859 280.753L-282.323 286.357L-287.132 289.092L-292.407 291.574L-298.458 293.61L-305.614 295.006L-314.146 295.588L-323.184 295.161L-330.669 293.804L-336.991 291.729L-342.518 289.169L-347.619 286.338L-352.641 283.468L-357.955 280.772L-363.947 278.484L-370.948 276.835" stroke="#E5E6E0" stroke-width="7.62845" stroke-miterlimit="10" stroke-linejoin="round"/>
</g>
<path d="M364.709 103.782L112.453 194.023L109.811 194.968C95.223 200.187 87.6276 216.244 92.8463 230.832L177.103 466.359L164.336 470.926C149.748 476.145 142.152 492.202 147.371 506.79L158.71 538.487C163.929 553.075 179.985 560.671 194.573 555.452L441.987 466.943C456.575 461.725 464.171 445.668 458.952 431.08L378.16 205.238L398.411 197.993C413 192.775 420.595 176.718 415.376 162.13L400.572 120.747C395.354 106.159 379.297 98.5638 364.709 103.782Z" fill="#D0D2CC"/>
<path d="M177.103 466.359L354.078 403.049C368.667 397.83 384.723 405.426 389.942 420.014L401.281 451.711C406.5 466.299 422.557 473.895 437.145 468.676L441.987 466.943C456.576 461.725 464.171 445.668 458.952 431.08L353.278 135.68C348.407 122.065 355.496 107.079 369.112 102.208V102.208" stroke="#0D263F" stroke-width="3.74048" stroke-linecap="round"/>
<path d="M370.363 91.8278L118.107 182.069L115.466 183.014C100.878 188.232 93.2821 204.289 98.5008 218.877L182.757 454.404L169.99 458.971C155.402 464.19 147.807 480.247 153.025 494.835L164.364 526.532C169.583 541.12 185.64 548.716 200.228 543.497L447.642 454.989C462.23 449.77 469.825 433.713 464.607 419.125L383.815 193.283L404.066 186.039C418.654 180.82 426.25 164.763 421.031 150.175L406.227 108.793C401.008 94.2045 384.952 86.6091 370.363 91.8278Z" stroke="white" stroke-width="2.63314" stroke-linecap="round"/>
<path d="M182.758 454.405L359.733 391.094C374.321 385.875 390.378 393.471 395.597 408.059L406.936 439.756C412.155 454.344 428.211 461.94 442.8 456.721L447.642 454.989C462.23 449.77 469.826 433.713 464.607 419.125L358.932 123.726C354.062 110.11 361.151 95.1239 374.766 90.2531V90.2531" stroke="white" stroke-width="2.63314" stroke-linecap="round"/>
<circle cx="176.541" cy="237.141" r="35.5718" transform="rotate(-19.6839 176.541 237.141)" stroke="#0D263F" stroke-width="2.73075"/>
<path d="M200.506 413.791L414.461 337.252M179.489 355.042L393.445 278.502M223.804 278.719L374.267 224.893M240.72 209.713L354.301 169.081" stroke="#0D263F" stroke-width="2.73075" stroke-linecap="round"/>
</g>
</g>
<defs>
<clipPath id="clip0_4_510">
<rect width="512" height="512" fill="white"/>
</clipPath>
</defs>
</svg>
