<svg width="512" height="512" viewBox="0 0 512 512" fill="none" xmlns="http://www.w3.org/2000/svg">
<g clip-path="url(#clip0_4_604)">
<circle cx="256.474" cy="256.474" r="256.474" fill="#0D263F"/>
<mask id="mask0_4_604" style="mask-type:alpha" maskUnits="userSpaceOnUse" x="0" y="0" width="513" height="513">
<circle cx="256.474" cy="256.474" r="256.474" fill="#0D263F"/>
</mask>
<g mask="url(#mask0_4_604)">
<g style="mix-blend-mode:soft-light">
<path d="M647.131 315.401L638.579 315.032L631.403 313.81L625.295 311.949L619.962 309.602L610.362 304.25L605.475 301.612L600.142 299.266L594.053 297.385L586.858 296.182L578.306 295.794L569.773 296.396L562.617 297.792L556.566 299.809L551.292 302.291L541.828 307.876L537.018 310.63L531.744 313.112L525.693 315.148L518.556 316.545L510.004 317.127L501.452 316.758L494.277 315.536L488.168 313.655L482.835 311.309L473.235 305.956L468.368 303.338L463.015 300.992L456.926 299.111L449.751 297.889L441.179 297.52L432.646 298.102L425.49 299.498L419.439 301.535L414.165 304.017L404.701 309.602L399.891 312.356L394.617 314.838L388.566 316.855L381.429 318.251L372.877 318.833L364.325 318.465L357.15 317.243L351.041 315.381L345.708 313.035L336.108 307.682L331.221 305.045L325.888 302.698L319.78 300.817L312.604 299.615L304.052 299.246L295.5 299.828L288.363 301.224L282.313 303.241L277.038 305.724L267.574 311.309L262.765 314.062L257.49 316.545L251.439 318.581L244.283 319.977L235.75 320.559L226.713 320.132L219.228 318.775L212.905 316.7L207.378 314.14L202.278 311.309L197.255 308.439L191.942 305.743L185.949 303.455L178.949 301.806" stroke="#E5E6E0" stroke-width="7.62845" stroke-miterlimit="10" stroke-linejoin="round"/>
<path d="M647.131 460.964L638.579 460.596L631.403 459.374L625.295 457.512L619.962 455.166L610.362 449.813L605.475 447.176L600.142 444.829L594.053 442.967L586.858 441.746L578.306 441.377L569.773 441.959L562.617 443.355L556.566 445.372L551.292 447.854L541.828 453.459L537.018 456.193L531.744 458.676L525.693 460.712L518.556 462.108L510.004 462.69L501.452 462.322L494.277 461.1L488.168 459.219L482.835 456.872L473.235 451.52L468.368 448.902L463.015 446.555L456.926 444.674L449.751 443.452L441.179 443.084L432.646 443.666L425.49 445.062L419.439 447.098L414.165 449.58L404.701 455.166L399.891 457.919L394.617 460.402L388.566 462.419L381.429 463.815L372.877 464.397L364.325 464.028L357.15 462.826L351.041 460.945L345.708 458.598L336.108 453.246L331.221 450.608L325.888 448.262L319.78 446.4L312.604 445.178L304.052 444.81L295.5 445.392L288.363 446.788L282.313 448.824L277.038 451.287L267.574 456.892L262.765 459.645L257.49 462.108L251.439 464.144L244.283 465.541L235.75 466.123L226.713 465.696L219.228 464.338L212.905 462.263L207.378 459.704L202.278 456.872L197.255 454.002L191.942 451.306L185.949 449.018L178.949 447.37" stroke="#E5E6E0" stroke-width="7.62845" stroke-miterlimit="10" stroke-linejoin="round"/>
<path d="M647.131 351.802L638.579 351.433L631.403 350.212L625.295 348.331L619.962 345.984L610.362 340.632L605.475 338.014L600.142 335.667L594.053 333.786L586.858 332.564L578.306 332.196L569.773 332.778L562.617 334.174L556.566 336.21L551.292 338.692L541.828 344.278L537.018 347.031L531.744 349.514L525.693 351.53L518.556 352.927L510.004 353.508L501.452 353.14L494.277 351.918L488.168 350.057L482.835 347.71L473.235 342.358L468.368 339.72L463.015 337.374L456.926 335.493L449.751 334.29L441.179 333.922L432.646 334.504L425.49 335.9L419.439 337.917L414.165 340.399L404.701 345.984L399.891 348.738L394.617 351.22L388.566 353.256L381.429 354.653L372.877 355.234L364.325 354.866L357.15 353.644L351.041 351.763L345.708 349.417L336.108 344.064L331.221 341.446L325.888 339.1L319.78 337.219L312.604 335.997L304.052 335.628L295.5 336.21L288.363 337.606L282.313 339.643L277.038 342.125L267.574 347.71L262.765 350.464L257.49 352.946L251.439 354.963L244.283 356.359L235.75 356.941L226.713 356.534L219.228 355.176L212.905 353.101L207.378 350.541L202.278 347.71L197.255 344.821L191.942 342.144L185.949 339.856L178.949 338.188" stroke="#E5E6E0" stroke-width="7.62845" stroke-miterlimit="10" stroke-linejoin="round"/>
<path d="M647.131 388.183L638.579 387.815L631.403 386.593L625.295 384.731L619.962 382.385L610.362 377.032L605.475 374.395L600.142 372.048L594.053 370.167L586.858 368.965L578.306 368.596L569.773 369.178L562.617 370.574L556.566 372.591L551.292 375.073L541.828 380.659L537.018 383.412L531.744 385.895L525.693 387.931L518.556 389.327L510.004 389.909L501.452 389.541L494.277 388.319L488.168 386.438L482.835 384.091L473.235 378.739L468.368 376.121L463.015 373.774L456.926 371.893L449.751 370.671L441.179 370.303L432.646 370.885L425.49 372.281L419.439 374.317L414.165 376.799L404.701 382.385L399.891 385.138L394.617 387.621L388.566 389.638L381.429 391.034L372.877 391.616L364.325 391.247L357.15 390.045L351.041 388.164L345.708 385.817L336.108 380.465L331.221 377.827L325.888 375.481L319.78 373.619L312.604 372.397L304.052 372.029L295.5 372.611L288.363 374.007L282.313 376.024L277.038 378.506L267.574 384.111L262.765 386.845L257.49 389.327L251.439 391.363L244.283 392.76L235.75 393.342L226.713 392.915L219.228 391.557L212.905 389.482L207.378 386.923L202.278 384.091L197.255 381.221L191.942 378.525L185.949 376.237L178.949 374.589" stroke="#E5E6E0" stroke-width="7.62845" stroke-miterlimit="10" stroke-linejoin="round"/>
<path d="M647.131 424.585L638.579 424.217L631.403 422.995L625.295 421.114L619.962 418.768L610.362 413.415L605.475 410.797L600.142 408.451L594.053 406.57L586.858 405.348L578.306 404.979L569.773 405.561L562.617 406.957L556.566 408.994L551.292 411.476L541.828 417.061L537.018 419.815L531.744 422.297L525.693 424.314L518.556 425.71L510.004 426.292L501.452 425.924L494.277 424.721L488.168 422.84L482.835 420.494L473.235 415.141L468.368 412.504L463.015 410.157L456.926 408.295L449.751 407.074L441.179 406.705L432.646 407.287L425.49 408.683L419.439 410.7L414.165 413.182L404.701 418.787L399.891 421.521L394.617 424.004L388.566 426.04L381.429 427.436L372.877 428.018L364.325 427.65L357.15 426.428L351.041 424.547L345.708 422.2L336.108 416.848L331.221 414.23L325.888 411.883L319.78 410.002L312.604 408.78L304.052 408.412L295.5 408.994L288.363 410.39L282.313 412.426L277.038 414.908L267.574 420.494L262.765 423.247L257.49 425.73L251.439 427.747L244.283 429.143L235.75 429.725L226.713 429.317L219.228 427.96L212.905 425.885L207.378 423.325L202.278 420.494L197.255 417.623L191.942 414.928L185.949 412.639L178.949 410.972" stroke="#E5E6E0" stroke-width="7.62845" stroke-miterlimit="10" stroke-linejoin="round"/>
<path d="M647.131 496.065L638.578 495.697L631.403 494.475L625.294 492.613L619.961 490.267L610.362 484.914L605.475 482.277L600.142 479.931L594.052 478.049L586.858 476.847L578.305 476.479L569.772 477.06L562.617 478.457L556.566 480.474L551.291 482.956L541.827 488.541L537.018 491.295L531.743 493.777L525.692 495.813L518.556 497.21L510.004 497.791L501.451 497.423L494.276 496.201L488.167 494.32L482.834 491.973L473.235 486.621L468.367 484.003L463.015 481.656L456.925 479.775L449.75 478.554L441.178 478.185L432.646 478.767L425.49 480.163L419.439 482.199L414.164 484.682L404.7 490.267L399.891 493.021L394.616 495.503L388.566 497.52L381.429 498.916L372.877 499.498L364.324 499.129L357.149 497.927L351.04 496.046L345.707 493.699L336.108 488.347L331.221 485.71L325.888 483.363L319.779 481.501L312.604 480.28L304.051 479.911L295.499 480.493L288.363 481.889L282.312 483.906L277.037 486.388L267.573 491.993L262.764 494.727L257.489 497.21L251.439 499.246L244.283 500.642L235.75 501.224L226.713 500.797L219.227 499.44L212.905 497.365L207.378 494.805L202.278 491.973L197.255 489.103L191.941 486.408L185.949 484.119L178.948 482.471" stroke="#E5E6E0" stroke-width="7.62845" stroke-miterlimit="10" stroke-linejoin="round"/>
<path d="M647.131 283.19L638.579 282.822L631.403 281.6L625.295 279.738L619.962 277.392L610.362 272.039L605.475 269.402L600.142 267.055L594.053 265.174L586.858 263.972L578.306 263.603L569.773 264.185L562.617 265.581L556.566 267.598L551.292 270.08L541.828 275.666L537.018 278.419L531.744 280.902L525.693 282.938L518.556 284.334L510.004 284.916L501.452 284.548L494.277 283.326L488.168 281.445L482.835 279.098L473.235 273.746L468.368 271.128L463.015 268.781L456.926 266.9L449.751 265.678L441.179 265.31L432.646 265.892L425.49 267.288L419.439 269.324L414.165 271.806L404.701 277.392L399.891 280.145L394.617 282.628L388.566 284.644L381.429 286.041L372.877 286.623L364.325 286.254L357.15 285.052L351.041 283.171L345.708 280.824L336.108 275.472L331.221 272.834L325.888 270.488L319.78 268.626L312.604 267.404L304.052 267.036L295.5 267.618L288.363 269.014L282.313 271.031L277.038 273.513L267.574 279.118L262.765 281.852L257.49 284.334L251.439 286.37L244.283 287.767L235.75 288.349L226.713 287.922L219.228 286.564L212.905 284.489L207.378 281.929L202.278 279.098L197.255 276.228L191.942 273.532L185.949 271.244L178.949 269.596" stroke="#E5E6E0" stroke-width="7.62845" stroke-miterlimit="10" stroke-linejoin="round"/>
<path d="M372.589 318.937L364.037 318.568L356.861 317.347L350.753 315.485L345.419 313.138L335.82 307.786L330.933 305.149L325.6 302.802L319.511 300.921L312.316 299.719L303.764 299.331L295.231 299.932L288.075 301.328L282.024 303.345L276.749 305.827L267.286 311.413L262.476 314.166L257.201 316.649L251.151 318.685L244.014 320.081L235.462 320.663L226.91 320.294L219.734 319.073L213.626 317.192L208.293 314.845L198.693 309.493L193.825 306.875L188.473 304.528L182.384 302.647L175.208 301.425L166.637 301.057L158.104 301.639L150.948 303.035L144.897 305.071L139.622 307.553L130.159 313.138L125.349 315.892L120.074 318.375L114.024 320.391L106.887 321.788L98.335 322.369L89.7827 322.001L82.6074 320.779L76.4986 318.918L71.1656 316.571L61.5661 311.219L56.6791 308.581L51.346 306.235L45.2373 304.354L38.062 303.151L29.5097 302.783L20.9574 303.364L13.8209 304.761L7.77028 306.778L2.49544 309.26L-6.96828 314.845L-11.7777 317.599L-17.0526 320.081L-23.1032 322.117L-30.2591 323.514L-38.792 324.095L-47.8291 323.669L-55.3147 322.311L-61.6368 320.236L-67.1638 317.676L-72.2641 314.845L-77.2868 311.975L-82.6005 309.279L-88.5928 306.991L-95.5937 305.343" stroke="#E5E6E0" stroke-width="7.62845" stroke-miterlimit="10" stroke-linejoin="round"/>
<path d="M372.589 464.501L364.037 464.132L356.861 462.91L350.753 461.049L345.419 458.702L335.82 453.35L330.933 450.712L325.6 448.366L319.511 446.504L312.316 445.282L303.764 444.914L295.231 445.496L288.075 446.892L282.024 448.909L276.749 451.391L267.286 456.996L262.476 459.73L257.201 462.212L251.151 464.249L244.014 465.645L235.462 466.227L226.91 465.858L219.734 464.636L213.626 462.755L208.293 460.409L198.693 455.056L193.825 452.438L188.473 450.092L182.384 448.211L175.208 446.989L166.637 446.62L158.104 447.202L150.948 448.599L144.897 450.635L139.622 453.117L130.159 458.702L125.349 461.456L120.074 463.938L114.024 465.955L106.887 467.351L98.335 467.933L89.7827 467.565L82.6074 466.362L76.4986 464.481L71.1656 462.135L61.5661 456.782L56.6791 454.145L51.346 451.798L45.2373 449.937L38.062 448.715L29.5097 448.346L20.9574 448.928L13.8209 450.324L7.77028 452.361L2.49544 454.824L-6.96828 460.428L-11.7777 463.182L-17.0526 465.645L-23.1032 467.681L-30.2591 469.077L-38.792 469.659L-47.8291 469.233L-55.3147 467.875L-61.6368 465.8L-67.1638 463.24L-72.2641 460.409L-77.2868 457.539L-82.6005 454.843L-88.5928 452.555L-95.5937 450.906" stroke="#E5E6E0" stroke-width="7.62845" stroke-miterlimit="10" stroke-linejoin="round"/>
<path d="M372.589 355.339L364.037 354.971L356.861 353.749L350.753 351.868L345.419 349.521L335.82 344.169L330.933 341.551L325.6 339.204L319.511 337.323L312.316 336.102L303.764 335.733L295.231 336.315L288.075 337.711L282.024 339.747L276.749 342.23L267.286 347.815L262.476 350.569L257.201 353.051L251.151 355.068L244.014 356.464L235.462 357.046L226.91 356.677L219.734 355.456L213.626 353.594L208.293 351.247L198.693 345.895L193.825 343.258L188.473 340.911L182.384 339.03L175.208 337.828L166.637 337.459L158.104 338.041L150.948 339.437L144.897 341.454L139.622 343.936L130.159 349.521L125.349 352.275L120.074 354.757L114.024 356.794L106.887 358.19L98.335 358.772L89.7827 358.403L82.6074 357.182L76.4986 355.301L71.1656 352.954L61.5661 347.602L56.6791 344.984L51.346 342.637L45.2373 340.756L38.062 339.534L29.5097 339.166L20.9574 339.747L13.8209 341.144L7.77028 343.18L2.49544 345.662L-6.96828 351.247L-11.7777 354.001L-17.0526 356.483L-23.1032 358.5L-30.2591 359.897L-38.792 360.478L-47.8291 360.071L-55.3147 358.714L-61.6368 356.639L-67.1638 354.079L-72.2641 351.247L-77.2868 348.358L-82.6005 345.682L-88.5928 343.393L-95.5937 341.726" stroke="#E5E6E0" stroke-width="7.62845" stroke-miterlimit="10" stroke-linejoin="round"/>
<path d="M372.589 391.72L364.037 391.351L356.861 390.129L350.753 388.268L345.419 385.921L335.82 380.569L330.933 377.931L325.6 375.585L319.511 373.704L312.316 372.501L303.764 372.133L295.231 372.715L288.075 374.111L282.024 376.128L276.749 378.61L267.286 384.195L262.476 386.949L257.201 389.431L251.151 391.468L244.014 392.864L235.462 393.446L226.91 393.077L219.734 391.855L213.626 389.974L208.293 387.628L198.693 382.275L193.825 379.657L188.473 377.311L182.384 375.43L175.208 374.208L166.637 373.839L158.104 374.421L150.948 375.818L144.897 377.854L139.622 380.336L130.159 385.921L125.349 388.675L120.074 391.157L114.024 393.174L106.887 394.57L98.335 395.152L89.7827 394.784L82.6074 393.581L76.4986 391.7L71.1656 389.354L61.5661 384.001L56.6791 381.364L51.346 379.017L45.2373 377.156L38.062 375.934L29.5097 375.565L20.9574 376.147L13.8209 377.543L7.77028 379.56L2.49544 382.043L-6.96828 387.647L-11.7777 390.382L-17.0526 392.864L-23.1032 394.9L-30.2591 396.296L-38.792 396.878L-47.8291 396.452L-55.3147 395.094L-61.6368 393.019L-67.1638 390.459L-72.2641 387.628L-77.2868 384.758L-82.6005 382.062L-88.5928 379.774L-95.5937 378.125" stroke="#E5E6E0" stroke-width="7.62845" stroke-miterlimit="10" stroke-linejoin="round"/>
<path d="M372.589 428.122L364.037 427.753L356.861 426.531L350.753 424.65L345.419 422.304L335.82 416.951L330.933 414.333L325.6 411.987L319.511 410.106L312.316 408.884L303.764 408.515L295.231 409.097L288.075 410.494L282.024 412.53L276.749 415.012L267.286 420.597L262.476 423.351L257.201 425.833L251.151 427.85L244.014 429.246L235.462 429.828L226.91 429.46L219.734 428.257L213.626 426.376L208.293 424.03L198.693 418.677L193.825 416.04L188.473 413.693L182.384 411.832L175.208 410.61L166.637 410.241L158.104 410.823L150.948 412.219L144.897 414.236L139.622 416.719L130.159 422.323L125.349 425.058L120.074 427.54L114.024 429.576L106.887 430.972L98.335 431.554L89.7827 431.186L82.6074 429.964L76.4986 428.083L71.1656 425.736L61.5661 420.384L56.6791 417.766L51.346 415.419L45.2373 413.538L38.062 412.316L29.5097 411.948L20.9574 412.53L13.8209 413.926L7.77028 415.962L2.49544 418.445L-6.96828 424.03L-11.7777 426.784L-17.0526 429.266L-23.1032 431.283L-30.2591 432.679L-38.792 433.261L-47.8291 432.853L-55.3147 431.496L-61.6368 429.421L-67.1638 426.861L-72.2641 424.03L-77.2868 421.16L-82.6005 418.464L-88.5928 416.176L-95.5937 414.508" stroke="#E5E6E0" stroke-width="7.62845" stroke-miterlimit="10" stroke-linejoin="round"/>
<path d="M372.589 499.602L364.037 499.233L356.861 498.011L350.753 496.15L345.42 493.803L335.82 488.451L330.933 485.813L325.6 483.467L319.511 481.586L312.316 480.383L303.764 480.015L295.231 480.596L288.075 481.993L282.024 484.01L276.75 486.492L267.286 492.077L262.476 494.831L257.202 497.313L251.151 499.349L244.014 500.746L235.462 501.327L226.91 500.959L219.735 499.737L213.626 497.856L208.293 495.51L198.693 490.157L193.826 487.539L188.473 485.193L182.384 483.312L175.209 482.09L166.637 481.721L158.104 482.303L150.948 483.699L144.897 485.736L139.623 488.218L130.159 493.803L125.349 496.557L120.075 499.039L114.024 501.056L106.887 502.452L98.3352 503.034L89.783 502.666L82.6076 501.463L76.4988 499.582L71.1658 497.236L61.5663 491.883L56.6793 489.246L51.3463 486.899L45.2375 485.037L38.0622 483.816L29.5099 483.447L20.9577 484.029L13.8211 485.425L7.77052 487.442L2.49569 489.924L-6.96804 495.529L-11.7775 498.263L-17.0523 500.746L-23.1029 502.782L-30.2589 504.178L-38.7917 504.76L-47.8288 504.333L-55.3145 502.976L-61.6365 500.901L-67.1635 498.341L-72.2638 495.51L-77.2866 492.639L-82.6002 489.944L-88.5926 487.656L-95.5934 486.007" stroke="#E5E6E0" stroke-width="7.62845" stroke-miterlimit="10" stroke-linejoin="round"/>
<path d="M372.589 286.726L364.037 286.357L356.861 285.135L350.753 283.274L345.419 280.927L335.82 275.575L330.933 272.937L325.6 270.591L319.511 268.71L312.316 267.507L303.764 267.139L295.231 267.721L288.075 269.117L282.024 271.134L276.749 273.616L267.286 279.201L262.476 281.955L257.201 284.437L251.151 286.473L244.014 287.87L235.462 288.452L226.91 288.083L219.734 286.861L213.626 284.98L208.293 282.634L198.693 277.281L193.825 274.663L188.473 272.317L182.384 270.436L175.208 269.214L166.637 268.845L158.104 269.427L150.948 270.823L144.897 272.86L139.622 275.342L130.159 280.927L125.349 283.681L120.074 286.163L114.024 288.18L106.887 289.576L98.335 290.158L89.7827 289.79L82.6074 288.587L76.4986 286.706L71.1656 284.36L61.5661 279.007L56.6791 276.37L51.346 274.023L45.2373 272.161L38.062 270.94L29.5097 270.571L20.9574 271.153L13.8209 272.549L7.77028 274.566L2.49544 277.048L-6.96828 282.653L-11.7777 285.387L-17.0526 287.87L-23.1032 289.906L-30.2591 291.302L-38.792 291.884L-47.8291 291.457L-55.3147 290.1L-61.6368 288.025L-67.1638 285.465L-72.2641 282.634L-77.2868 279.763L-82.6005 277.068L-88.5928 274.78L-95.5937 273.131" stroke="#E5E6E0" stroke-width="7.62845" stroke-miterlimit="10" stroke-linejoin="round"/>
<path d="M97.2336 322.64L88.6814 322.271L81.506 321.05L75.3973 319.188L70.0642 316.841L60.4648 311.489L55.5778 308.851L50.2447 306.505L44.1554 304.624L36.9606 303.421L28.4084 303.034L19.8755 303.635L12.7195 305.031L6.66896 307.048L1.39411 309.53L-8.06961 315.115L-12.879 317.869L-18.1539 320.351L-24.2045 322.388L-31.3411 323.784L-39.8933 324.366L-48.4456 323.997L-55.6209 322.775L-61.7297 320.894L-67.0627 318.548L-76.6622 313.195L-81.5298 310.577L-86.8822 308.231L-92.9716 306.35L-100.147 305.128L-108.719 304.759L-117.251 305.341L-124.407 306.738L-130.458 308.774L-135.733 311.256L-145.197 316.841L-150.006 319.595L-155.281 322.077L-161.331 324.094L-168.468 325.49L-177.02 326.072L-185.573 325.704L-192.748 324.482L-198.857 322.62L-204.19 320.274L-213.789 314.921L-218.676 312.284L-224.009 309.937L-230.118 308.056L-237.293 306.854L-245.846 306.485L-254.398 307.067L-261.534 308.464L-267.585 310.48L-272.86 312.963L-282.324 318.548L-287.133 321.302L-292.408 323.784L-298.458 325.82L-305.614 327.216L-314.147 327.798L-323.184 327.372L-330.67 326.014L-336.992 323.939L-342.519 321.379L-347.619 318.548L-352.642 315.678L-357.956 312.982L-363.948 310.694L-370.949 309.045" stroke="#E5E6E0" stroke-width="7.62845" stroke-miterlimit="10" stroke-linejoin="round"/>
<path d="M97.2336 468.204L88.6814 467.835L81.506 466.614L75.3973 464.752L70.0642 462.405L60.4648 457.053L55.5778 454.415L50.2447 452.069L44.1554 450.207L36.9606 448.985L28.4084 448.617L19.8755 449.199L12.7195 450.595L6.66896 452.612L1.39411 455.094L-8.06961 460.699L-12.879 463.433L-18.1539 465.915L-24.2045 467.952L-31.3411 469.348L-39.8933 469.93L-48.4456 469.561L-55.6209 468.34L-61.7297 466.458L-67.0627 464.112L-76.6622 458.759L-81.5298 456.141L-86.8822 453.795L-92.9716 451.914L-100.147 450.692L-108.719 450.324L-117.251 450.905L-124.407 452.302L-130.458 454.338L-135.733 456.82L-145.197 462.405L-150.006 465.159L-155.281 467.641L-161.331 469.658L-168.468 471.055L-177.02 471.636L-185.573 471.268L-192.748 470.066L-198.857 468.184L-204.19 465.838L-213.789 460.485L-218.676 457.848L-224.009 455.501L-230.118 453.64L-237.293 452.418L-245.846 452.05L-254.398 452.631L-261.534 454.028L-267.585 456.064L-272.86 458.527L-282.324 464.131L-287.133 466.885L-292.408 469.348L-298.458 471.384L-305.614 472.781L-314.147 473.362L-323.184 472.936L-330.67 471.578L-336.992 469.503L-342.519 466.943L-347.619 464.112L-352.642 461.242L-357.956 458.546L-363.948 456.258L-370.949 454.609" stroke="#E5E6E0" stroke-width="7.62845" stroke-miterlimit="10" stroke-linejoin="round"/>
<path d="M97.2336 359.042L88.6814 358.674L81.506 357.452L75.3973 355.571L70.0642 353.224L60.4648 347.872L55.5778 345.254L50.2447 342.907L44.1554 341.026L36.9606 339.804L28.4084 339.436L19.8755 340.018L12.7195 341.414L6.66896 343.45L1.39411 345.933L-8.06961 351.518L-12.879 354.272L-18.1539 356.754L-24.2045 358.771L-31.3411 360.167L-39.8933 360.749L-48.4456 360.38L-55.6209 359.159L-61.7297 357.297L-67.0627 354.95L-76.6622 349.598L-81.5298 346.96L-86.8822 344.614L-92.9716 342.733L-100.147 341.53L-108.719 341.162L-117.251 341.744L-124.407 343.14L-130.458 345.157L-135.733 347.639L-145.197 353.224L-150.006 355.978L-155.281 358.46L-161.331 360.497L-168.468 361.893L-177.02 362.475L-185.573 362.106L-192.748 360.884L-198.857 359.003L-204.19 356.657L-213.789 351.304L-218.676 348.686L-224.009 346.34L-230.118 344.459L-237.293 343.237L-245.846 342.869L-254.398 343.45L-261.534 344.847L-267.585 346.883L-272.86 349.365L-282.324 354.95L-287.133 357.704L-292.408 360.186L-298.458 362.203L-305.614 363.599L-314.147 364.181L-323.184 363.774L-330.67 362.417L-336.992 360.341L-342.519 357.782L-347.619 354.95L-352.642 352.061L-357.956 349.385L-363.948 347.096L-370.949 345.428" stroke="#E5E6E0" stroke-width="7.62845" stroke-miterlimit="10" stroke-linejoin="round"/>
<path d="M97.2336 395.423L88.6814 395.054L81.506 393.832L75.3973 391.971L70.0642 389.624L60.4648 384.272L55.5778 381.634L50.2447 379.288L44.1554 377.407L36.9606 376.204L28.4084 375.836L19.8755 376.418L12.7195 377.814L6.66896 379.831L1.39411 382.313L-8.06961 387.898L-12.879 390.652L-18.1539 393.134L-24.2045 395.17L-31.3411 396.567L-39.8933 397.149L-48.4456 396.78L-55.6209 395.558L-61.7297 393.677L-67.0627 391.331L-76.6622 385.978L-81.5298 383.36L-86.8822 381.014L-92.9716 379.133L-100.147 377.911L-108.719 377.542L-117.251 378.124L-124.407 379.52L-130.458 381.557L-135.733 384.039L-145.197 389.624L-150.006 392.378L-155.281 394.86L-161.331 396.877L-168.468 398.273L-177.02 398.855L-185.573 398.487L-192.748 397.284L-198.857 395.403L-204.19 393.057L-213.789 387.704L-218.676 385.067L-224.009 382.72L-230.118 380.859L-237.293 379.637L-245.846 379.268L-254.398 379.85L-261.534 381.246L-267.585 383.263L-272.86 385.746L-282.324 391.35L-287.133 394.084L-292.408 396.567L-298.458 398.603L-305.614 399.999L-314.147 400.581L-323.184 400.154L-330.67 398.797L-336.992 396.722L-342.519 394.162L-347.619 391.331L-352.642 388.461L-357.956 385.765L-363.948 383.477L-370.949 381.828" stroke="#E5E6E0" stroke-width="7.62845" stroke-miterlimit="10" stroke-linejoin="round"/>
<path d="M97.2336 431.825L88.6814 431.457L81.506 430.235L75.3973 428.354L70.0642 426.008L60.4648 420.655L55.5778 418.037L50.2447 415.691L44.1554 413.81L36.9606 412.588L28.4084 412.219L19.8755 412.801L12.7195 414.197L6.66896 416.234L1.39411 418.716L-8.06961 424.301L-12.879 427.055L-18.1539 429.537L-24.2045 431.554L-31.3411 432.95L-39.8933 433.532L-48.4456 433.164L-55.6209 431.961L-61.7297 430.08L-67.0627 427.734L-76.6622 422.381L-81.5298 419.744L-86.8822 417.397L-92.9716 415.535L-100.147 414.314L-108.719 413.945L-117.251 414.527L-124.407 415.923L-130.458 417.94L-135.733 420.422L-145.197 426.027L-150.006 428.761L-155.281 431.244L-161.331 433.28L-168.468 434.676L-177.02 435.258L-185.573 434.89L-192.748 433.668L-198.857 431.787L-204.19 429.44L-213.789 424.088L-218.676 421.47L-224.009 419.123L-230.118 417.242L-237.293 416.02L-245.846 415.652L-254.398 416.234L-261.534 417.63L-267.585 419.666L-272.86 422.148L-282.324 427.734L-287.133 430.487L-292.408 432.97L-298.458 434.987L-305.614 436.383L-314.147 436.965L-323.184 436.557L-330.67 435.2L-336.992 433.125L-342.519 430.565L-347.619 427.734L-352.642 424.863L-357.956 422.168L-363.948 419.879L-370.949 418.212" stroke="#E5E6E0" stroke-width="7.62845" stroke-miterlimit="10" stroke-linejoin="round"/>
<path d="M97.2336 503.305L88.6814 502.937L81.506 501.715L75.3973 499.853L70.0642 497.507L60.4648 492.154L55.5778 489.517L50.2447 487.17L44.1554 485.289L36.9606 484.087L28.4084 483.718L19.8755 484.3L12.7195 485.696L6.66896 487.713L1.39411 490.196L-8.06961 495.781L-12.879 498.534L-18.1539 501.017L-24.2045 503.053L-31.3411 504.449L-39.8933 505.031L-48.4456 504.663L-55.6209 503.441L-61.7297 501.56L-67.0627 499.213L-76.6622 493.861L-81.5298 491.243L-86.8822 488.896L-92.9716 487.015L-100.147 485.793L-108.719 485.425L-117.251 486.007L-124.407 487.403L-130.458 489.439L-135.733 491.922L-145.197 497.507L-150.006 500.26L-155.281 502.743L-161.331 504.76L-168.468 506.156L-177.02 506.738L-185.573 506.369L-192.748 505.167L-198.857 503.286L-204.19 500.939L-213.789 495.587L-218.676 492.949L-224.009 490.603L-230.118 488.741L-237.293 487.519L-245.846 487.151L-254.398 487.733L-261.534 489.129L-267.585 491.146L-272.86 493.628L-282.324 499.233L-287.133 501.967L-292.408 504.449L-298.458 506.486L-305.614 507.882L-314.147 508.464L-323.184 508.037L-330.67 506.679L-336.992 504.604L-342.519 502.045L-347.619 499.213L-352.642 496.343L-357.956 493.647L-363.948 491.359L-370.949 489.711" stroke="#E5E6E0" stroke-width="7.62845" stroke-miterlimit="10" stroke-linejoin="round"/>
<path d="M97.2336 290.429L88.6814 290.061L81.506 288.839L75.3973 286.977L70.0642 284.631L60.4648 279.278L55.5778 276.641L50.2447 274.294L44.1554 272.413L36.9606 271.211L28.4084 270.842L19.8755 271.424L12.7195 272.82L6.66896 274.837L1.39411 277.32L-8.06961 282.905L-12.879 285.659L-18.1539 288.141L-24.2045 290.177L-31.3411 291.573L-39.8933 292.155L-48.4456 291.787L-55.6209 290.565L-61.7297 288.684L-67.0627 286.337L-76.6622 280.985L-81.5298 278.367L-86.8822 276.02L-92.9716 274.139L-100.147 272.917L-108.719 272.549L-117.251 273.131L-124.407 274.527L-130.458 276.563L-135.733 279.046L-145.197 284.631L-150.006 287.384L-155.281 289.867L-161.331 291.884L-168.468 293.28L-177.02 293.862L-185.573 293.493L-192.748 292.291L-198.857 290.41L-204.19 288.063L-213.789 282.711L-218.676 280.073L-224.009 277.727L-230.118 275.865L-237.293 274.643L-245.846 274.275L-254.398 274.857L-261.534 276.253L-267.585 278.27L-272.86 280.752L-282.324 286.357L-287.133 289.091L-292.408 291.573L-298.458 293.61L-305.614 295.006L-314.147 295.588L-323.184 295.161L-330.67 293.804L-336.992 291.728L-342.519 289.169L-347.619 286.337L-352.642 283.467L-357.956 280.772L-363.948 278.483L-370.949 276.835" stroke="#E5E6E0" stroke-width="7.62845" stroke-miterlimit="10" stroke-linejoin="round"/>
</g>
<path d="M212.758 398.188L188.322 445.782" stroke="#E5E6E0" stroke-width="2.62151" stroke-linecap="round"/>
<path d="M429.11 263.74L482.605 262.904" stroke="#E5E6E0" stroke-width="2.62151" stroke-linecap="round"/>
<path d="M157.591 346.306L112.632 375.305" stroke="#E5E6E0" stroke-width="2.62151" stroke-linecap="round"/>
<path d="M407.021 191.303L452.931 163.832" stroke="#E5E6E0" stroke-width="2.62151" stroke-linecap="round"/>
<path d="M134.305 273.55L80.8693 276.184" stroke="#E5E6E0" stroke-width="2.62151" stroke-linecap="round"/>
<path d="M352.097 138.207L378.121 91.4618" stroke="#E5E6E0" stroke-width="2.62151" stroke-linecap="round"/>
<path d="M152 197.772L104.406 173.336" stroke="#E5E6E0" stroke-width="2.62151" stroke-linecap="round"/>
<path d="M276.319 120.517L275.484 67.0227" stroke="#E5E6E0" stroke-width="2.62151" stroke-linecap="round"/>
<path d="M205.749 145.561L176.75 100.601" stroke="#E5E6E0" stroke-width="2.62151" stroke-linecap="round"/>
<path d="M409.761 368.359L316.244 426.473C315.424 426.983 315.173 428.06 315.682 428.88L337.36 463.764C340.671 469.092 347.675 470.728 353.004 467.416L430.935 418.987C435.854 415.93 437.364 409.465 434.307 404.546L412.168 368.92C411.659 368.101 410.581 367.849 409.761 368.359Z" fill="#D0D2CC"/>
<path d="M423.398 449.906L385.637 473.372C374.847 480.078 360.73 477.501 353.003 467.417L430.563 419.218C437.059 429.671 433.851 443.41 423.398 449.906Z" fill="#E50040"/>
<path fill-rule="evenodd" clip-rule="evenodd" d="M397.216 275.329C399.711 250.272 394.266 224.225 379.947 201.183C345.431 145.641 272.425 128.596 216.883 163.112C161.341 197.627 144.295 270.634 178.811 326.176C193.13 349.218 214.073 365.634 237.645 374.492L237.644 374.493C237.654 374.496 237.664 374.5 237.674 374.503C239.586 375.221 241.515 375.889 243.46 376.507C264.377 384.003 302.074 400.278 316.85 426.096L409.633 368.437C401.078 355.255 391.922 321.624 396.16 283.235C396.599 280.618 396.951 277.985 397.214 275.342C397.215 275.338 397.216 275.333 397.217 275.329L397.216 275.329Z" fill="#E50040"/>
<path d="M329.478 448.599L423.738 390.023" stroke="#E50040" stroke-width="4.338" stroke-linecap="square"/>
<path d="M415.243 347.381L321.726 405.496C320.906 406.006 320.654 407.083 321.164 407.903L343.339 443.586C346.65 448.915 353.654 450.55 358.983 447.239L436.914 398.81C441.833 395.753 443.343 389.288 440.286 384.369L417.65 347.943C417.14 347.124 416.063 346.872 415.243 347.381Z" stroke="white" stroke-width="2.169" stroke-linecap="round"/>
<path d="M429.378 429.728L391.616 453.194C380.826 459.9 366.709 457.323 358.983 447.239L436.543 399.041C443.038 409.493 439.83 423.232 429.378 429.728Z" stroke="white" stroke-width="2.169" stroke-linecap="round"/>
<mask id="path-39-inside-1_4_604" fill="white">
<path fill-rule="evenodd" clip-rule="evenodd" d="M403.194 255.152C405.69 230.095 400.245 204.047 385.926 181.006C351.41 125.464 278.404 108.418 222.862 142.934C167.319 177.45 150.274 250.457 184.79 305.999C199.109 329.04 220.052 345.457 243.624 354.315L243.622 354.316C243.636 354.32 243.649 354.325 243.662 354.329C245.568 355.045 247.491 355.711 249.429 356.327C270.344 363.821 308.051 380.097 322.829 405.919L415.612 348.261C407.056 335.078 397.901 301.446 402.139 263.056C402.578 260.44 402.93 257.809 403.193 255.166C403.194 255.161 403.195 255.157 403.195 255.152L403.194 255.152Z"/>
</mask>
<path d="M403.194 255.152L400.57 254.891L400.039 260.219L404.587 257.393L403.194 255.152ZM243.624 354.315L245.016 356.555L249.564 353.729L244.552 351.846L243.624 354.315ZM243.622 354.316L242.23 352.076L237.466 355.036L242.785 356.817L243.622 354.316ZM243.662 354.329L244.589 351.86L244.545 351.843L244.499 351.828L243.662 354.329ZM249.429 356.327L250.319 353.844L250.274 353.828L250.228 353.813L249.429 356.327ZM322.829 405.919L320.54 407.229L321.898 409.603L324.221 408.159L322.829 405.919ZM415.612 348.261L417.004 350.501L419.289 349.081L417.824 346.825L415.612 348.261ZM402.139 263.056L399.537 262.62L399.525 262.693L399.517 262.767L402.139 263.056ZM403.193 255.166L400.588 254.754L400.576 254.829L400.568 254.904L403.193 255.166ZM403.195 255.152L405.801 255.564L406.701 249.868L401.803 252.912L403.195 255.152ZM383.686 182.398C397.687 204.929 403.01 230.391 400.57 254.891L405.819 255.414C408.37 229.798 402.803 203.166 388.166 179.614L383.686 182.398ZM224.254 145.175C278.559 111.428 349.939 128.093 383.686 182.398L388.166 179.614C352.882 122.834 278.249 105.409 221.469 140.694L224.254 145.175ZM187.03 304.607C153.283 250.302 169.949 178.921 224.254 145.175L221.469 140.694C164.69 175.979 147.265 250.611 182.55 307.391L187.03 304.607ZM244.552 351.846C221.505 343.185 201.032 327.137 187.03 304.607L182.55 307.391C197.186 330.943 218.599 347.728 242.696 356.784L244.552 351.846ZM245.015 356.556L245.016 356.555L242.232 352.075L242.23 352.076L245.015 356.556ZM244.499 351.828C244.486 351.824 244.473 351.819 244.46 351.815L242.785 356.817C242.798 356.822 242.812 356.826 242.825 356.831L244.499 351.828ZM250.228 353.813C248.333 353.211 246.453 352.559 244.589 351.86L242.735 356.799C244.683 357.53 246.649 358.211 248.63 358.841L250.228 353.813ZM325.118 404.609C317.397 391.118 303.82 380.308 289.775 371.981C275.685 363.628 260.857 357.62 250.319 353.844L248.539 358.81C258.916 362.528 273.399 368.405 287.085 376.519C300.817 384.66 313.483 394.899 320.54 407.229L325.118 404.609ZM414.219 346.02L321.437 403.679L324.221 408.159L417.004 350.501L414.219 346.02ZM399.517 262.767C397.367 282.244 398.613 300.514 401.487 315.605C404.35 330.64 408.865 342.711 413.399 349.696L417.824 346.825C413.803 340.628 409.463 329.292 406.669 314.618C403.885 300 402.673 282.259 404.76 263.346L399.517 262.767ZM400.568 254.904C400.311 257.488 399.967 260.062 399.537 262.62L404.74 263.493C405.189 260.819 405.548 258.129 405.818 255.428L400.568 254.904ZM400.59 254.74C400.589 254.744 400.589 254.748 400.588 254.75C400.588 254.752 400.588 254.753 400.588 254.754L405.798 255.578C405.799 255.574 405.8 255.57 405.8 255.568C405.8 255.565 405.8 255.564 405.801 255.564L400.59 254.74ZM404.587 257.393L404.587 257.392L401.803 252.912L401.802 252.912L404.587 257.393Z" fill="white" mask="url(#path-39-inside-1_4_604)"/>
</g>
</g>
<defs>
<clipPath id="clip0_4_604">
<rect width="512" height="512" fill="white"/>
</clipPath>
</defs>
</svg>
