<svg width="85" height="85" viewBox="0 0 85 85" fill="none" xmlns="http://www.w3.org/2000/svg">
<path d="M0.997314 84.4187C1.50179 82.918 1.9667 81.5168 2.44151 80.1155C4.35061 74.4111 6.25972 68.6967 8.14904 62.9823C8.24796 62.6742 8.21828 62.2171 8.06002 61.9488C5.13206 56.8704 3.28231 51.4442 2.73826 45.6007C1.48201 32.3036 5.56729 20.8947 15.0337 11.553C21.671 5.00379 29.7427 1.30684 39.0014 0.253404C57.7759 -1.87334 75.9075 9.57528 82.0206 27.5035C85.5816 37.9385 85.265 48.3138 80.5863 58.3015C74.6611 70.9626 64.71 78.7937 51.0396 81.5565C41.6326 83.4547 32.6212 81.9342 24.1044 77.472C23.7978 77.313 23.3329 77.2732 23.0064 77.3825C15.9239 79.6385 8.85136 81.9242 1.77876 84.2C1.56114 84.2696 1.33363 84.3292 0.997314 84.4187ZM11.4826 74.0434C11.898 73.9142 12.1552 73.8446 12.4025 73.7651C16.2702 72.5328 20.1378 71.3005 23.9956 70.0483C24.4308 69.9091 24.7672 69.9389 25.1628 70.1874C32.2058 74.58 39.8521 76.349 48.0721 75.1664C58.7156 73.6359 66.9159 68.16 72.5739 59.027C77.1637 51.6132 78.5881 43.4839 77.0054 34.8974C72.6828 11.4436 46.3707 -0.611205 26.0432 11.6523C15.3601 18.0922 9.7614 27.8315 9.26681 40.3335C8.97006 47.6181 11.0078 54.3462 15.1326 60.3885C15.5876 61.0444 15.647 61.591 15.3898 62.3264C14.1335 65.9438 12.9366 69.5812 11.72 73.2086C11.6507 73.4272 11.5914 73.6558 11.4826 74.0434Z" fill="white"/>
<path d="M53.879 61.7477C53.1964 61.5887 52.0589 61.4098 50.9807 61.0421C47.1328 59.7402 43.3245 58.3489 39.9019 56.0731C35.9749 53.4594 32.7304 50.1302 29.9113 46.3736C27.7944 43.5611 25.7963 40.6691 24.3818 37.4194C23.0068 34.269 22.5023 31.0292 23.4915 27.6503C24.1741 25.3447 25.5292 23.4962 27.3196 21.9459C28.1406 21.2403 29.1199 20.962 30.2179 21.1011C30.7817 21.1707 31.3653 21.2303 31.9292 21.2204C32.8293 21.1906 33.3932 21.6477 33.7196 22.4328C34.1251 23.4167 34.4813 24.4105 34.8571 25.4043C35.5595 27.2925 36.242 29.1808 36.9641 31.069C37.2213 31.7348 37.2608 32.3908 36.8256 32.9672C35.9749 34.0902 35.1242 35.2132 34.1845 36.2666C33.2942 37.2703 33.1854 37.5983 33.8284 38.7809C36.8454 44.3065 41.0988 48.5202 46.8163 51.2134C48.9727 52.2271 48.9924 52.2569 50.5553 50.478C51.4753 49.4345 52.3754 48.3711 53.2657 47.2978C53.8493 46.5922 54.3241 46.4133 55.1847 46.7711C56.1145 47.1587 57.0245 47.6258 57.9247 48.0929C59.8338 49.1065 61.733 50.15 63.6421 51.1538C64.3741 51.5414 64.7005 52.0581 64.6412 52.9029C64.4236 55.8743 63.4146 58.3191 60.6746 59.8893C58.6863 61.0322 56.5893 61.6086 53.879 61.7477Z" fill="white"/>
</svg>
