<svg width="512" height="512" viewBox="0 0 512 512" fill="none" xmlns="http://www.w3.org/2000/svg">
<g clip-path="url(#clip0_4_552)">
<circle cx="256.474" cy="256.474" r="256.474" fill="#0D263F"/>
<mask id="mask0_4_552" style="mask-type:alpha" maskUnits="userSpaceOnUse" x="0" y="0" width="513" height="513">
<circle cx="256.474" cy="256.474" r="256.474" fill="#0D263F"/>
</mask>
<g mask="url(#mask0_4_552)">
<g style="mix-blend-mode:soft-light">
<path d="M647.133 315.401L638.581 315.033L631.405 313.811L625.297 311.949L619.964 309.603L610.364 304.25L605.477 301.613L600.144 299.266L594.055 297.385L586.86 296.183L578.308 295.795L569.775 296.396L562.619 297.792L556.568 299.809L551.294 302.292L541.83 307.877L537.02 310.631L531.746 313.113L525.695 315.149L518.558 316.545L510.006 317.127L501.454 316.759L494.278 315.537L488.17 313.656L482.837 311.309L473.237 305.957L468.37 303.339L463.017 300.992L456.928 299.111L449.752 297.889L441.181 297.521L432.648 298.103L425.492 299.499L419.441 301.535L414.167 304.018L404.703 309.603L399.893 312.357L394.619 314.839L388.568 316.856L381.431 318.252L372.879 318.834L364.327 318.465L357.152 317.244L351.043 315.382L345.71 313.035L336.11 307.683L331.223 305.045L325.89 302.699L319.781 300.818L312.606 299.615L304.054 299.247L295.502 299.829L288.365 301.225L282.314 303.242L277.04 305.724L267.576 311.309L262.766 314.063L257.492 316.545L251.441 318.582L244.285 319.978L235.752 320.56L226.715 320.133L219.229 318.776L212.907 316.701L207.38 314.141L202.28 311.309L197.257 308.439L191.944 305.744L185.951 303.455L178.951 301.807" stroke="#E5E6E0" stroke-width="7.62845" stroke-miterlimit="10" stroke-linejoin="round"/>
<path d="M647.133 460.965L638.581 460.596L631.405 459.375L625.297 457.513L619.964 455.166L610.364 449.814L605.477 447.176L600.144 444.83L594.055 442.968L586.86 441.746L578.308 441.378L569.775 441.96L562.619 443.356L556.568 445.373L551.294 447.855L541.83 453.46L537.02 456.194L531.746 458.676L525.695 460.713L518.558 462.109L510.006 462.691L501.454 462.322L494.278 461.101L488.17 459.219L482.837 456.873L473.237 451.52L468.37 448.902L463.017 446.556L456.928 444.675L449.752 443.453L441.181 443.085L432.648 443.666L425.492 445.063L419.441 447.099L414.167 449.581L404.703 455.166L399.893 457.92L394.619 460.402L388.568 462.419L381.431 463.816L372.879 464.397L364.327 464.029L357.152 462.827L351.043 460.945L345.71 458.599L336.11 453.246L331.223 450.609L325.89 448.262L319.781 446.401L312.606 445.179L304.054 444.811L295.502 445.392L288.365 446.789L282.314 448.825L277.04 451.288L267.576 456.892L262.766 459.646L257.492 462.109L251.441 464.145L244.285 465.542L235.752 466.123L226.715 465.697L219.229 464.339L212.907 462.264L207.38 459.704L202.28 456.873L197.257 454.003L191.944 451.307L185.951 449.019L178.951 447.37" stroke="#E5E6E0" stroke-width="7.62845" stroke-miterlimit="10" stroke-linejoin="round"/>
<path d="M647.133 351.803L638.581 351.434L631.405 350.212L625.297 348.331L619.964 345.985L610.364 340.632L605.477 338.014L600.144 335.668L594.055 333.787L586.86 332.565L578.308 332.196L569.775 332.778L562.619 334.175L556.568 336.211L551.294 338.693L541.83 344.278L537.02 347.032L531.746 349.514L525.695 351.531L518.558 352.927L510.006 353.509L501.454 353.141L494.278 351.919L488.17 350.057L482.837 347.711L473.237 342.358L468.37 339.721L463.017 337.374L456.928 335.493L449.752 334.291L441.181 333.922L432.648 334.504L425.492 335.901L419.441 337.917L414.167 340.4L404.703 345.985L399.893 348.739L394.619 351.221L388.568 353.257L381.431 354.653L372.879 355.235L364.327 354.867L357.152 353.645L351.043 351.764L345.71 349.417L336.11 344.065L331.223 341.447L325.89 339.1L319.781 337.219L312.606 335.997L304.054 335.629L295.502 336.211L288.365 337.607L282.314 339.643L277.04 342.126L267.576 347.711L262.766 350.465L257.492 352.947L251.441 354.964L244.285 356.36L235.752 356.942L226.715 356.535L219.229 355.177L212.907 353.102L207.38 350.542L202.28 347.711L197.257 344.821L191.944 342.145L185.951 339.857L178.951 338.189" stroke="#E5E6E0" stroke-width="7.62845" stroke-miterlimit="10" stroke-linejoin="round"/>
<path d="M647.133 388.184L638.581 387.815L631.405 386.593L625.297 384.732L619.964 382.385L610.364 377.033L605.477 374.395L600.144 372.049L594.055 370.168L586.86 368.965L578.308 368.597L569.775 369.179L562.619 370.575L556.568 372.592L551.294 375.074L541.83 380.659L537.02 383.413L531.746 385.895L525.695 387.931L518.558 389.328L510.006 389.91L501.454 389.541L494.278 388.319L488.17 386.438L482.837 384.092L473.237 378.739L468.37 376.121L463.017 373.775L456.928 371.894L449.752 370.672L441.181 370.303L432.648 370.885L425.492 372.281L419.441 374.318L414.167 376.8L404.703 382.385L399.893 385.139L394.619 387.621L388.568 389.638L381.431 391.034L372.879 391.616L364.327 391.248L357.152 390.045L351.043 388.164L345.71 385.818L336.11 380.465L331.223 377.828L325.89 375.481L319.781 373.619L312.606 372.398L304.054 372.029L295.502 372.611L288.365 374.007L282.314 376.024L277.04 378.507L267.576 384.111L262.766 386.845L257.492 389.328L251.441 391.364L244.285 392.76L235.752 393.342L226.715 392.915L219.229 391.558L212.907 389.483L207.38 386.923L202.28 384.092L197.257 381.221L191.944 378.526L185.951 376.238L178.951 374.589" stroke="#E5E6E0" stroke-width="7.62845" stroke-miterlimit="10" stroke-linejoin="round"/>
<path d="M647.133 424.586L638.581 424.218L631.405 422.996L625.297 421.115L619.964 418.768L610.364 413.416L605.477 410.798L600.144 408.451L594.055 406.57L586.86 405.348L578.308 404.98L569.775 405.562L562.619 406.958L556.568 408.994L551.294 411.476L541.83 417.062L537.02 419.815L531.746 422.298L525.695 424.314L518.558 425.711L510.006 426.293L501.454 425.924L494.278 424.722L488.17 422.841L482.837 420.494L473.237 415.142L468.37 412.504L463.017 410.158L456.928 408.296L449.752 407.074L441.181 406.706L432.648 407.288L425.492 408.684L419.441 410.701L414.167 413.183L404.703 418.788L399.893 421.522L394.619 424.004L388.568 426.04L381.431 427.437L372.879 428.019L364.327 427.65L357.152 426.428L351.043 424.547L345.71 422.201L336.11 416.848L331.223 414.23L325.89 411.884L319.781 410.003L312.606 408.781L304.054 408.412L295.502 408.994L288.365 410.39L282.314 412.427L277.04 414.909L267.576 420.494L262.766 423.248L257.492 425.73L251.441 427.747L244.285 429.143L235.752 429.725L226.715 429.318L219.229 427.96L212.907 425.885L207.38 423.325L202.28 420.494L197.257 417.624L191.944 414.928L185.951 412.64L178.951 410.972" stroke="#E5E6E0" stroke-width="7.62845" stroke-miterlimit="10" stroke-linejoin="round"/>
<path d="M647.132 496.066L638.579 495.698L631.404 494.476L625.295 492.614L619.962 490.268L610.363 484.915L605.476 482.278L600.143 479.931L594.053 478.05L586.859 476.848L578.306 476.479L569.773 477.061L562.617 478.457L556.567 480.474L551.292 482.957L541.828 488.542L537.019 491.295L531.744 493.778L525.693 495.814L518.557 497.21L510.005 497.792L501.452 497.424L494.277 496.202L488.168 494.321L482.835 491.974L473.236 486.622L468.368 484.004L463.016 481.657L456.926 479.776L449.751 478.554L441.179 478.186L432.646 478.768L425.491 480.164L419.44 482.2L414.165 484.682L404.701 490.268L399.892 493.021L394.617 495.504L388.567 497.521L381.43 498.917L372.878 499.499L364.325 499.13L357.15 497.928L351.041 496.047L345.708 493.7L336.109 488.348L331.222 485.71L325.889 483.364L319.78 481.502L312.605 480.28L304.052 479.912L295.5 480.494L288.364 481.89L282.313 483.907L277.038 486.389L267.574 491.994L262.765 494.728L257.49 497.21L251.44 499.247L244.284 500.643L235.751 501.225L226.714 500.798L219.228 499.44L212.906 497.365L207.379 494.806L202.279 491.974L197.256 489.104L191.942 486.408L185.95 484.12L178.949 482.472" stroke="#E5E6E0" stroke-width="7.62845" stroke-miterlimit="10" stroke-linejoin="round"/>
<path d="M647.133 283.191L638.581 282.822L631.405 281.6L625.297 279.739L619.964 277.392L610.364 272.04L605.477 269.402L600.144 267.056L594.055 265.175L586.86 263.972L578.308 263.604L569.775 264.185L562.619 265.582L556.568 267.599L551.294 270.081L541.83 275.666L537.02 278.42L531.746 280.902L525.695 282.938L518.558 284.335L510.006 284.916L501.454 284.548L494.278 283.326L488.17 281.445L482.837 279.099L473.237 273.746L468.37 271.128L463.017 268.782L456.928 266.9L449.752 265.679L441.181 265.31L432.648 265.892L425.492 267.288L419.441 269.325L414.167 271.807L404.703 277.392L399.893 280.146L394.619 282.628L388.568 284.645L381.431 286.041L372.879 286.623L364.327 286.255L357.152 285.052L351.043 283.171L345.71 280.825L336.11 275.472L331.223 272.835L325.89 270.488L319.781 268.626L312.606 267.405L304.054 267.036L295.502 267.618L288.365 269.014L282.314 271.031L277.04 273.513L267.576 279.118L262.766 281.852L257.492 284.335L251.441 286.371L244.285 287.767L235.752 288.349L226.715 287.922L219.229 286.565L212.907 284.49L207.38 281.93L202.28 279.099L197.257 276.228L191.944 273.533L185.951 271.244L178.951 269.596" stroke="#E5E6E0" stroke-width="7.62845" stroke-miterlimit="10" stroke-linejoin="round"/>
<path d="M372.59 318.937L364.038 318.569L356.862 317.347L350.753 315.485L345.42 313.139L335.821 307.786L330.934 305.149L325.601 302.802L319.512 300.921L312.317 299.719L303.765 299.331L295.232 299.932L288.076 301.328L282.025 303.345L276.75 305.828L267.287 311.413L262.477 314.167L257.202 316.649L251.152 318.685L244.015 320.081L235.463 320.663L226.911 320.295L219.735 319.073L213.627 317.192L208.293 314.845L198.694 309.493L193.826 306.875L188.474 304.528L182.385 302.647L175.209 301.425L166.638 301.057L158.105 301.639L150.949 303.035L144.898 305.071L139.623 307.554L130.16 313.139L125.35 315.893L120.075 318.375L114.025 320.392L106.888 321.788L98.336 322.37L89.7837 322.001L82.6083 320.78L76.4996 318.918L71.1665 316.571L61.5671 311.219L56.6801 308.581L51.347 306.235L45.2383 304.354L38.0629 303.151L29.5107 302.783L20.9584 303.365L13.8218 304.761L7.77125 306.778L2.49642 309.26L-6.96731 314.845L-11.7767 317.599L-17.0516 320.081L-23.1022 322.118L-30.2582 323.514L-38.791 324.096L-47.8281 323.669L-55.3137 322.312L-61.6358 320.237L-67.1628 317.677L-72.2631 314.845L-77.2859 311.975L-82.5995 309.28L-88.5919 306.991L-95.5927 305.343" stroke="#E5E6E0" stroke-width="7.62845" stroke-miterlimit="10" stroke-linejoin="round"/>
<path d="M372.59 464.501L364.038 464.132L356.862 462.911L350.753 461.049L345.42 458.702L335.821 453.35L330.934 450.713L325.601 448.366L319.512 446.504L312.317 445.283L303.765 444.914L295.232 445.496L288.076 446.892L282.025 448.909L276.75 451.391L267.287 456.996L262.477 459.73L257.202 462.213L251.152 464.249L244.015 465.645L235.463 466.227L226.911 465.858L219.735 464.637L213.627 462.756L208.293 460.409L198.694 455.057L193.826 452.439L188.474 450.092L182.385 448.211L175.209 446.989L166.638 446.621L158.105 447.202L150.949 448.599L144.898 450.635L139.623 453.117L130.16 458.702L125.35 461.456L120.075 463.939L114.025 465.955L106.888 467.352L98.336 467.933L89.7837 467.565L82.6083 466.363L76.4996 464.482L71.1665 462.135L61.5671 456.783L56.6801 454.145L51.347 451.799L45.2383 449.937L38.0629 448.715L29.5107 448.347L20.9584 448.928L13.8218 450.325L7.77125 452.361L2.49642 454.824L-6.96731 460.428L-11.7767 463.182L-17.0516 465.645L-23.1022 467.681L-30.2582 469.078L-38.791 469.659L-47.8281 469.233L-55.3137 467.875L-61.6358 465.8L-67.1628 463.24L-72.2631 460.409L-77.2859 457.539L-82.5995 454.843L-88.5919 452.555L-95.5927 450.907" stroke="#E5E6E0" stroke-width="7.62845" stroke-miterlimit="10" stroke-linejoin="round"/>
<path d="M372.59 355.34L364.038 354.971L356.862 353.749L350.753 351.868L345.42 349.522L335.821 344.169L330.934 341.551L325.601 339.205L319.512 337.324L312.317 336.102L303.765 335.733L295.232 336.315L288.076 337.711L282.025 339.748L276.75 342.23L267.287 347.815L262.477 350.569L257.202 353.051L251.152 355.068L244.015 356.464L235.463 357.046L226.911 356.678L219.735 355.456L213.627 353.594L208.293 351.248L198.694 345.895L193.826 343.258L188.474 340.911L182.385 339.03L175.209 337.828L166.638 337.459L158.105 338.041L150.949 339.437L144.898 341.454L139.623 343.937L130.16 349.522L125.35 352.275L120.075 354.758L114.025 356.794L106.888 358.19L98.336 358.772L89.7837 358.404L82.6083 357.182L76.4996 355.301L71.1665 352.954L61.5671 347.602L56.6801 344.984L51.347 342.637L45.2383 340.756L38.0629 339.534L29.5107 339.166L20.9584 339.748L13.8218 341.144L7.77125 343.18L2.49642 345.662L-6.96731 351.248L-11.7767 354.001L-17.0516 356.484L-23.1022 358.501L-30.2582 359.897L-38.791 360.479L-47.8281 360.071L-55.3137 358.714L-61.6358 356.639L-67.1628 354.079L-72.2631 351.248L-77.2859 348.358L-82.5995 345.682L-88.5919 343.394L-95.5927 341.726" stroke="#E5E6E0" stroke-width="7.62845" stroke-miterlimit="10" stroke-linejoin="round"/>
<path d="M372.59 391.72L364.038 391.351L356.862 390.13L350.753 388.268L345.42 385.921L335.821 380.569L330.934 377.932L325.601 375.585L319.512 373.704L312.317 372.502L303.765 372.133L295.232 372.715L288.076 374.111L282.025 376.128L276.75 378.61L267.287 384.195L262.477 386.949L257.202 389.432L251.152 391.468L244.015 392.864L235.463 393.446L226.911 393.077L219.735 391.856L213.627 389.975L208.293 387.628L198.694 382.276L193.826 379.658L188.474 377.311L182.385 375.43L175.209 374.208L166.638 373.84L158.105 374.421L150.949 375.818L144.898 377.854L139.623 380.336L130.16 385.921L125.35 388.675L120.075 391.158L114.025 393.174L106.888 394.571L98.336 395.152L89.7837 394.784L82.6083 393.582L76.4996 391.701L71.1665 389.354L61.5671 384.002L56.6801 381.364L51.347 379.018L45.2383 377.156L38.0629 375.934L29.5107 375.566L20.9584 376.147L13.8218 377.544L7.77125 379.561L2.49642 382.043L-6.96731 387.647L-11.7767 390.382L-17.0516 392.864L-23.1022 394.9L-30.2582 396.297L-38.791 396.878L-47.8281 396.452L-55.3137 395.094L-61.6358 393.019L-67.1628 390.459L-72.2631 387.628L-77.2859 384.758L-82.5995 382.062L-88.5919 379.774L-95.5927 378.126" stroke="#E5E6E0" stroke-width="7.62845" stroke-miterlimit="10" stroke-linejoin="round"/>
<path d="M372.59 428.122L364.038 427.753L356.862 426.532L350.753 424.651L345.42 422.304L335.821 416.952L330.934 414.334L325.601 411.987L319.512 410.106L312.317 408.884L303.765 408.516L295.232 409.097L288.076 410.494L282.025 412.53L276.75 415.012L267.287 420.597L262.477 423.351L257.202 425.834L251.152 427.85L244.015 429.247L235.463 429.828L226.911 429.46L219.735 428.258L213.627 426.377L208.293 424.03L198.694 418.678L193.826 416.04L188.474 413.694L182.385 411.832L175.209 410.61L166.638 410.242L158.105 410.823L150.949 412.22L144.898 414.237L139.623 416.719L130.16 422.323L125.35 425.058L120.075 427.54L114.025 429.576L106.888 430.973L98.336 431.554L89.7837 431.186L82.6083 429.964L76.4996 428.083L71.1665 425.737L61.5671 420.384L56.6801 417.766L51.347 415.42L45.2383 413.538L38.0629 412.317L29.5107 411.948L20.9584 412.53L13.8218 413.926L7.77125 415.963L2.49642 418.445L-6.96731 424.03L-11.7767 426.784L-17.0516 429.266L-23.1022 431.283L-30.2582 432.679L-38.791 433.261L-47.8281 432.854L-55.3137 431.496L-61.6358 429.421L-67.1628 426.861L-72.2631 424.03L-77.2859 421.16L-82.5995 418.464L-88.5919 416.176L-95.5927 414.508" stroke="#E5E6E0" stroke-width="7.62845" stroke-miterlimit="10" stroke-linejoin="round"/>
<path d="M372.59 499.602L364.038 499.233L356.862 498.012L350.753 496.15L345.42 493.803L335.821 488.451L330.934 485.813L325.601 483.467L319.512 481.586L312.317 480.383L303.765 480.015L295.232 480.597L288.076 481.993L282.025 484.01L276.75 486.492L267.287 492.077L262.477 494.831L257.202 497.313L251.152 499.35L244.015 500.746L235.463 501.328L226.911 500.959L219.735 499.738L213.627 497.856L208.293 495.51L198.694 490.157L193.826 487.539L188.474 485.193L182.385 483.312L175.209 482.09L166.638 481.722L158.105 482.303L150.949 483.7L144.898 485.736L139.623 488.218L130.16 493.803L125.35 496.557L120.075 499.039L114.025 501.056L106.888 502.453L98.336 503.034L89.7837 502.666L82.6083 501.463L76.4996 499.582L71.1665 497.236L61.5671 491.883L56.6801 489.246L51.347 486.899L45.2383 485.038L38.0629 483.816L29.5107 483.447L20.9584 484.029L13.8218 485.426L7.77125 487.442L2.49642 489.925L-6.96731 495.529L-11.7767 498.264L-17.0516 500.746L-23.1022 502.782L-30.2582 504.178L-38.791 504.76L-47.8281 504.334L-55.3137 502.976L-61.6358 500.901L-67.1628 498.341L-72.2631 495.51L-77.2859 492.64L-82.5995 489.944L-88.5919 487.656L-95.5927 486.007" stroke="#E5E6E0" stroke-width="7.62845" stroke-miterlimit="10" stroke-linejoin="round"/>
<path d="M372.59 286.726L364.038 286.357L356.862 285.136L350.753 283.274L345.42 280.927L335.821 275.575L330.934 272.937L325.601 270.591L319.512 268.71L312.317 267.507L303.765 267.139L295.232 267.721L288.076 269.117L282.025 271.134L276.75 273.616L267.287 279.201L262.477 281.955L257.202 284.437L251.152 286.474L244.015 287.87L235.463 288.452L226.911 288.083L219.735 286.862L213.627 284.98L208.293 282.634L198.694 277.281L193.826 274.663L188.474 272.317L182.385 270.436L175.209 269.214L166.638 268.846L158.105 269.427L150.949 270.824L144.898 272.86L139.623 275.342L130.16 280.927L125.35 283.681L120.075 286.163L114.025 288.18L106.888 289.577L98.336 290.158L89.7837 289.79L82.6083 288.587L76.4996 286.706L71.1665 284.36L61.5671 279.007L56.6801 276.37L51.347 274.023L45.2383 272.162L38.0629 270.94L29.5107 270.572L20.9584 271.153L13.8218 272.55L7.77125 274.566L2.49642 277.049L-6.96731 282.653L-11.7767 285.388L-17.0516 287.87L-23.1022 289.906L-30.2582 291.303L-38.791 291.884L-47.8281 291.458L-55.3137 290.1L-61.6358 288.025L-67.1628 285.465L-72.2631 282.634L-77.2859 279.764L-82.5995 277.068L-88.5919 274.78L-95.5927 273.131" stroke="#E5E6E0" stroke-width="7.62845" stroke-miterlimit="10" stroke-linejoin="round"/>
<path d="M97.2344 322.64L88.6821 322.272L81.5068 321.05L75.398 319.188L70.065 316.842L60.4655 311.489L55.5785 308.852L50.2455 306.505L44.1561 304.624L36.9614 303.422L28.4091 303.034L19.8762 303.635L12.7203 305.031L6.6697 307.048L1.39484 309.531L-8.06888 315.116L-12.8783 317.87L-18.1532 320.352L-24.2037 322.388L-31.3403 323.784L-39.8926 324.366L-48.4448 323.998L-55.6202 322.776L-61.7289 320.895L-67.062 318.548L-76.6615 313.196L-81.5291 310.578L-86.8815 308.231L-92.9708 306.35L-100.146 305.128L-108.718 304.76L-117.251 305.342L-124.407 306.738L-130.457 308.774L-135.732 311.257L-145.196 316.842L-150.005 319.596L-155.28 322.078L-161.331 324.095L-168.467 325.491L-177.02 326.073L-185.572 325.704L-192.747 324.483L-198.856 322.621L-204.189 320.274L-213.788 314.922L-218.675 312.284L-224.008 309.938L-230.117 308.057L-237.293 306.854L-245.845 306.486L-254.397 307.068L-261.534 308.464L-267.584 310.481L-272.859 312.963L-282.323 318.548L-287.132 321.302L-292.407 323.784L-298.458 325.821L-305.614 327.217L-314.146 327.799L-323.184 327.372L-330.669 326.015L-336.991 323.94L-342.518 321.38L-347.619 318.548L-352.641 315.678L-357.955 312.983L-363.947 310.694L-370.948 309.046" stroke="#E5E6E0" stroke-width="7.62845" stroke-miterlimit="10" stroke-linejoin="round"/>
<path d="M97.2344 468.204L88.6821 467.836L81.5068 466.614L75.398 464.752L70.065 462.406L60.4655 457.053L55.5785 454.416L50.2455 452.069L44.1561 450.207L36.9614 448.986L28.4091 448.617L19.8762 449.199L12.7203 450.595L6.6697 452.612L1.39484 455.094L-8.06888 460.699L-12.8783 463.433L-18.1532 465.916L-24.2037 467.952L-31.3403 469.348L-39.8926 469.93L-48.4448 469.562L-55.6202 468.34L-61.7289 466.459L-67.062 464.112L-76.6615 458.76L-81.5291 456.142L-86.8815 453.795L-92.9708 451.914L-100.146 450.692L-108.718 450.324L-117.251 450.906L-124.407 452.302L-130.457 454.338L-135.732 456.82L-145.196 462.406L-150.005 465.159L-155.28 467.642L-161.331 469.659L-168.467 471.055L-177.02 471.637L-185.572 471.268L-192.747 470.066L-198.856 468.185L-204.189 465.838L-213.788 460.486L-218.675 457.848L-224.008 455.502L-230.117 453.64L-237.293 452.418L-245.845 452.05L-254.397 452.632L-261.534 454.028L-267.584 456.064L-272.859 458.527L-282.323 464.132L-287.132 466.885L-292.407 469.348L-298.458 471.384L-305.614 472.781L-314.146 473.363L-323.184 472.936L-330.669 471.578L-336.991 469.503L-342.518 466.944L-347.619 464.112L-352.641 461.242L-357.955 458.546L-363.947 456.258L-370.948 454.61" stroke="#E5E6E0" stroke-width="7.62845" stroke-miterlimit="10" stroke-linejoin="round"/>
<path d="M97.2344 359.043L88.6821 358.674L81.5068 357.452L75.398 355.571L70.065 353.225L60.4655 347.872L55.5785 345.254L50.2455 342.908L44.1561 341.027L36.9614 339.805L28.4091 339.436L19.8762 340.018L12.7203 341.414L6.6697 343.451L1.39484 345.933L-8.06888 351.518L-12.8783 354.272L-18.1532 356.754L-24.2037 358.771L-31.3403 360.167L-39.8926 360.749L-48.4448 360.381L-55.6202 359.159L-61.7289 357.297L-67.062 354.951L-76.6615 349.598L-81.5291 346.961L-86.8815 344.614L-92.9708 342.733L-100.146 341.531L-108.718 341.162L-117.251 341.744L-124.407 343.14L-130.457 345.157L-135.732 347.64L-145.196 353.225L-150.005 355.978L-155.28 358.461L-161.331 360.497L-168.467 361.893L-177.02 362.475L-185.572 362.107L-192.747 360.885L-198.856 359.004L-204.189 356.657L-213.788 351.305L-218.675 348.687L-224.008 346.34L-230.117 344.459L-237.293 343.237L-245.845 342.869L-254.397 343.451L-261.534 344.847L-267.584 346.883L-272.859 349.365L-282.323 354.951L-287.132 357.704L-292.407 360.187L-298.458 362.204L-305.614 363.6L-314.146 364.182L-323.184 363.774L-330.669 362.417L-336.991 360.342L-342.518 357.782L-347.619 354.951L-352.641 352.061L-357.955 349.385L-363.947 347.097L-370.948 345.429" stroke="#E5E6E0" stroke-width="7.62845" stroke-miterlimit="10" stroke-linejoin="round"/>
<path d="M97.2344 395.423L88.6821 395.055L81.5068 393.833L75.398 391.971L70.065 389.625L60.4655 384.272L55.5785 381.635L50.2455 379.288L44.1561 377.407L36.9614 376.205L28.4091 375.836L19.8762 376.418L12.7203 377.814L6.6697 379.831L1.39484 382.313L-8.06888 387.899L-12.8783 390.652L-18.1532 393.135L-24.2037 395.171L-31.3403 396.567L-39.8926 397.149L-48.4448 396.781L-55.6202 395.559L-61.7289 393.678L-67.062 391.331L-76.6615 385.979L-81.5291 383.361L-86.8815 381.014L-92.9708 379.133L-100.146 377.911L-108.718 377.543L-117.251 378.125L-124.407 379.521L-130.457 381.557L-135.732 384.039L-145.196 389.625L-150.005 392.378L-155.28 394.861L-161.331 396.878L-168.467 398.274L-177.02 398.856L-185.572 398.487L-192.747 397.285L-198.856 395.404L-204.189 393.057L-213.788 387.705L-218.675 385.067L-224.008 382.721L-230.117 380.859L-237.293 379.637L-245.845 379.269L-254.397 379.851L-261.534 381.247L-267.584 383.264L-272.859 385.746L-282.323 391.351L-287.132 394.085L-292.407 396.567L-298.458 398.603L-305.614 400L-314.146 400.582L-323.184 400.155L-330.669 398.797L-336.991 396.722L-342.518 394.163L-347.619 391.331L-352.641 388.461L-357.955 385.765L-363.947 383.477L-370.948 381.829" stroke="#E5E6E0" stroke-width="7.62845" stroke-miterlimit="10" stroke-linejoin="round"/>
<path d="M97.2344 431.826L88.6821 431.458L81.5068 430.236L75.398 428.355L70.065 426.008L60.4655 420.656L55.5785 418.038L50.2455 415.691L44.1561 413.81L36.9614 412.588L28.4091 412.22L19.8762 412.802L12.7203 414.198L6.6697 416.234L1.39484 418.716L-8.06888 424.302L-12.8783 427.055L-18.1532 429.538L-24.2037 431.554L-31.3403 432.951L-39.8926 433.533L-48.4448 433.164L-55.6202 431.962L-61.7289 430.081L-67.062 427.734L-76.6615 422.382L-81.5291 419.744L-86.8815 417.398L-92.9708 415.536L-100.146 414.314L-108.718 413.946L-117.251 414.528L-124.407 415.924L-130.457 417.941L-135.732 420.423L-145.196 426.028L-150.005 428.762L-155.28 431.244L-161.331 433.28L-168.467 434.677L-177.02 435.259L-185.572 434.89L-192.747 433.668L-198.856 431.787L-204.189 429.441L-213.788 424.088L-218.675 421.47L-224.008 419.124L-230.117 417.243L-237.293 416.021L-245.845 415.652L-254.397 416.234L-261.534 417.63L-267.584 419.667L-272.859 422.149L-282.323 427.734L-287.132 430.488L-292.407 432.97L-298.458 434.987L-305.614 436.383L-314.146 436.965L-323.184 436.558L-330.669 435.2L-336.991 433.125L-342.518 430.565L-347.619 427.734L-352.641 424.864L-357.955 422.168L-363.947 419.88L-370.948 418.212" stroke="#E5E6E0" stroke-width="7.62845" stroke-miterlimit="10" stroke-linejoin="round"/>
<path d="M97.2346 503.306L88.6824 502.937L81.507 501.715L75.3983 499.854L70.0652 497.507L60.4657 492.155L55.5787 489.517L50.2457 487.171L44.1564 485.29L36.9616 484.087L28.4093 483.719L19.8765 484.301L12.7205 485.697L6.66994 487.714L1.39509 490.196L-8.06863 495.781L-12.8781 498.535L-18.1529 501.017L-24.2035 503.054L-31.3401 504.45L-39.8923 505.032L-48.4446 504.663L-55.62 503.441L-61.7287 501.56L-67.0617 499.214L-76.6612 493.861L-81.5288 491.243L-86.8812 488.897L-92.9706 487.016L-100.146 485.794L-108.718 485.425L-117.25 486.007L-124.406 487.403L-130.457 489.44L-135.732 491.922L-145.196 497.507L-150.005 500.261L-155.28 502.743L-161.33 504.76L-168.467 506.156L-177.019 506.738L-185.572 506.37L-192.747 505.167L-198.856 503.286L-204.189 500.94L-213.788 495.587L-218.675 492.95L-224.008 490.603L-230.117 488.742L-237.292 487.52L-245.845 487.151L-254.397 487.733L-261.533 489.129L-267.584 491.146L-272.859 493.629L-282.323 499.233L-287.132 501.968L-292.407 504.45L-298.457 506.486L-305.613 507.882L-314.146 508.464L-323.183 508.037L-330.669 506.68L-336.991 504.605L-342.518 502.045L-347.618 499.214L-352.641 496.344L-357.955 493.648L-363.947 491.36L-370.948 489.711" stroke="#E5E6E0" stroke-width="7.62845" stroke-miterlimit="10" stroke-linejoin="round"/>
<path d="M97.2344 290.43L88.6821 290.061L81.5068 288.839L75.398 286.978L70.065 284.631L60.4655 279.279L55.5785 276.641L50.2455 274.295L44.1561 272.414L36.9614 271.211L28.4091 270.843L19.8762 271.425L12.7203 272.821L6.6697 274.838L1.39484 277.32L-8.06888 282.905L-12.8783 285.659L-18.1532 288.141L-24.2037 290.178L-31.3403 291.574L-39.8926 292.156L-48.4448 291.787L-55.6202 290.565L-61.7289 288.684L-67.062 286.338L-76.6615 280.985L-81.5291 278.367L-86.8815 276.021L-92.9708 274.14L-100.146 272.918L-108.718 272.549L-117.251 273.131L-124.407 274.527L-130.457 276.564L-135.732 279.046L-145.196 284.631L-150.005 287.385L-155.28 289.867L-161.331 291.884L-168.467 293.28L-177.02 293.862L-185.572 293.494L-192.747 292.291L-198.856 290.41L-204.189 288.064L-213.788 282.711L-218.675 280.074L-224.008 277.727L-230.117 275.866L-237.293 274.644L-245.845 274.275L-254.397 274.857L-261.534 276.253L-267.584 278.27L-272.859 280.753L-282.323 286.357L-287.132 289.092L-292.407 291.574L-298.458 293.61L-305.614 295.006L-314.146 295.588L-323.184 295.161L-330.669 293.804L-336.991 291.729L-342.518 289.169L-347.619 286.338L-352.641 283.468L-357.955 280.772L-363.947 278.484L-370.948 276.835" stroke="#E5E6E0" stroke-width="7.62845" stroke-miterlimit="10" stroke-linejoin="round"/>
</g>
<path d="M299.638 250.182L395.995 474.042C401.842 487.628 395.569 503.382 381.983 509.23L276.204 554.761C262.617 560.609 246.863 554.336 241.015 540.75L144.659 316.891C138.811 303.304 145.084 287.55 158.67 281.702L168.92 277.29L144.213 219.89C141.289 213.097 144.426 205.22 151.219 202.296L154.909 200.708L130.555 144.128C127.631 137.335 130.768 129.458 137.561 126.534L181.431 107.651C188.224 104.727 196.101 107.863 199.025 114.656L206.261 131.466C208.502 136.674 206.098 142.714 200.89 144.955C195.682 147.197 193.277 153.236 195.519 158.444L204.519 179.354L211.079 176.531C217.872 173.607 225.749 176.743 228.673 183.536L253.38 240.936L264.45 236.171C278.036 230.323 293.79 236.596 299.638 250.182Z" fill="#D0D2CC"/>
<path d="M168.92 277.29L158.67 281.702C145.084 287.55 138.811 303.304 144.659 316.891L241.015 540.75C246.863 554.336 262.617 560.609 276.204 554.761L381.983 509.23C395.569 503.382 401.842 487.628 395.995 474.042L299.638 250.182C293.79 236.596 278.036 230.323 264.45 236.171L253.38 240.936M168.92 277.29L144.213 219.89C141.289 213.097 144.426 205.22 151.219 202.296L154.909 200.708M168.92 277.29L253.38 240.936M253.38 240.936L228.673 183.536C225.749 176.743 217.872 173.607 211.079 176.531L204.519 179.354M154.909 200.708L130.555 144.128C127.631 137.335 130.768 129.458 137.561 126.534L181.431 107.651C188.224 104.727 196.101 107.863 199.025 114.656L206.261 131.466C208.502 136.674 206.098 142.714 200.89 144.955V144.955C195.682 147.197 193.277 153.236 195.519 158.444L204.519 179.354M154.909 200.708L204.519 179.354" stroke="#0D263F" stroke-width="0.892732" stroke-linecap="round"/>
<path d="M177.019 263.819L166.77 268.231C153.183 274.079 146.91 289.833 152.758 303.419L249.114 527.279C254.962 540.865 270.717 547.138 284.303 541.29L390.083 495.759C403.669 489.911 409.942 474.157 404.094 460.571L307.738 236.711C301.89 223.125 286.135 216.852 272.549 222.7L261.479 227.465M177.019 263.819L152.313 206.419C149.389 199.626 152.525 191.749 159.318 188.825L163.008 187.237M177.019 263.819L261.479 227.465M261.479 227.465L236.772 170.065C233.848 163.272 225.971 160.136 219.178 163.059L212.618 165.883M163.008 187.237L138.655 130.657C135.731 123.864 138.867 115.987 145.66 113.063L189.53 94.1797C196.323 91.2557 204.2 94.3923 207.124 101.185L214.36 117.995C216.602 123.203 214.197 129.243 208.989 131.484V131.484C203.781 133.726 201.376 139.765 203.618 144.973L212.618 165.883M163.008 187.237L212.618 165.883" stroke="white" stroke-width="2.63765" stroke-linecap="round"/>
<path d="M461.246 224.843L277.977 303.728C271.184 306.652 268.047 314.529 270.971 321.322L293.384 373.392C296.308 380.185 304.185 383.321 310.978 380.398L494.247 301.512C501.04 298.589 504.177 290.711 501.253 283.918L478.841 231.848C475.917 225.055 468.039 221.919 461.246 224.843Z" fill="#D0D2CC" stroke="#0D263F" stroke-width="2.63765" stroke-linecap="round"/>
<path d="M494.658 301.336L310.979 380.397C304.186 383.321 301.049 391.199 303.973 397.992L345.974 495.571C351.822 509.157 367.577 515.43 381.163 509.583L540.242 441.11C553.829 435.262 560.102 419.507 554.254 405.921L512.252 308.341C509.328 301.548 501.451 298.412 494.658 301.336Z" fill="#D0D2CC" stroke="#0D263F" stroke-width="2.63765" stroke-linecap="round"/>
<path d="M469.346 211.372L286.077 290.257C279.284 293.181 276.147 301.058 279.071 307.851L301.484 359.921C304.408 366.714 312.285 369.851 319.078 366.927L502.347 288.042C509.14 285.118 512.277 277.24 509.353 270.447L486.94 218.377C484.016 211.584 476.139 208.448 469.346 211.372Z" stroke="white" stroke-width="2.63765" stroke-linecap="round"/>
<path d="M502.758 287.865L319.078 366.926C312.285 369.85 309.149 377.728 312.073 384.521L354.074 482.1C359.922 495.686 375.676 501.96 389.263 496.112L548.342 427.639C561.928 421.791 568.201 406.036 562.353 392.45L520.352 294.871C517.428 288.077 509.551 284.941 502.758 287.865Z" stroke="white" stroke-width="2.63765" stroke-linecap="round"/>
<path d="M372.949 429.534L484.059 381.709" stroke="#0D263F" stroke-width="8.4645" stroke-linecap="round"/>
</g>
</g>
<defs>
<clipPath id="clip0_4_552">
<rect width="512" height="512" fill="white"/>
</clipPath>
</defs>
</svg>
