<svg width="460" height="314" viewBox="0 0 460 314" fill="none" xmlns="http://www.w3.org/2000/svg">
<path d="M82.8999 63.0914H99.6573V106.782C100.828 105.732 101.555 105.126 102.201 104.44C115.809 90.8318 129.457 77.2645 142.984 63.576C145.043 61.5166 147.062 60.9918 149.848 61.5974V139.368H133.172V95.4351C131.961 96.6061 131.193 97.2926 130.466 98.0195C117.02 111.546 103.534 124.993 90.1682 138.6C88.0281 140.781 85.9687 141.71 82.8596 140.942V63.0914H82.8999Z" fill="white"/>
<path d="M0.16152 63.0532H17.2015C17.2015 64.1839 17.2015 65.2339 17.2015 66.2838C17.3226 73.2694 17.04 80.3355 17.686 87.2807C18.4533 95.195 23.7429 99.9194 31.6976 100.162C36.1393 100.283 40.6214 99.4753 45.0631 99.0312C46.8801 98.8696 47.5666 97.9409 47.5262 96.0027C47.4454 86.1098 47.4858 76.2168 47.4858 66.3239V63.1341H64.445V139.289H47.5262V115.304C40.8233 115.627 34.403 116.313 27.9827 116.152C12.9213 115.788 1.37289 104.765 0.444173 89.7842C-0.121135 81.2642 0.121137 72.704 0 64.184C0 63.8609 0.121134 63.4976 0.201892 62.9727" fill="white"/>
<path d="M200.888 121.601C200.888 54.8546 254.996 0.787109 321.703 0.787109C388.409 0.787109 442.517 54.895 442.517 121.601C442.517 188.308 388.409 242.416 321.703 242.416C254.996 242.416 200.888 188.308 200.888 121.601Z" fill="#E50040"/>
<path d="M319.481 113.12L292.225 108.356L289.479 124.103L303.087 126.446L292.467 135.087L302.562 147.483L323.923 130.12L457.254 153.419L460 137.671L340.317 116.755L436.742 38.2577L426.647 25.8613L319.481 113.12Z" fill="white"/>
<path d="M204.198 125.478C190.549 125.478 180.212 115.06 180.172 101.25C180.172 87.4808 190.549 76.9418 204.117 76.9418C217.725 76.9418 228.102 87.5616 227.94 101.331C227.779 115.221 217.684 125.478 204.198 125.478ZM204.076 61.3151C180.98 61.4362 163.495 78.4763 163.334 101.048C163.172 123.58 181.02 141.185 203.955 141.225C227.173 141.225 244.536 124.145 244.577 101.25C244.577 78.2744 227.254 61.194 204.036 61.3151" fill="white"/>
<path d="M105.873 159.236H122.631V202.926C123.802 201.876 124.528 201.271 125.174 200.584C138.782 186.976 152.43 173.409 165.957 159.721C168.017 157.661 170.036 157.136 172.822 157.742V235.512H156.145V191.58C154.934 192.751 154.167 193.437 153.44 194.164C139.994 207.691 126.507 221.137 113.141 234.745C111.001 236.925 108.942 237.854 105.833 237.087V159.236H105.873Z" fill="white"/>
<path d="M23.1376 159.235H40.1776C40.1776 160.366 40.1776 161.415 40.1776 162.465C40.2988 169.451 40.0161 176.517 40.6622 183.462C41.4294 191.377 46.719 196.101 54.6737 196.343C59.1154 196.464 63.5975 195.657 68.0392 195.213C69.8563 195.051 70.5427 194.123 70.5023 192.184C70.4216 182.291 70.4619 172.398 70.4619 162.506V159.316H87.4212V235.471H70.5023V211.485C63.7994 211.808 57.3791 212.495 50.9588 212.333C35.8974 211.97 24.349 200.946 23.4203 185.966C22.855 177.446 23.0973 168.886 22.9761 160.366C22.9761 160.043 23.0973 159.679 23.178 159.154" fill="white"/>
<path d="M228.101 221.622C214.453 221.622 204.116 211.204 204.075 197.395C204.075 183.625 214.453 173.086 228.02 173.086C241.628 173.086 252.005 183.706 251.844 197.475C251.682 211.366 241.587 221.622 228.101 221.622ZM227.98 157.46C204.883 157.581 187.399 174.621 187.237 197.193C187.076 219.724 204.923 237.33 227.859 237.37C251.077 237.37 268.44 220.29 268.48 197.395C268.48 174.419 251.157 157.338 227.939 157.46" fill="white"/>
<path d="M16.6298 268.134H43.3305V298.781H35.3435V275.331H24.6168V298.781H16.6298V268.134ZM67.2 296.227H56.1947L55.0803 298.781H46.4896L60.4204 267.576H62.9744L76.9052 298.781H68.3145L67.2 296.227ZM61.7206 282.714L59.0273 289.819H64.3674L61.7206 282.714ZM80.0711 268.134H92.0981C94.3579 268.134 96.3856 268.567 98.1812 269.434C99.9767 270.301 101.385 271.539 102.407 273.149C103.428 274.727 103.939 276.569 103.939 278.674C103.939 280.749 103.413 282.591 102.36 284.2C101.339 285.81 99.9303 287.064 98.1347 287.962C96.3392 288.828 94.327 289.262 92.0981 289.262H88.0581V298.781H80.0711V268.134ZM92.1445 282.296C93.259 282.296 94.1412 281.971 94.7913 281.321C95.4724 280.64 95.8129 279.758 95.8129 278.674C95.8129 277.591 95.4724 276.724 94.7913 276.074C94.1412 275.424 93.259 275.099 92.1445 275.099H88.0581V282.296H92.1445ZM135.442 267.576V298.781H127.455V282.854L110.831 299.338H108.277V268.134H116.264V283.875L132.888 267.576H135.442ZM161.205 298.781L149.549 283.504V298.781H141.562V268.134H149.549V282.018L159.673 268.134H168.96L158.419 282.714L170.678 298.781H161.205ZM205.055 267.576V298.781H197.068V285.918L190.706 293.348H188.152L181.837 285.965V298.781H173.85V267.576H176.404L189.452 283.504L202.501 267.576H205.055ZM228.91 296.227H217.904L216.79 298.781H208.199L222.13 267.576H224.684L238.615 298.781H230.024L228.91 296.227ZM223.43 282.714L220.737 289.819H226.077L223.43 282.714ZM258.544 298.781L253.158 290.191L247.817 298.781H238.809L248.793 283.225L239.366 268.134H248.375L253.158 276.306L257.94 268.134H266.949L257.662 283.225L267.553 298.781H258.544ZM270.712 268.134H291.98V275.331H278.699V279.557H288.172V286.244H278.699V291.584H292.537V298.781H270.712V268.134ZM297.513 268.134H309.54C311.8 268.134 313.827 268.567 315.623 269.434C317.418 270.301 318.827 271.539 319.849 273.149C320.87 274.727 321.381 276.569 321.381 278.674C321.381 280.749 320.855 282.591 319.802 284.2C318.781 285.81 317.372 287.064 315.577 287.962C313.781 288.828 311.769 289.262 309.54 289.262H305.5V298.781H297.513V268.134ZM309.586 282.296C310.701 282.296 311.583 281.971 312.233 281.321C312.914 280.64 313.255 279.758 313.255 278.674C313.255 277.591 312.914 276.724 312.233 276.074C311.583 275.424 310.701 275.099 309.586 275.099H305.5V282.296H309.586ZM340.672 299.338C337.638 299.338 334.852 298.642 332.313 297.249C329.805 295.856 327.809 293.952 326.323 291.537C324.868 289.123 324.14 286.429 324.14 283.457C324.14 280.516 324.868 277.839 326.323 275.424C327.809 272.978 329.805 271.059 332.313 269.666C334.852 268.273 337.653 267.576 340.718 267.576C343.783 267.576 346.538 268.304 348.984 269.759C351.429 271.183 353.349 273.195 354.742 275.795L348.658 279.928C346.677 276.585 344.015 274.913 340.672 274.913C339.062 274.913 337.622 275.269 336.353 275.981C335.084 276.693 334.093 277.699 333.381 279C332.669 280.3 332.313 281.801 332.313 283.504C332.313 286.042 333.087 288.101 334.635 289.68C336.214 291.228 338.226 292.002 340.672 292.002C344.015 292.002 346.677 290.33 348.658 286.987L354.742 291.119C353.349 293.72 351.429 295.747 348.984 297.202C346.538 298.626 343.767 299.338 340.672 299.338ZM378.919 298.781L367.263 283.504V298.781H359.276V268.134H367.263V282.018L377.386 268.134H386.674L376.133 282.714L388.392 298.781H378.919ZM409.302 296.227H398.297L397.183 298.781H388.592L402.523 267.576H405.077L419.008 298.781H410.417L409.302 296.227ZM403.823 282.714L401.13 289.819H406.47L403.823 282.714ZM445.763 268.134V298.781H437.776V289.773H435.176L428.953 298.781H420.502L427.746 288.287C425.919 287.358 424.48 286.089 423.427 284.479C422.406 282.838 421.895 280.981 421.895 278.907C421.895 276.802 422.421 274.944 423.474 273.334C424.557 271.694 426.059 270.424 427.978 269.527C429.897 268.598 432.095 268.134 434.572 268.134H445.763ZM437.776 275.099H434.247C433.009 275.099 431.987 275.455 431.182 276.167C430.408 276.879 430.021 277.808 430.021 278.953C430.021 280.099 430.408 281.027 431.182 281.739C431.987 282.451 433.009 282.807 434.247 282.807H437.776V275.099Z" fill="white"/>
</svg>
