<svg width="460" height="242" viewBox="0 0 460 242" fill="none" xmlns="http://www.w3.org/2000/svg">
<path d="M82.9 62.3043H99.6573V105.995C100.828 104.945 101.555 104.339 102.201 103.652C115.809 90.0447 129.457 76.4774 142.984 62.7889C145.043 60.7295 147.062 60.2046 149.849 60.8103V138.581H133.172V94.648C131.961 95.819 131.193 96.5055 130.467 97.2324C117.02 110.759 103.534 124.206 90.1682 137.813C88.0281 139.994 85.9688 140.923 82.8596 140.155V62.3043H82.9Z" fill="white"/>
<path d="M0.16152 62.2661H17.2015C17.2015 63.3968 17.2015 64.4468 17.2015 65.4967C17.3226 72.4822 17.04 79.5484 17.686 86.4936C18.4533 94.4079 23.7429 99.1323 31.6976 99.3745C36.1393 99.4957 40.6214 98.6882 45.0631 98.244C46.8801 98.0825 47.5666 97.1538 47.5262 95.2156C47.4454 85.3227 47.4858 75.4297 47.4858 65.5368V62.347H64.445V138.502H47.5262V114.517C40.8233 114.84 34.403 115.526 27.9827 115.365C12.9213 115.001 1.37289 103.978 0.444173 88.9971C-0.121135 80.4771 0.121137 71.9169 0 63.3969C0 63.0738 0.121134 62.7105 0.201892 62.1855" fill="white"/>
<path d="M200.888 120.814C200.888 54.0675 254.996 0 321.702 0C388.409 0 442.517 54.1079 442.517 120.814C442.517 187.52 388.409 241.629 321.702 241.629C254.996 241.629 200.888 187.52 200.888 120.814Z" fill="#E50040"/>
<path d="M319.481 112.333L292.225 107.569L289.479 123.316L303.087 125.658L292.467 134.3L302.562 146.696L323.923 129.333L457.254 152.632L460 136.884L340.317 115.968L436.742 37.4706L426.647 25.0742L319.481 112.333Z" fill="white"/>
<path d="M204.198 124.691C190.549 124.691 180.212 114.273 180.172 100.463C180.172 86.6938 190.549 76.1548 204.117 76.1548C217.725 76.1548 228.102 86.7746 227.94 100.544C227.779 114.434 217.684 124.691 204.198 124.691ZM204.076 60.5281C180.98 60.6492 163.495 77.6893 163.334 100.261C163.172 122.793 181.02 140.398 203.955 140.438C227.173 140.438 244.536 123.358 244.577 100.463C244.577 77.4874 227.254 60.407 204.036 60.5281" fill="white"/>
<path d="M105.873 158.449H122.63V202.139C123.801 201.089 124.528 200.483 125.174 199.797C138.782 186.189 152.43 172.622 165.957 158.933C168.017 156.874 170.036 156.349 172.822 156.955V234.725H156.145V190.793C154.934 191.964 154.167 192.65 153.44 193.377C139.993 206.904 126.507 220.35 113.141 233.958C111.001 236.138 108.942 237.067 105.833 236.3V158.449H105.873Z" fill="white"/>
<path d="M23.1377 158.448H40.1777C40.1777 159.579 40.1777 160.628 40.1777 161.678C40.2988 168.664 40.0162 175.73 40.6622 182.675C41.4294 190.59 46.7191 195.314 54.6738 195.556C59.1155 195.677 63.5976 194.87 68.0393 194.426C69.8563 194.264 70.5428 193.336 70.5024 191.397C70.4216 181.505 70.462 171.612 70.462 161.719V158.529H87.4212V234.684H70.5024V210.698C63.7994 211.022 57.3792 211.708 50.9589 211.547C35.8975 211.183 24.3491 200.16 23.4204 185.179C22.855 176.659 23.0973 168.099 22.9762 159.579C22.9762 159.256 23.0973 158.892 23.1781 158.367" fill="white"/>
<path d="M228.101 220.835C214.453 220.835 204.116 210.417 204.075 196.607C204.075 182.838 214.453 172.299 228.02 172.299C241.628 172.299 252.005 182.919 251.844 196.688C251.682 210.579 241.587 220.835 228.101 220.835ZM227.98 156.672C204.883 156.793 187.399 173.834 187.237 196.405C187.076 218.937 204.923 236.542 227.859 236.583C251.076 236.583 268.439 219.502 268.48 196.607C268.48 173.632 251.157 156.551 227.939 156.672" fill="white"/>
</svg>
