<svg width="1104" height="1947" viewBox="0 0 1104 1947" fill="none" xmlns="http://www.w3.org/2000/svg">
<g filter="url(#filter0_d_8_5)">
<g clip-path="url(#clip0_8_5)">
<rect width="1080" height="1920" rx="30" fill="#D0D2CC"/>
<circle cx="931.5" cy="369.5" r="754.5" fill="#E5E6E0"/>
<path d="M-508 413.42L-491.228 414.143L-477.157 416.539L-465.177 420.19L-454.718 424.792L-435.892 435.288L-426.309 440.46L-415.85 445.062L-403.908 448.751L-389.798 451.109L-373.027 451.87L-356.293 450.691L-342.259 447.953L-330.393 443.997L-320.049 439.129L-301.49 428.176L-292.058 422.776L-281.713 417.908L-269.847 413.915L-255.852 411.176L-239.08 410.035L-222.308 410.758L-208.237 413.154L-196.257 416.843L-185.798 421.445L-166.973 431.941L-157.427 437.076L-146.93 441.677L-134.988 445.367L-120.916 447.763L-104.107 448.485L-87.3728 447.344L-73.3392 444.606L-61.4734 440.613L-51.1289 435.745L-32.5696 424.792L-23.1378 419.391L-12.7932 414.523L-0.927474 410.568L13.0681 407.83L29.8399 406.689L46.6118 407.411L60.6834 409.807L72.6633 413.458L83.1219 418.06L101.947 428.557L111.531 433.729L121.99 438.331L133.97 442.02L148.041 444.378L164.813 445.1L181.585 443.959L195.581 441.221L207.447 437.266L217.791 432.398L236.35 421.445L245.782 416.044L256.127 411.176L267.993 407.183L282.026 404.445L298.76 403.304L316.483 404.141L331.163 406.803L343.561 410.872L354.4 415.892L364.402 421.445L374.252 427.073L384.673 432.36L396.424 436.848L410.154 440.08" stroke="white" stroke-width="8" stroke-miterlimit="10" stroke-linejoin="round"/>
<path d="M-508 127.952L-491.228 128.675L-477.157 131.07L-465.177 134.722L-454.718 139.323L-435.892 149.82L-426.309 154.992L-415.85 159.594L-403.908 163.245L-389.798 165.641L-373.027 166.364L-356.293 165.223L-342.259 162.484L-330.393 158.529L-320.049 153.661L-301.49 142.67L-292.058 137.308L-281.713 132.44L-269.847 128.446L-255.852 125.708L-239.08 124.567L-222.308 125.29L-208.237 127.686L-196.257 131.375L-185.798 135.977L-166.973 146.473L-157.427 151.607L-146.93 156.209L-134.988 159.898L-120.916 162.294L-104.107 163.017L-87.3728 161.876L-73.3392 159.138L-61.4734 155.144L-51.1289 150.276L-32.5696 139.323L-23.1378 133.923L-12.7932 129.055L-0.927474 125.1L13.0681 122.361L29.8399 121.22L46.6118 121.943L60.6834 124.301L72.6633 127.99L83.1219 132.592L101.947 143.088L111.531 148.261L121.99 152.862L133.97 156.513L148.041 158.909L164.813 159.632L181.585 158.491L195.581 155.753L207.447 151.76L217.791 146.93L236.35 135.939L245.782 130.538L256.127 125.708L267.993 121.715L282.026 118.977L298.76 117.836L316.483 118.672L331.163 121.334L343.561 125.404L354.4 130.424L364.402 135.977L374.252 141.605L384.673 146.892L396.424 151.379L410.154 154.612" stroke="white" stroke-width="8" stroke-miterlimit="10" stroke-linejoin="round"/>
<path d="M-508 342.032L-491.228 342.755L-477.157 345.151L-465.177 348.84L-454.718 353.441L-435.892 363.938L-426.309 369.072L-415.85 373.674L-403.908 377.363L-389.798 379.759L-373.027 380.482L-356.293 379.341L-342.259 376.602L-330.393 372.609L-320.049 367.741L-301.49 356.788L-292.058 351.388L-281.713 346.52L-269.847 342.564L-255.852 339.826L-239.08 338.685L-222.308 339.408L-208.237 341.804L-196.257 345.455L-185.798 350.057L-166.973 360.553L-157.427 365.725L-146.93 370.327L-134.988 374.016L-120.916 376.374L-104.107 377.097L-87.3728 375.956L-73.3392 373.218L-61.4734 369.262L-51.1289 364.394L-32.5696 353.441L-23.1378 348.041L-12.7932 343.173L-0.927474 339.18L13.0681 336.441L29.8399 335.3L46.6118 336.023L60.6834 338.419L72.6633 342.108L83.1219 346.71L101.947 357.206L111.531 362.341L121.99 366.943L133.97 370.632L148.041 373.028L164.813 373.75L181.585 372.609L195.581 369.871L207.447 365.878L217.791 361.01L236.35 350.057L245.782 344.656L256.127 339.788L267.993 335.833L282.026 333.095L298.76 331.954L316.483 332.752L331.163 335.414L343.561 339.484L354.4 344.504L364.402 350.057L374.252 355.723L384.673 360.972L396.424 365.459L410.154 368.73" stroke="white" stroke-width="8" stroke-miterlimit="10" stroke-linejoin="round"/>
<path d="M-508 270.683L-491.228 271.406L-477.157 273.802L-465.177 277.453L-454.718 282.055L-435.892 292.552L-426.309 297.724L-415.85 302.326L-403.908 306.015L-389.798 308.373L-373.027 309.095L-356.293 307.954L-342.259 305.216L-330.393 301.261L-320.049 296.393L-301.49 285.44L-292.058 280.039L-281.713 275.171L-269.847 271.178L-255.852 268.44L-239.08 267.299L-222.308 268.021L-208.237 270.417L-196.257 274.106L-185.798 278.708L-166.973 289.205L-157.427 294.339L-146.93 298.941L-134.988 302.63L-120.916 305.026L-104.107 305.748L-87.3728 304.607L-73.3392 301.869L-61.4734 297.876L-51.1289 293.008L-32.5696 282.055L-23.1378 276.654L-12.7932 271.786L-0.927474 267.831L13.0681 265.093L29.8399 263.952L46.6118 264.675L60.6834 267.032L72.6633 270.722L83.1219 275.323L101.947 285.82L111.531 290.992L121.99 295.594L133.97 299.245L148.041 301.641L164.813 302.364L181.585 301.223L195.581 298.484L207.447 294.529L217.791 289.661L236.35 278.67L245.782 273.308L256.127 268.44L267.993 264.446L282.026 261.708L298.76 260.567L316.483 261.404L331.163 264.066L343.561 268.135L354.4 273.156L364.402 278.708L374.252 284.337L384.673 289.623L396.424 294.111L410.154 297.344" stroke="white" stroke-width="8" stroke-miterlimit="10" stroke-linejoin="round"/>
<path d="M-508 199.297L-491.228 200.02L-477.157 202.416L-465.177 206.105L-454.718 210.706L-435.892 221.203L-426.309 226.337L-415.85 230.939L-403.908 234.628L-389.798 237.024L-373.027 237.747L-356.293 236.606L-342.259 233.867L-330.393 229.874L-320.049 225.006L-301.49 214.053L-292.058 208.653L-281.713 203.785L-269.847 199.829L-255.852 197.091L-239.08 195.95L-222.308 196.673L-208.237 199.031L-196.257 202.72L-185.798 207.322L-166.973 217.818L-157.427 222.991L-146.93 227.592L-134.988 231.243L-120.916 233.639L-104.107 234.362L-87.3728 233.221L-73.3392 230.483L-61.4734 226.527L-51.1289 221.659L-32.5696 210.668L-23.1378 205.306L-12.7932 200.438L-0.927474 196.445L13.0681 193.706L29.8399 192.565L46.6118 193.288L60.6834 195.684L72.6633 199.373L83.1219 203.975L101.947 214.471L111.531 219.606L121.99 224.208L133.97 227.897L148.041 230.293L164.813 231.015L181.585 229.874L195.581 227.136L207.447 223.143L217.791 218.275L236.35 207.322L245.782 201.921L256.127 197.053L267.993 193.098L282.026 190.36L298.76 189.219L316.483 190.017L331.163 192.679L343.561 196.749L354.4 201.769L364.402 207.322L374.252 212.95L384.673 218.237L396.424 222.724L410.154 225.995" stroke="white" stroke-width="8" stroke-miterlimit="10" stroke-linejoin="round"/>
<path d="M-508 59.1163L-491.228 59.8389L-477.157 62.2349L-465.177 65.8859L-454.718 70.4877L-435.892 80.9844L-426.309 86.1567L-415.85 90.7585L-403.908 94.4475L-389.798 96.8054L-373.027 97.528L-356.293 96.3871L-342.259 93.6488L-330.393 89.6936L-320.049 84.8256L-301.49 73.8725L-292.058 68.4721L-281.713 63.6041L-269.847 59.6108L-255.852 56.8725L-239.08 55.7316L-222.308 56.4542L-208.237 58.8501L-196.257 62.5392L-185.798 67.141L-166.973 77.6376L-157.427 82.7719L-146.93 87.3737L-134.988 91.0627L-120.916 93.4587L-104.107 94.1813L-87.3728 93.0403L-73.3392 90.3021L-61.4734 86.3088L-51.1289 81.4408L-32.5696 70.4877L-23.1378 65.0873L-12.7932 60.2193L-0.927474 56.264L13.0681 53.5257L29.8399 52.3848L46.6118 53.1074L60.6834 55.4653L72.6633 59.1544L83.1219 63.7562L101.947 74.2528L111.531 79.4251L121.99 84.0269L133.97 87.6779L148.041 90.0739L164.813 90.7965L181.585 89.6556L195.581 86.9173L207.447 82.962L217.791 78.094L236.35 67.1029L245.782 61.7405L256.127 56.8725L267.993 52.8792L282.026 50.1409L298.76 49L316.483 49.8367L331.163 52.4989L343.561 56.5682L354.4 61.5884L364.402 67.141L374.252 72.7696L384.673 78.056L396.424 82.5437L410.154 85.7763" stroke="white" stroke-width="8" stroke-miterlimit="10" stroke-linejoin="round"/>
<path d="M-508 476.589L-491.228 477.312L-477.157 479.708L-465.177 483.359L-454.718 487.961L-435.892 498.457L-426.309 503.63L-415.85 508.231L-403.908 511.92L-389.798 514.278L-373.027 515.001L-356.293 513.86L-342.259 511.122L-330.393 507.166L-320.049 502.298L-301.49 491.345L-292.058 485.945L-281.713 481.077L-269.847 477.084L-255.852 474.345L-239.08 473.204L-222.308 473.927L-208.237 476.323L-196.257 480.012L-185.798 484.614L-166.973 495.111L-157.427 500.245L-146.93 504.847L-134.988 508.536L-120.916 510.932L-104.107 511.654L-87.3728 510.513L-73.3392 507.775L-61.4734 503.782L-51.1289 498.914L-32.5696 487.961L-23.1378 482.56L-12.7932 477.692L-0.927474 473.737L13.0681 470.999L29.8399 469.858L46.6118 470.58L60.6834 472.938L72.6633 476.627L83.1219 481.229L101.947 491.726L111.531 496.898L121.99 501.5L133.97 505.151L148.041 507.547L164.813 508.269L181.585 507.128L195.581 504.39L207.447 500.435L217.791 495.567L236.35 484.576L245.782 479.213L256.127 474.345L267.993 470.352L282.026 467.614L298.76 466.473L316.483 467.31L331.163 469.972L343.561 474.041L354.4 479.061L364.402 484.614L374.252 490.243L384.673 495.529L396.424 500.017L410.154 503.249" stroke="white" stroke-width="8" stroke-miterlimit="10" stroke-linejoin="round"/>
</g>
</g>
<defs>
<filter id="filter0_d_8_5" x="0" y="0" width="1104" height="1947" filterUnits="userSpaceOnUse" color-interpolation-filters="sRGB">
<feFlood flood-opacity="0" result="BackgroundImageFix"/>
<feColorMatrix in="SourceAlpha" type="matrix" values="0 0 0 0 0 0 0 0 0 0 0 0 0 0 0 0 0 0 127 0" result="hardAlpha"/>
<feOffset dx="15" dy="18"/>
<feGaussianBlur stdDeviation="4.5"/>
<feComposite in2="hardAlpha" operator="out"/>
<feColorMatrix type="matrix" values="0 0 0 0 0 0 0 0 0 0 0 0 0 0 0 0 0 0 0.25 0"/>
<feBlend mode="normal" in2="BackgroundImageFix" result="effect1_dropShadow_8_5"/>
<feBlend mode="normal" in="SourceGraphic" in2="effect1_dropShadow_8_5" result="shape"/>
</filter>
<clipPath id="clip0_8_5">
<rect width="1080" height="1920" rx="30" fill="white"/>
</clipPath>
</defs>
</svg>
