<svg width="666" height="514" viewBox="0 0 666 514" fill="none" xmlns="http://www.w3.org/2000/svg">
<path d="M-325 398.762L-306.924 399.541L-291.758 402.123L-278.846 406.058L-267.574 411.018L-247.285 422.33L-236.955 427.905L-225.683 432.865L-212.813 436.841L-197.606 439.382L-179.53 440.202L-161.494 438.931L-146.369 435.98L-133.581 431.717L-122.432 426.47L-102.429 414.666L-92.2637 408.845L-81.1146 403.598L-68.326 399.295L-53.242 396.343L-35.1658 395.114L-17.0896 395.893L-1.92359 398.475L10.988 402.451L22.26 407.41L42.5496 418.723L52.8379 424.257L64.1509 429.217L77.0215 433.193L92.1875 435.775L110.305 436.554L128.34 435.324L143.465 432.373L156.253 428.069L167.403 422.822L187.405 411.018L197.571 405.197L208.72 399.95L221.508 395.688L236.592 392.736L254.668 391.507L272.745 392.285L287.911 394.868L300.822 398.803L312.094 403.762L332.384 415.075L342.713 420.65L353.985 425.61L366.897 429.586L382.063 432.127L400.139 432.906L418.215 431.676L433.299 428.725L446.088 424.462L457.237 419.215L477.239 407.41L487.405 401.59L498.554 396.343L511.342 392.04L526.467 389.088L544.503 387.859L563.604 388.76L579.425 391.63L592.788 396.015L604.47 401.426L615.25 407.41L625.866 413.477L637.097 419.174L649.763 424.011L664.56 427.495" stroke="#D0D2CC" stroke-width="11.1205" stroke-miterlimit="10" stroke-linejoin="round"/>
<path d="M-325 91.0918L-306.924 91.8706L-291.758 94.4529L-278.846 98.3879L-267.574 103.348L-247.285 114.661L-236.955 120.235L-225.683 125.195L-212.813 129.13L-197.606 131.712L-179.53 132.491L-161.494 131.261L-146.369 128.31L-133.581 124.047L-122.432 118.8L-102.429 106.955L-92.2637 101.175L-81.1146 95.9285L-68.326 91.6247L-53.242 88.6735L-35.1658 87.4438L-17.0896 88.2226L-1.92359 90.8049L10.988 94.7808L22.26 99.7405L42.5496 111.054L52.8379 116.587L64.1509 121.547L77.0215 125.523L92.1875 128.105L110.305 128.884L128.34 127.654L143.465 124.703L156.253 120.399L167.403 115.152L187.405 103.348L197.571 97.5271L208.72 92.2805L221.508 88.0176L236.592 85.0664L254.668 83.8368L272.745 84.6155L287.911 87.1569L300.822 91.1328L312.094 96.0925L332.384 107.406L342.713 112.98L353.985 117.94L366.897 121.875L382.063 124.457L400.139 125.236L418.215 124.006L433.299 121.055L446.088 116.751L457.237 111.545L477.239 99.6995L487.405 93.8791L498.554 88.6735L511.342 84.3696L526.467 81.4184L544.503 80.1887L563.604 81.0905L579.425 83.9597L592.788 88.3456L604.47 93.7561L615.25 99.7405L625.866 105.807L637.097 111.504L649.763 116.341L664.56 119.825" stroke="#D0D2CC" stroke-width="11.1205" stroke-miterlimit="10" stroke-linejoin="round"/>
<path d="M-325 321.821L-306.924 322.6L-291.758 325.182L-278.846 329.158L-267.574 334.118L-247.285 345.431L-236.955 350.965L-225.683 355.924L-212.813 359.9L-197.606 362.483L-179.53 363.261L-161.494 362.032L-146.369 359.08L-133.581 354.777L-122.432 349.53L-102.429 337.725L-92.2637 331.905L-81.1146 326.658L-68.326 322.395L-53.242 319.444L-35.1658 318.214L-17.0896 318.993L-1.92359 321.575L10.988 325.51L22.26 330.47L42.5496 341.783L52.8379 347.358L64.1509 352.317L77.0215 356.293L92.1875 358.835L110.305 359.613L128.34 358.384L143.465 355.432L156.253 351.17L167.403 345.923L187.405 334.118L197.571 328.298L208.72 323.051L221.508 318.747L236.592 315.796L254.668 314.566L272.745 315.345L287.911 317.927L300.822 321.903L312.094 326.863L332.384 338.176L342.713 343.71L353.985 348.669L366.897 352.645L382.063 355.227L400.139 356.006L418.215 354.777L433.299 351.825L446.088 347.522L457.237 342.275L477.239 330.47L487.405 324.65L498.554 319.403L511.342 315.14L526.467 312.189L544.503 310.959L563.604 311.82L579.425 314.689L592.788 319.075L604.47 324.486L615.25 330.47L625.866 336.577L637.097 342.234L649.763 347.071L664.56 350.596" stroke="#D0D2CC" stroke-width="11.1205" stroke-miterlimit="10" stroke-linejoin="round"/>
<path d="M-325 244.924L-306.924 245.703L-291.758 248.285L-278.846 252.22L-267.574 257.18L-247.285 268.493L-236.955 274.067L-225.683 279.027L-212.813 283.003L-197.606 285.544L-179.53 286.323L-161.494 285.093L-146.369 282.142L-133.581 277.879L-122.432 272.633L-102.429 260.828L-92.2637 255.007L-81.1146 249.761L-68.326 245.457L-53.242 242.506L-35.1658 241.276L-17.0896 242.055L-1.92359 244.637L10.988 248.613L22.26 253.573L42.5496 264.886L52.8379 270.419L64.1509 275.379L77.0215 279.355L92.1875 281.937L110.305 282.716L128.34 281.486L143.465 278.535L156.253 274.231L167.403 268.984L187.405 257.18L197.571 251.359L208.72 246.113L221.508 241.85L236.592 238.898L254.668 237.669L272.745 238.448L287.911 240.989L300.822 244.965L312.094 249.925L332.384 261.238L342.713 266.812L353.985 271.772L366.897 275.707L382.063 278.289L400.139 279.068L418.215 277.838L433.299 274.887L446.088 270.624L457.237 265.377L477.239 253.532L487.405 247.752L498.554 242.506L511.342 238.202L526.467 235.25L544.503 234.021L563.604 234.923L579.425 237.792L592.788 242.178L604.47 247.588L615.25 253.573L625.866 259.639L637.097 265.336L649.763 270.173L664.56 273.657" stroke="#D0D2CC" stroke-width="11.1205" stroke-miterlimit="10" stroke-linejoin="round"/>
<path d="M-325 167.986L-306.924 168.764L-291.758 171.347L-278.846 175.323L-267.574 180.282L-247.285 191.595L-236.955 197.129L-225.683 202.089L-212.813 206.065L-197.606 208.647L-179.53 209.426L-161.494 208.196L-146.369 205.245L-133.581 200.941L-122.432 195.694L-102.429 183.889L-92.2637 178.069L-81.1146 172.822L-68.326 168.56L-53.242 165.608L-35.1658 164.379L-17.0896 165.157L-1.92359 167.699L10.988 171.675L22.26 176.634L42.5496 187.947L52.8379 193.522L64.1509 198.482L77.0215 202.417L92.1875 204.999L110.305 205.778L128.34 204.548L143.465 201.597L156.253 197.334L167.403 192.087L187.405 180.241L197.571 174.462L208.72 169.215L221.508 164.911L236.592 161.96L254.668 160.731L272.745 161.509L287.911 164.092L300.822 168.068L312.094 173.027L332.384 184.34L342.713 189.874L353.985 194.834L366.897 198.809L382.063 201.392L400.139 202.171L418.215 200.941L433.299 197.99L446.088 193.686L457.237 188.439L477.239 176.634L487.405 170.814L498.554 165.567L511.342 161.304L526.467 158.353L544.503 157.124L563.604 157.984L579.425 160.854L592.788 165.239L604.47 170.65L615.25 176.634L625.866 182.701L637.097 188.398L649.763 193.235L664.56 196.76" stroke="#D0D2CC" stroke-width="11.1205" stroke-miterlimit="10" stroke-linejoin="round"/>
<path d="M-325 16.9031L-306.924 17.6819L-291.758 20.2642L-278.846 24.1992L-267.574 29.1589L-247.285 40.4719L-236.955 46.0464L-225.683 51.0061L-212.813 54.982L-197.606 57.5233L-179.53 58.3021L-161.494 57.0725L-146.369 54.1212L-133.581 49.8584L-122.432 44.6118L-102.429 32.8069L-92.2637 26.9864L-81.1146 21.7398L-68.326 17.436L-53.242 14.4848L-35.1658 13.2551L-17.0896 14.0339L-1.92359 16.6162L10.988 20.5921L22.26 25.5518L42.5496 36.8648L52.8379 42.3983L64.1509 47.358L77.0215 51.334L92.1875 53.9163L110.305 54.6951L128.34 53.4654L143.465 50.5142L156.253 46.2103L167.403 40.9637L187.405 29.1589L197.571 23.3384L208.72 18.0918L221.508 13.8289L236.592 10.8777L254.668 9.64803L272.745 10.4268L287.911 12.9682L300.822 16.9441L312.094 21.9038L332.384 33.2168L342.713 38.7913L353.985 43.751L366.897 47.6859L382.063 50.2683L400.139 51.0471L418.215 49.8174L433.299 46.8662L446.088 42.6033L457.237 37.3567L477.239 25.5108L487.405 19.7314L498.554 14.4848L511.342 10.1809L526.467 7.22967L544.503 6L563.604 6.90176L579.425 9.771L592.788 14.1568L604.47 19.5674L615.25 25.5518L625.866 31.6182L637.097 37.3157L649.763 42.1524L664.56 45.6365" stroke="#D0D2CC" stroke-width="11.1205" stroke-miterlimit="10" stroke-linejoin="round"/>
<path d="M-325 466.843L-306.924 467.622L-291.758 470.204L-278.846 474.139L-267.574 479.099L-247.285 490.412L-236.955 495.986L-225.683 500.946L-212.813 504.922L-197.606 507.463L-179.53 508.242L-161.494 507.012L-146.369 504.061L-133.581 499.798L-122.432 494.551L-102.429 482.747L-92.2637 476.926L-81.1146 471.68L-68.326 467.376L-53.242 464.424L-35.1658 463.195L-17.0896 463.974L-1.92359 466.556L10.988 470.532L22.26 475.491L42.5496 486.805L52.8379 492.338L64.1509 497.298L77.0215 501.274L92.1875 503.856L110.305 504.635L128.34 503.405L143.465 500.454L156.253 496.15L167.403 490.903L187.405 479.099L197.571 473.278L208.72 468.031L221.508 463.769L236.592 460.817L254.668 459.588L272.745 460.367L287.911 462.908L300.822 466.884L312.094 471.843L332.384 483.156L342.713 488.731L353.985 493.691L366.897 497.626L382.063 500.208L400.139 500.987L418.215 499.757L433.299 496.806L446.088 492.543L457.237 487.296L477.239 475.451L487.405 469.671L498.554 464.424L511.342 460.121L526.467 457.169L544.503 455.94L563.604 456.841L579.425 459.711L592.788 464.097L604.47 469.507L615.25 475.491L625.866 481.558L637.097 487.255L649.763 492.092L664.56 495.576" stroke="#D0D2CC" stroke-width="11.1205" stroke-miterlimit="10" stroke-linejoin="round"/>
</svg>
