<svg width="1382" height="694" viewBox="0 0 1382 694" fill="none" xmlns="http://www.w3.org/2000/svg">
<circle cx="-4.5" cy="1185.5" r="1185.5" fill="#E50040"/>
<g style="mix-blend-mode:soft-light">
<path d="M1381.42 251.574L1367.13 250.958L1355.13 248.916L1344.92 245.805L1336.01 241.883L1319.97 232.937L1311.8 228.529L1302.88 224.607L1292.71 221.463L1280.68 219.453L1266.39 218.805L1252.13 219.81L1240.17 222.143L1230.05 225.514L1221.24 229.663L1205.42 238.998L1197.38 243.601L1188.56 247.749L1178.45 251.153L1166.52 253.487L1152.23 254.459L1137.94 253.843L1125.94 251.801L1115.73 248.657L1106.82 244.735L1090.78 235.789L1082.64 231.413L1073.69 227.491L1063.52 224.347L1051.52 222.305L1037.2 221.69L1022.94 222.662L1010.97 224.996L1000.86 228.399L992.046 232.548L976.228 241.883L968.19 246.485L959.374 250.634L949.261 254.005L937.333 256.339L923.039 257.311L908.745 256.695L896.752 254.653L886.542 251.542L877.628 247.62L861.584 238.674L853.416 234.266L844.503 230.344L834.292 227.2L822.3 225.19L808.006 224.574L793.712 225.547L781.784 227.88L771.671 231.251L762.855 235.4L747.037 244.735L738.999 249.338L730.183 253.487L720.07 256.89L708.109 259.224L693.848 260.196L678.743 259.483L666.232 257.214L655.665 253.746L646.428 249.467L637.903 244.735L629.508 239.938L620.627 235.433L610.612 231.608L598.911 228.853" stroke="white" stroke-width="10.4701" stroke-miterlimit="10" stroke-linejoin="round"/>
<path d="M1381.42 494.867L1367.13 494.251L1355.13 492.209L1344.92 489.097L1336.01 485.175L1319.97 476.229L1311.8 471.821L1302.88 467.899L1292.71 464.788L1280.68 462.746L1266.39 462.13L1252.13 463.102L1240.17 465.436L1230.05 468.807L1221.24 472.956L1205.42 482.323L1197.38 486.893L1188.56 491.042L1178.45 494.445L1166.52 496.779L1152.23 497.752L1137.94 497.136L1125.94 495.094L1115.73 491.95L1106.82 488.028L1090.78 479.082L1082.64 474.706L1073.69 470.784L1063.52 467.64L1051.52 465.598L1037.2 464.982L1022.94 465.955L1010.97 468.288L1000.86 471.692L992.046 475.841L976.228 485.175L968.19 489.778L959.374 493.927L949.261 497.298L937.333 499.632L923.039 500.604L908.745 499.988L896.752 497.978L886.542 494.834L877.628 490.912L861.584 481.967L853.416 477.558L844.503 473.636L834.292 470.525L822.3 468.483L808.006 467.867L793.712 468.839L781.784 471.173L771.671 474.576L762.855 478.693L747.037 488.06L738.999 492.663L730.183 496.779L720.07 500.183L708.109 502.516L693.848 503.489L678.743 502.776L666.232 500.507L655.665 497.039L646.428 492.76L637.903 488.028L629.508 483.231L620.627 478.725L610.612 474.901L598.911 472.145" stroke="white" stroke-width="10.4701" stroke-miterlimit="10" stroke-linejoin="round"/>
<path d="M1381.42 312.412L1367.13 311.797L1355.13 309.755L1344.92 306.611L1336.01 302.689L1319.97 293.743L1311.8 289.367L1302.88 285.445L1292.71 282.301L1280.68 280.259L1266.39 279.643L1252.13 280.615L1240.17 282.949L1230.05 286.353L1221.24 290.501L1205.42 299.836L1197.38 304.439L1188.56 308.588L1178.45 311.959L1166.52 314.292L1152.23 315.265L1137.94 314.649L1125.94 312.607L1115.73 309.495L1106.82 305.573L1090.78 296.627L1082.64 292.219L1073.69 288.297L1063.52 285.153L1051.52 283.144L1037.2 282.528L1022.94 283.5L1010.97 285.834L1000.86 289.205L992.046 293.354L976.228 302.689L968.19 307.291L959.374 311.44L949.261 314.843L937.333 317.177L923.039 318.15L908.745 317.534L896.752 315.492L886.542 312.348L877.628 308.426L861.584 299.48L853.416 295.104L844.503 291.182L834.292 288.038L822.3 285.996L808.006 285.38L793.712 286.353L781.784 288.686L771.671 292.09L762.855 296.238L747.037 305.573L738.999 310.176L730.183 314.325L720.07 317.696L708.109 320.029L693.848 321.002L678.743 320.321L666.232 318.052L655.665 314.584L646.428 310.306L637.903 305.573L629.508 300.744L620.627 296.271L610.612 292.446L598.911 289.659" stroke="white" stroke-width="10.4701" stroke-miterlimit="10" stroke-linejoin="round"/>
<path d="M1381.42 373.222L1367.13 372.606L1355.13 370.564L1344.92 367.453L1336.01 363.531L1319.97 354.585L1311.8 350.177L1302.88 346.255L1292.71 343.111L1280.68 341.101L1266.39 340.485L1252.13 341.458L1240.17 343.791L1230.05 347.162L1221.24 351.311L1205.42 360.646L1197.38 365.249L1188.56 369.398L1178.45 372.801L1166.52 375.135L1152.23 376.107L1137.94 375.491L1125.94 373.449L1115.73 370.305L1106.82 366.383L1090.78 357.437L1082.64 353.062L1073.69 349.14L1063.52 345.996L1051.52 343.954L1037.2 343.338L1022.94 344.31L1010.97 346.644L1000.86 350.047L992.046 354.196L976.228 363.531L968.19 368.133L959.374 372.282L949.261 375.653L937.333 377.987L923.039 378.959L908.745 378.344L896.752 376.334L886.542 373.19L877.628 369.268L861.584 360.322L853.416 355.914L844.503 351.992L834.292 348.88L822.3 346.838L808.006 346.222L793.712 347.195L781.784 349.529L771.671 352.899L762.855 357.048L747.037 366.416L738.999 370.986L730.183 375.135L720.07 378.538L708.109 380.872L693.848 381.844L678.743 381.131L666.232 378.862L655.665 375.394L646.428 371.115L637.903 366.383L629.508 361.586L620.627 357.081L610.612 353.256L598.911 350.501" stroke="white" stroke-width="10.4701" stroke-miterlimit="10" stroke-linejoin="round"/>
<path d="M1381.42 434.066L1367.13 433.451L1355.13 431.409L1344.92 428.265L1336.01 424.343L1319.97 415.397L1311.8 411.021L1302.88 407.099L1292.71 403.955L1280.68 401.913L1266.39 401.297L1252.13 402.269L1240.17 404.603L1230.05 408.007L1221.24 412.155L1205.42 421.49L1197.38 426.093L1188.56 430.242L1178.45 433.613L1166.52 435.946L1152.23 436.919L1137.94 436.303L1125.94 434.293L1115.73 431.149L1106.82 427.227L1090.78 418.281L1082.64 413.873L1073.69 409.951L1063.52 406.84L1051.52 404.798L1037.2 404.182L1022.94 405.154L1010.97 407.488L1000.86 410.859L992.046 415.008L976.228 424.375L968.19 428.945L959.374 433.094L949.261 436.497L937.333 438.831L923.039 439.803L908.745 439.188L896.752 437.146L886.542 434.002L877.628 430.08L861.584 421.134L853.416 416.758L844.503 412.836L834.292 409.692L822.3 407.65L808.006 407.034L793.712 408.007L781.784 410.34L771.671 413.744L762.855 417.892L747.037 427.227L738.999 431.83L730.183 435.979L720.07 439.35L708.109 441.683L693.848 442.656L678.743 441.975L666.232 439.706L655.665 436.238L646.428 431.96L637.903 427.227L629.508 422.43L620.627 417.925L610.612 414.1L598.911 411.313" stroke="white" stroke-width="10.4701" stroke-miterlimit="10" stroke-linejoin="round"/>
<path d="M1381.42 553.533L1367.13 552.917L1355.13 550.875L1344.92 547.763L1336.01 543.841L1319.97 534.895L1311.8 530.487L1302.88 526.565L1292.71 523.421L1280.68 521.411L1266.39 520.796L1252.13 521.768L1240.17 524.102L1230.05 527.473L1221.24 531.621L1205.42 540.956L1197.38 545.559L1188.56 549.708L1178.45 553.111L1166.52 555.445L1152.23 556.417L1137.94 555.801L1125.94 553.759L1115.73 550.615L1106.82 546.693L1090.78 537.748L1082.64 533.372L1073.69 529.45L1063.52 526.306L1051.52 524.264L1037.2 523.648L1022.94 524.62L1010.97 526.954L1000.86 530.357L992.046 534.506L976.228 543.841L968.19 548.444L959.374 552.593L949.261 555.964L937.333 558.297L923.039 559.27L908.745 558.654L896.752 556.644L886.542 553.5L877.628 549.578L861.584 540.632L853.416 536.224L844.503 532.302L834.292 529.191L822.3 527.149L808.006 526.533L793.712 527.505L781.784 529.839L771.671 533.21L762.855 537.359L747.037 546.726L738.999 551.296L730.183 555.445L720.07 558.848L708.109 561.182L693.848 562.154L678.743 561.441L666.232 559.172L655.665 555.704L646.428 551.426L637.903 546.693L629.508 541.896L620.627 537.391L610.612 533.566L598.911 530.811" stroke="white" stroke-width="10.4701" stroke-miterlimit="10" stroke-linejoin="round"/>
<path d="M1381.42 197.737L1367.13 197.121L1355.13 195.079L1344.92 191.967L1336.01 188.045L1319.97 179.1L1311.8 174.691L1302.88 170.769L1292.71 167.625L1280.68 165.616L1266.39 165L1252.13 165.972L1240.17 168.306L1230.05 171.677L1221.24 175.826L1205.42 185.161L1197.38 189.763L1188.56 193.912L1178.45 197.316L1166.52 199.649L1152.23 200.622L1137.94 200.006L1125.94 197.964L1115.73 194.82L1106.82 190.898L1090.78 181.952L1082.64 177.576L1073.69 173.654L1063.52 170.51L1051.52 168.468L1037.2 167.852L1022.94 168.825L1010.97 171.158L1000.86 174.562L992.046 178.711L976.228 188.045L968.19 192.648L959.374 196.797L949.261 200.168L937.333 202.502L923.039 203.474L908.745 202.858L896.752 200.849L886.542 197.705L877.628 193.783L861.584 184.837L853.416 180.428L844.503 176.507L834.292 173.395L822.3 171.353L808.006 170.737L793.712 171.709L781.784 174.043L771.671 177.414L762.855 181.563L747.037 190.93L738.999 195.5L730.183 199.649L720.07 203.053L708.109 205.386L693.848 206.359L678.743 205.646L666.232 203.377L655.665 199.909L646.428 195.63L637.903 190.898L629.508 186.101L620.627 181.595L610.612 177.771L598.911 175.016" stroke="white" stroke-width="10.4701" stroke-miterlimit="10" stroke-linejoin="round"/>
<path d="M922.614 257.485L908.32 256.869L896.327 254.827L886.117 251.715L877.204 247.793L861.16 238.847L852.992 234.439L844.078 230.517L833.9 227.373L821.875 225.364L807.581 224.715L793.32 225.72L781.359 228.054L771.246 231.425L762.43 235.574L746.613 244.909L738.574 249.511L729.758 253.66L719.645 257.063L707.717 259.397L693.423 260.37L679.129 259.754L667.136 257.712L656.926 254.568L648.013 250.646L631.968 241.7L623.833 237.324L614.887 233.402L604.709 230.258L592.717 228.216L578.39 227.6L564.128 228.573L552.168 230.906L542.055 234.31L533.239 238.459L517.422 247.793L509.383 252.396L500.567 256.545L490.454 259.916L478.526 262.25L464.232 263.222L449.938 262.606L437.945 260.564L427.735 257.452L418.822 253.53L402.777 244.585L394.609 240.176L385.696 236.254L375.486 233.11L363.493 231.101L349.199 230.485L334.905 231.457L322.977 233.791L312.864 237.162L304.048 241.311L288.231 250.646L280.192 255.248L271.376 259.397L261.263 262.801L249.303 265.134L235.041 266.107L219.937 265.394L207.425 263.125L196.859 259.656L187.621 255.378L179.097 250.646L170.702 245.849L161.821 241.343L151.805 237.519L140.104 234.763" stroke="white" stroke-width="10.4701" stroke-miterlimit="10" stroke-linejoin="round"/>
<path d="M922.614 500.779L908.32 500.163L896.327 498.121L886.117 495.009L877.204 491.087L861.16 482.141L852.992 477.733L844.078 473.811L833.9 470.7L821.875 468.658L807.581 468.042L793.32 469.014L781.359 471.348L771.246 474.719L762.43 478.868L746.613 488.235L738.574 492.805L729.758 496.954L719.645 500.357L707.717 502.691L693.423 503.663L679.129 503.048L667.136 501.006L656.926 497.862L648.013 493.94L631.968 484.994L623.833 480.618L614.887 476.696L604.709 473.552L592.717 471.51L578.39 470.894L564.128 471.866L552.168 474.2L542.055 477.604L533.239 481.752L517.422 491.087L509.383 495.69L500.567 499.839L490.454 503.21L478.526 505.543L464.232 506.516L449.938 505.9L437.945 503.89L427.735 500.746L418.822 496.824L402.777 487.878L394.609 483.47L385.696 479.548L375.486 476.437L363.493 474.395L349.199 473.779L334.905 474.751L322.977 477.085L312.864 480.488L304.048 484.605L288.231 493.972L280.192 498.575L271.376 502.691L261.263 506.094L249.303 508.428L235.041 509.401L219.937 508.687L207.425 506.419L196.859 502.95L187.621 498.672L179.097 493.94L170.702 489.142L161.821 484.637L151.805 480.812L140.104 478.057" stroke="white" stroke-width="10.4701" stroke-miterlimit="10" stroke-linejoin="round"/>
<path d="M922.614 318.327L908.32 317.711L896.327 315.669L886.117 312.525L877.204 308.603L861.16 299.657L852.992 295.281L844.078 291.359L833.9 288.215L821.875 286.173L807.581 285.557L793.32 286.53L781.359 288.863L771.246 292.267L762.43 296.416L746.613 305.75L738.574 310.353L729.758 314.502L719.645 317.873L707.717 320.207L693.423 321.179L679.129 320.563L667.136 318.521L656.926 315.409L648.013 311.488L631.968 302.542L623.833 298.133L614.887 294.211L604.709 291.067L592.717 289.058L578.39 288.442L564.128 289.414L552.168 291.748L542.055 295.119L533.239 299.268L517.422 308.603L509.383 313.205L500.567 317.354L490.454 320.758L478.526 323.091L464.232 324.064L449.938 323.448L437.945 321.406L427.735 318.262L418.822 314.34L402.777 305.394L394.609 301.018L385.696 297.096L375.486 293.952L363.493 291.91L349.199 291.294L334.905 292.267L322.977 294.6L312.864 298.004L304.048 302.153L288.231 311.488L280.192 316.09L271.376 320.239L261.263 323.61L249.303 325.944L235.041 326.916L219.937 326.235L207.425 323.966L196.859 320.498L187.621 316.22L179.097 311.488L170.702 306.658L161.821 302.185L151.805 298.36L140.104 295.573" stroke="white" stroke-width="10.4701" stroke-miterlimit="10" stroke-linejoin="round"/>
<path d="M922.614 379.136L908.32 378.521L896.327 376.479L886.117 373.367L877.204 369.445L861.16 360.499L852.992 356.091L844.078 352.169L833.9 349.025L821.875 347.015L807.581 346.4L793.32 347.372L781.359 349.706L771.246 353.077L762.43 357.225L746.613 366.56L738.574 371.163L729.758 375.312L719.645 378.715L707.717 381.049L693.423 382.021L679.129 381.405L667.136 379.363L656.926 376.219L648.013 372.297L631.968 363.351L623.833 358.976L614.887 355.054L604.709 351.91L592.717 349.868L578.39 349.252L564.128 350.224L552.168 352.558L542.055 355.961L533.239 360.11L517.422 369.445L509.383 374.048L500.567 378.196L490.454 381.567L478.526 383.901L464.232 384.874L449.938 384.258L437.945 382.248L427.735 379.104L418.822 375.182L402.777 366.236L394.609 361.828L385.696 357.906L375.486 354.794L363.493 352.752L349.199 352.137L334.905 353.109L322.977 355.443L312.864 358.814L304.048 362.962L288.231 372.33L280.192 376.9L271.376 381.049L261.263 384.452L249.303 386.786L235.041 387.758L219.937 387.045L207.425 384.776L196.859 381.308L187.621 377.03L179.097 372.297L170.702 367.5L161.821 362.995L151.805 359.17L140.104 356.415" stroke="white" stroke-width="10.4701" stroke-miterlimit="10" stroke-linejoin="round"/>
<path d="M922.614 439.981L908.32 439.365L896.327 437.323L886.117 434.179L877.204 430.257L861.16 421.311L852.992 416.935L844.078 413.013L833.9 409.869L821.875 407.827L807.581 407.211L793.32 408.184L781.359 410.517L771.246 413.921L762.43 418.07L746.613 427.404L738.574 432.007L729.758 436.156L719.645 439.527L707.717 441.861L693.423 442.833L679.129 442.217L667.136 440.208L656.926 437.063L648.013 433.142L631.968 424.196L623.833 419.787L614.887 415.865L604.709 412.754L592.717 410.712L578.39 410.096L564.128 411.068L552.168 413.402L542.055 416.773L533.239 420.922L517.422 430.289L509.383 434.859L500.567 439.008L490.454 442.412L478.526 444.745L464.232 445.718L449.938 445.102L437.945 443.06L427.735 439.916L418.822 435.994L402.777 427.048L394.609 422.672L385.696 418.75L375.486 415.606L363.493 413.564L349.199 412.948L334.905 413.921L322.977 416.254L312.864 419.658L304.048 423.807L288.231 433.142L280.192 437.744L271.376 441.893L261.263 445.264L249.303 447.598L235.041 448.57L219.937 447.889L207.425 445.62L196.859 442.152L187.621 437.874L179.097 433.142L170.702 428.344L161.821 423.839L151.805 420.014L140.104 417.227" stroke="white" stroke-width="10.4701" stroke-miterlimit="10" stroke-linejoin="round"/>
<path d="M922.614 559.447L908.32 558.831L896.327 556.789L886.117 553.677L877.204 549.755L861.16 540.81L852.992 536.401L844.078 532.479L833.9 529.335L821.875 527.326L807.581 526.71L793.32 527.682L781.359 530.016L771.246 533.387L762.43 537.536L746.613 546.871L738.574 551.473L729.758 555.622L719.645 559.026L707.717 561.359L693.423 562.332L679.129 561.716L667.136 559.674L656.926 556.53L648.013 552.608L631.968 543.662L623.833 539.286L614.887 535.364L604.709 532.22L592.717 530.178L578.39 529.562L564.128 530.535L552.168 532.868L542.055 536.272L533.239 540.421L517.422 549.755L509.383 554.358L500.567 558.507L490.454 561.878L478.526 564.212L464.232 565.184L449.938 564.568L437.945 562.559L427.735 559.415L418.822 555.493L402.777 546.547L394.609 542.138L385.696 538.217L375.486 535.105L363.493 533.063L349.199 532.447L334.905 533.419L322.977 535.753L312.864 539.124L304.048 543.273L288.231 552.64L280.192 557.21L271.376 561.359L261.263 564.763L249.303 567.096L235.041 568.069L219.937 567.356L207.425 565.087L196.859 561.619L187.621 557.34L179.097 552.608L170.702 547.811L161.821 543.305L151.805 539.481L140.104 536.726" stroke="white" stroke-width="10.4701" stroke-miterlimit="10" stroke-linejoin="round"/>
<path d="M922.614 203.648L908.32 203.032L896.327 200.99L886.117 197.878L877.204 193.956L861.16 185.01L852.992 180.602L844.078 176.68L833.9 173.536L821.875 171.526L807.581 170.911L793.32 171.883L781.359 174.217L771.246 177.588L762.43 181.737L746.613 191.071L738.574 195.674L729.758 199.823L719.645 203.226L707.717 205.56L693.423 206.532L679.129 205.916L667.136 203.874L656.926 200.73L648.013 196.808L631.968 187.863L623.833 183.487L614.887 179.565L604.709 176.421L592.717 174.379L578.39 173.763L564.128 174.735L552.168 177.069L542.055 180.472L533.239 184.621L517.422 193.956L509.383 198.559L500.567 202.708L490.454 206.079L478.526 208.412L464.232 209.385L449.938 208.769L437.945 206.759L427.735 203.615L418.822 199.693L402.777 190.747L394.609 186.339L385.696 182.417L375.486 179.306L363.493 177.264L349.199 176.648L334.905 177.62L322.977 179.954L312.864 183.325L304.048 187.474L288.231 196.841L280.192 201.411L271.376 205.56L261.263 208.963L249.303 211.297L235.041 212.269L219.937 211.556L207.425 209.287L196.859 205.819L187.621 201.541L179.097 196.808L170.702 192.011L161.821 187.506L151.805 183.681L140.104 180.926" stroke="white" stroke-width="10.4701" stroke-miterlimit="10" stroke-linejoin="round"/>
<path d="M462.371 263.678L448.077 263.062L436.084 261.02L425.874 257.908L416.961 253.986L400.916 245.04L392.748 240.632L383.835 236.71L373.657 233.566L361.632 231.557L347.338 230.908L333.076 231.913L321.116 234.247L311.003 237.618L302.187 241.767L286.369 251.101L278.331 255.704L269.515 259.853L259.402 263.256L247.474 265.59L233.18 266.562L218.886 265.947L206.893 263.905L196.683 260.761L187.77 256.839L171.725 247.893L163.59 243.517L154.644 239.595L144.466 236.451L132.473 234.409L118.147 233.793L103.885 234.765L91.925 237.099L81.8122 240.503L72.9959 244.651L57.1784 253.986L49.14 258.589L40.3237 262.738L30.211 266.109L18.283 268.442L3.98899 269.415L-10.3051 268.799L-22.2978 266.757L-32.5079 263.645L-41.4214 259.723L-57.4657 250.777L-65.6338 246.369L-74.5473 242.447L-84.7573 239.303L-96.7501 237.294L-111.044 236.678L-125.338 237.65L-137.266 239.984L-147.379 243.355L-156.195 247.504L-172.013 256.839L-180.051 261.441L-188.867 265.59L-198.98 268.993L-210.94 271.327L-225.202 272.299L-240.306 271.586L-252.818 269.318L-263.384 265.849L-272.622 261.571L-281.147 256.839L-289.542 252.041L-298.423 247.536L-308.438 243.711L-320.139 240.956" stroke="white" stroke-width="10.4701" stroke-miterlimit="10" stroke-linejoin="round"/>
<path d="M462.371 506.972L448.077 506.356L436.084 504.314L425.874 501.202L416.961 497.28L400.916 488.334L392.748 483.926L383.835 480.004L373.657 476.892L361.632 474.85L347.338 474.235L333.076 475.207L321.116 477.541L311.003 480.912L302.187 485.06L286.369 494.428L278.331 498.998L269.515 503.147L259.402 506.55L247.474 508.884L233.18 509.856L218.886 509.24L206.893 507.198L196.683 504.054L187.77 500.132L171.725 491.186L163.59 486.811L154.644 482.889L144.466 479.745L132.473 477.703L118.147 477.087L103.885 478.059L91.925 480.393L81.8122 483.796L72.9959 487.945L57.1784 497.28L49.14 501.883L40.3237 506.032L30.211 509.402L18.283 511.736L3.98899 512.709L-10.3051 512.093L-22.2978 510.083L-32.5079 506.939L-41.4214 503.017L-57.4657 494.071L-65.6338 489.663L-74.5473 485.741L-84.7573 482.629L-96.7501 480.587L-111.044 479.972L-125.338 480.944L-137.266 483.278L-147.379 486.681L-156.195 490.798L-172.013 500.165L-180.051 504.767L-188.867 508.884L-198.98 512.287L-210.94 514.621L-225.202 515.593L-240.306 514.88L-252.818 512.611L-263.384 509.143L-272.622 504.865L-281.147 500.132L-289.542 495.335L-298.423 490.83L-308.438 487.005L-320.139 484.25" stroke="white" stroke-width="10.4701" stroke-miterlimit="10" stroke-linejoin="round"/>
<path d="M462.371 324.518L448.077 323.902L436.084 321.86L425.874 318.716L416.961 314.794L400.916 305.848L392.748 301.473L383.835 297.551L373.657 294.407L361.632 292.365L347.338 291.749L333.076 292.721L321.116 295.055L311.003 298.458L302.187 302.607L286.369 311.942L278.331 316.545L269.515 320.694L259.402 324.065L247.474 326.398L233.18 327.371L218.886 326.755L206.893 324.713L196.683 321.601L187.77 317.679L171.725 308.733L163.59 304.325L154.644 300.403L144.466 297.259L132.473 295.25L118.147 294.634L103.885 295.606L91.925 297.94L81.8122 301.311L72.9959 305.46L57.1784 314.794L49.14 319.397L40.3237 323.546L30.211 326.949L18.283 329.283L3.98899 330.255L-10.3051 329.64L-22.2978 327.597L-32.5079 324.453L-41.4214 320.532L-57.4657 311.586L-65.6338 307.21L-74.5473 303.288L-84.7573 300.144L-96.7501 298.102L-111.044 297.486L-125.338 298.458L-137.266 300.792L-147.379 304.195L-156.195 308.344L-172.013 317.679L-180.051 322.282L-188.867 326.431L-198.98 329.802L-210.94 332.135L-225.202 333.108L-240.306 332.427L-252.818 330.158L-263.384 326.69L-272.622 322.411L-281.147 317.679L-289.542 312.85L-298.423 308.377L-308.438 304.552L-320.139 301.764" stroke="white" stroke-width="10.4701" stroke-miterlimit="10" stroke-linejoin="round"/>
<path d="M462.371 385.329L448.077 384.713L436.084 382.671L425.874 379.56L416.961 375.638L400.916 366.692L392.748 362.284L383.835 358.362L373.657 355.218L361.632 353.208L347.338 352.592L333.076 353.565L321.116 355.898L311.003 359.269L302.187 363.418L286.369 372.753L278.331 377.356L269.515 381.505L259.402 384.908L247.474 387.242L233.18 388.214L218.886 387.598L206.893 385.556L196.683 382.412L187.77 378.49L171.725 369.544L163.59 365.169L154.644 361.247L144.466 358.103L132.473 356.061L118.147 355.445L103.885 356.417L91.925 358.751L81.8122 362.154L72.9959 366.303L57.1784 375.638L49.14 380.24L40.3237 384.389L30.211 387.76L18.283 390.094L3.98899 391.066L-10.3051 390.451L-22.2978 388.441L-32.5079 385.297L-41.4214 381.375L-57.4657 372.429L-65.6338 368.021L-74.5473 364.099L-84.7573 360.987L-96.7501 358.945L-111.044 358.329L-125.338 359.302L-137.266 361.636L-147.379 365.006L-156.195 369.155L-172.013 378.523L-180.051 383.093L-188.867 387.242L-198.98 390.645L-210.94 392.979L-225.202 393.951L-240.306 393.238L-252.818 390.969L-263.384 387.501L-272.622 383.222L-281.147 378.49L-289.542 373.693L-298.423 369.188L-308.438 365.363L-320.139 362.608" stroke="white" stroke-width="10.4701" stroke-miterlimit="10" stroke-linejoin="round"/>
<path d="M462.371 446.171L448.077 445.555L436.084 443.513L425.874 440.369L416.961 436.447L400.916 427.501L392.748 423.126L383.835 419.204L373.657 416.06L361.632 414.018L347.338 413.402L333.076 414.374L321.116 416.708L311.003 420.111L302.187 424.26L286.369 433.595L278.331 438.198L269.515 442.346L259.402 445.717L247.474 448.051L233.18 449.023L218.886 448.408L206.893 446.398L196.683 443.254L187.77 439.332L171.725 430.386L163.59 425.978L154.644 422.056L144.466 418.944L132.473 416.902L118.147 416.286L103.885 417.259L91.925 419.593L81.8122 422.963L72.9959 427.112L57.1784 436.48L49.14 441.05L40.3237 445.199L30.211 448.602L18.283 450.936L3.98899 451.908L-10.3051 451.292L-22.2978 449.25L-32.5079 446.106L-41.4214 442.184L-57.4657 433.238L-65.6338 428.863L-74.5473 424.941L-84.7573 421.797L-96.7501 419.755L-111.044 419.139L-125.338 420.111L-137.266 422.445L-147.379 425.848L-156.195 429.997L-172.013 439.332L-180.051 443.935L-188.867 448.083L-198.98 451.454L-210.94 453.788L-225.202 454.76L-240.306 454.08L-252.818 451.811L-263.384 448.343L-272.622 444.064L-281.147 439.332L-289.542 434.535L-298.423 430.029L-308.438 426.205L-320.139 423.417" stroke="white" stroke-width="10.4701" stroke-miterlimit="10" stroke-linejoin="round"/>
<path d="M462.371 565.64L448.077 565.024L436.084 562.982L425.874 559.87L416.961 555.948L400.916 547.002L392.748 542.594L383.835 538.672L373.657 535.528L361.632 533.518L347.338 532.903L333.076 533.875L321.116 536.209L311.003 539.58L302.187 543.728L286.369 553.063L278.331 557.666L269.515 561.815L259.402 565.218L247.474 567.552L233.18 568.524L218.886 567.908L206.893 565.866L196.683 562.722L187.77 558.8L171.725 549.854L163.59 545.479L154.644 541.557L144.466 538.413L132.473 536.371L118.147 535.755L103.885 536.727L91.925 539.061L81.8122 542.464L72.9959 546.613L57.1784 555.948L49.14 560.551L40.3237 564.7L30.211 568.071L18.283 570.404L3.98899 571.377L-10.3051 570.761L-22.2978 568.751L-32.5079 565.607L-41.4214 561.685L-57.4657 552.739L-65.6338 548.331L-74.5473 544.409L-84.7573 541.298L-96.7501 539.256L-111.044 538.64L-125.338 539.612L-137.266 541.946L-147.379 545.317L-156.195 549.466L-172.013 558.833L-180.051 563.403L-188.867 567.552L-198.98 570.955L-210.94 573.289L-225.202 574.261L-240.306 573.548L-252.818 571.279L-263.384 567.811L-272.622 563.533L-281.147 558.8L-289.542 554.003L-298.423 549.498L-308.438 545.673L-320.139 542.918" stroke="white" stroke-width="10.4701" stroke-miterlimit="10" stroke-linejoin="round"/>
<path d="M462.371 209.84L448.077 209.225L436.084 207.183L425.874 204.071L416.961 200.149L400.916 191.203L392.748 186.795L383.835 182.873L373.657 179.729L361.632 177.719L347.338 177.103L333.076 178.076L321.116 180.41L311.003 183.78L302.187 187.929L286.369 197.264L278.331 201.867L269.515 206.016L259.402 209.419L247.474 211.753L233.18 212.725L218.886 212.109L206.893 210.067L196.683 206.923L187.77 203.001L171.725 194.055L163.59 189.68L154.644 185.758L144.466 182.614L132.473 180.572L118.147 179.956L103.885 180.928L91.925 183.262L81.8122 186.665L72.9959 190.814L57.1784 200.149L49.14 204.752L40.3237 208.9L30.211 212.271L18.283 214.605L3.98899 215.577L-10.3051 214.962L-22.2978 212.952L-32.5079 209.808L-41.4214 205.886L-57.4657 196.94L-65.6338 192.532L-74.5473 188.61L-84.7573 185.498L-96.7501 183.456L-111.044 182.841L-125.338 183.813L-137.266 186.147L-147.379 189.518L-156.195 193.666L-172.013 203.034L-180.051 207.604L-188.867 211.753L-198.98 215.156L-210.94 217.49L-225.202 218.462L-240.306 217.749L-252.818 215.48L-263.384 212.012L-272.622 207.734L-281.147 203.001L-289.542 198.204L-298.423 193.699L-308.438 189.874L-320.139 187.119" stroke="white" stroke-width="10.4701" stroke-miterlimit="10" stroke-linejoin="round"/>
<path d="M3.51074 269.589L-10.7833 268.973L-22.7761 266.931L-32.9861 263.819L-41.8996 259.897L-57.944 250.951L-66.112 246.543L-75.0255 242.621L-85.2031 239.477L-97.2283 237.467L-111.522 236.819L-125.784 237.824L-137.744 240.158L-147.857 243.529L-156.673 247.677L-172.491 257.012L-180.529 261.615L-189.346 265.764L-199.458 269.167L-211.386 271.501L-225.68 272.473L-239.974 271.857L-251.967 269.815L-262.177 266.671L-271.091 262.749L-287.135 253.803L-295.271 249.428L-304.217 245.506L-314.394 242.362L-326.387 240.32L-340.713 239.704L-354.975 240.676L-366.935 243.01L-377.048 246.413L-385.864 250.562L-401.682 259.897L-409.72 264.5L-418.537 268.649L-428.649 272.02L-440.577 274.353L-454.871 275.326L-469.165 274.71L-481.158 272.668L-491.368 269.556L-500.282 265.634L-516.326 256.688L-524.494 252.28L-533.408 248.358L-543.618 245.214L-555.61 243.205L-569.904 242.589L-584.199 243.561L-596.126 245.895L-606.239 249.266L-615.056 253.415L-630.873 262.749L-638.911 267.352L-647.728 271.501L-657.84 274.904L-669.801 277.238L-684.062 278.21L-699.167 277.497L-711.678 275.228L-722.245 271.76L-731.482 267.482L-740.007 262.749L-748.402 257.952L-757.283 253.447L-767.299 249.622L-779 246.867" stroke="white" stroke-width="10.4701" stroke-miterlimit="10" stroke-linejoin="round"/>
<path d="M3.51074 512.88L-10.7833 512.264L-22.7761 510.222L-32.9861 507.111L-41.8996 503.189L-57.944 494.243L-66.112 489.834L-75.0255 485.913L-85.2031 482.801L-97.2283 480.759L-111.522 480.143L-125.784 481.115L-137.744 483.449L-147.857 486.82L-156.673 490.969L-172.491 500.336L-180.529 504.906L-189.346 509.055L-199.458 512.459L-211.386 514.792L-225.68 515.765L-239.974 515.149L-251.967 513.107L-262.177 509.963L-271.091 506.041L-287.135 497.095L-295.271 492.719L-304.217 488.797L-314.394 485.653L-326.387 483.611L-340.713 482.995L-354.975 483.968L-366.935 486.302L-377.048 489.705L-385.864 493.854L-401.682 503.189L-409.72 507.791L-418.537 511.94L-428.649 515.311L-440.577 517.645L-454.871 518.617L-469.165 518.001L-481.158 515.992L-491.368 512.848L-500.282 508.926L-516.326 499.98L-524.494 495.572L-533.408 491.65L-543.618 488.538L-555.61 486.496L-569.904 485.88L-584.199 486.853L-596.126 489.186L-606.239 492.59L-615.056 496.706L-630.873 506.073L-638.911 510.676L-647.728 514.792L-657.84 518.196L-669.801 520.529L-684.062 521.502L-699.167 520.789L-711.678 518.52L-722.245 515.052L-731.482 510.773L-740.007 506.041L-748.402 501.244L-757.283 496.738L-767.299 492.914L-779 490.159" stroke="white" stroke-width="10.4701" stroke-miterlimit="10" stroke-linejoin="round"/>
<path d="M3.51074 330.427L-10.7833 329.811L-22.7761 327.769L-32.9861 324.625L-41.8996 320.703L-57.944 311.757L-66.112 307.381L-75.0255 303.459L-85.2031 300.315L-97.2283 298.273L-111.522 297.657L-125.784 298.63L-137.744 300.964L-147.857 304.367L-156.673 308.516L-172.491 317.851L-180.529 322.453L-189.346 326.602L-199.458 329.973L-211.386 332.307L-225.68 333.279L-239.974 332.663L-251.967 330.621L-262.177 327.51L-271.091 323.588L-287.135 314.642L-295.271 310.234L-304.217 306.312L-314.394 303.168L-326.387 301.158L-340.713 300.542L-354.975 301.515L-366.935 303.848L-377.048 307.219L-385.864 311.368L-401.682 320.703L-409.72 325.306L-418.537 329.454L-428.649 332.858L-440.577 335.191L-454.871 336.164L-469.165 335.548L-481.158 333.506L-491.368 330.362L-500.282 326.44L-516.326 317.494L-524.494 313.118L-533.408 309.196L-543.618 306.052L-555.61 304.01L-569.904 303.395L-584.199 304.367L-596.126 306.701L-606.239 310.104L-615.056 314.253L-630.873 323.588L-638.911 328.19L-647.728 332.339L-657.84 335.71L-669.801 338.044L-684.062 339.016L-699.167 338.336L-711.678 336.067L-722.245 332.598L-731.482 328.32L-740.007 323.588L-748.402 318.758L-757.283 314.285L-767.299 310.461L-779 307.673" stroke="white" stroke-width="10.4701" stroke-miterlimit="10" stroke-linejoin="round"/>
<path d="M3.51074 391.238L-10.7833 390.622L-22.7761 388.58L-32.9861 385.468L-41.8996 381.546L-57.944 372.6L-66.112 368.192L-75.0255 364.27L-85.2031 361.126L-97.2283 359.117L-111.522 358.501L-125.784 359.473L-137.744 361.807L-147.857 365.178L-156.673 369.327L-172.491 378.662L-180.529 383.264L-189.346 387.413L-199.458 390.816L-211.386 393.15L-225.68 394.123L-239.974 393.507L-251.967 391.465L-262.177 388.321L-271.091 384.399L-287.135 375.453L-295.271 371.077L-304.217 367.155L-314.394 364.011L-326.387 361.969L-340.713 361.353L-354.975 362.326L-366.935 364.659L-377.048 368.063L-385.864 372.211L-401.682 381.546L-409.72 386.149L-418.537 390.298L-428.649 393.669L-440.577 396.002L-454.871 396.975L-469.165 396.359L-481.158 394.349L-491.368 391.205L-500.282 387.283L-516.326 378.337L-524.494 373.929L-533.408 370.007L-543.618 366.896L-555.61 364.854L-569.904 364.238L-584.199 365.21L-596.126 367.544L-606.239 370.915L-615.056 375.064L-630.873 384.431L-638.911 389.001L-647.728 393.15L-657.84 396.554L-669.801 398.887L-684.062 399.86L-699.167 399.147L-711.678 396.878L-722.245 393.409L-731.482 389.131L-740.007 384.399L-748.402 379.602L-757.283 375.096L-767.299 371.271L-779 368.516" stroke="white" stroke-width="10.4701" stroke-miterlimit="10" stroke-linejoin="round"/>
<path d="M3.51074 452.082L-10.7833 451.466L-22.7761 449.424L-32.9861 446.28L-41.8996 442.358L-57.944 433.412L-66.112 429.036L-75.0255 425.114L-85.2031 421.97L-97.2283 419.928L-111.522 419.313L-125.784 420.285L-137.744 422.619L-147.857 426.022L-156.673 430.171L-172.491 439.506L-180.529 444.108L-189.346 448.257L-199.458 451.628L-211.386 453.962L-225.68 454.934L-239.974 454.318L-251.967 452.309L-262.177 449.165L-271.091 445.243L-287.135 436.297L-295.271 431.889L-304.217 427.967L-314.394 424.855L-326.387 422.813L-340.713 422.197L-354.975 423.17L-366.935 425.503L-377.048 428.874L-385.864 433.023L-401.682 442.39L-409.72 446.961L-418.537 451.11L-428.649 454.513L-440.577 456.847L-454.871 457.819L-469.165 457.203L-481.158 455.161L-491.368 452.017L-500.282 448.095L-516.326 439.149L-524.494 434.773L-533.408 430.852L-543.618 427.707L-555.61 425.665L-569.904 425.05L-584.199 426.022L-596.126 428.356L-606.239 431.759L-615.056 435.908L-630.873 445.243L-638.911 449.845L-647.728 453.994L-657.84 457.365L-669.801 459.699L-684.062 460.671L-699.167 459.991L-711.678 457.722L-722.245 454.254L-731.482 449.975L-740.007 445.243L-748.402 440.446L-757.283 435.94L-767.299 432.116L-779 429.328" stroke="white" stroke-width="10.4701" stroke-miterlimit="10" stroke-linejoin="round"/>
<path d="M3.51074 571.548L-10.7833 570.932L-22.7761 568.89L-32.9861 565.779L-41.8996 561.857L-57.944 552.911L-66.112 548.503L-75.0255 544.581L-85.2031 541.437L-97.2283 539.427L-111.522 538.811L-125.784 539.783L-137.744 542.117L-147.857 545.488L-156.673 549.637L-172.491 558.972L-180.529 563.574L-189.346 567.723L-199.458 571.127L-211.386 573.46L-225.68 574.433L-239.974 573.817L-251.967 571.775L-262.177 568.631L-271.091 564.709L-287.135 555.763L-295.271 551.387L-304.217 547.465L-314.394 544.321L-326.387 542.279L-340.713 541.663L-354.975 542.636L-366.935 544.97L-377.048 548.373L-385.864 552.522L-401.682 561.857L-409.72 566.459L-418.537 570.608L-428.649 573.979L-440.577 576.313L-454.871 577.285L-469.165 576.669L-481.158 574.66L-491.368 571.516L-500.282 567.594L-516.326 558.648L-524.494 554.24L-533.408 550.318L-543.618 547.206L-555.61 545.164L-569.904 544.548L-584.199 545.521L-596.126 547.854L-606.239 551.225L-615.056 555.374L-630.873 564.741L-638.911 569.312L-647.728 573.46L-657.84 576.864L-669.801 579.197L-684.062 580.17L-699.167 579.457L-711.678 577.188L-722.245 573.72L-731.482 569.441L-740.007 564.709L-748.402 559.912L-757.283 555.406L-767.299 551.582L-779 548.827" stroke="white" stroke-width="10.4701" stroke-miterlimit="10" stroke-linejoin="round"/>
<path d="M3.51074 215.751L-10.7833 215.135L-22.7761 213.093L-32.9861 209.982L-41.8996 206.06L-57.944 197.114L-66.112 192.706L-75.0255 188.784L-85.2031 185.64L-97.2283 183.63L-111.522 183.014L-125.784 183.987L-137.744 186.32L-147.857 189.691L-156.673 193.84L-172.491 203.175L-180.529 207.778L-189.346 211.927L-199.458 215.33L-211.386 217.664L-225.68 218.636L-239.974 218.02L-251.967 215.978L-262.177 212.834L-271.091 208.912L-287.135 199.966L-295.271 195.59L-304.217 191.669L-314.394 188.524L-326.387 186.483L-340.713 185.867L-354.975 186.839L-366.935 189.173L-377.048 192.576L-385.864 196.725L-401.682 206.06L-409.72 210.662L-418.537 214.811L-428.649 218.182L-440.577 220.516L-454.871 221.488L-469.165 220.872L-481.158 218.863L-491.368 215.719L-500.282 211.797L-516.326 202.851L-524.494 198.443L-533.408 194.521L-543.618 191.409L-555.61 189.367L-569.904 188.751L-584.199 189.724L-596.126 192.057L-606.239 195.428L-615.056 199.577L-630.873 208.945L-638.911 213.515L-647.728 217.664L-657.84 221.067L-669.801 223.401L-684.062 224.373L-699.167 223.66L-711.678 221.391L-722.245 217.923L-731.482 213.644L-740.007 208.912L-748.402 204.115L-757.283 199.61L-767.299 195.785L-779 193.03" stroke="white" stroke-width="10.4701" stroke-miterlimit="10" stroke-linejoin="round"/>
</g>
</svg>
