<svg width="1678" height="1745" viewBox="0 0 1678 1745" fill="none" xmlns="http://www.w3.org/2000/svg">
<g style="mix-blend-mode:soft-light">
<path d="M1 674.383L31.5771 675.7L57.2314 680.068L79.0722 686.725L98.1395 695.114L132.461 714.251L149.933 723.681L169.001 732.07L190.772 738.796L216.496 743.095L247.073 744.481L277.581 742.332L303.166 737.34L324.798 730.129L343.658 721.254L377.494 701.285L394.689 691.439L413.548 682.564L435.181 675.284L460.697 670.292L491.274 668.212L521.851 669.529L547.505 673.897L569.346 680.623L588.413 689.013L622.735 708.149L640.138 717.51L659.275 725.899L681.046 732.625L706.7 736.993L737.347 738.31L767.855 736.23L793.44 731.238L815.072 723.958L833.932 715.083L867.768 695.114L884.963 685.268L903.822 676.394L925.455 669.183L950.971 664.19L981.548 662.11L1012.12 663.428L1037.78 667.796L1059.62 674.452L1078.69 682.842L1113.01 701.978L1130.48 711.408L1149.55 719.798L1171.39 726.523L1197.04 730.822L1227.62 732.14L1258.2 730.06L1283.71 725.067L1305.35 717.856L1324.21 708.981L1358.04 689.013L1375.24 679.167L1394.1 670.292L1415.73 663.012L1441.31 658.019L1471.82 655.939L1504.13 657.465L1530.9 662.318L1553.5 669.737L1573.26 678.89L1591.5 689.013L1609.45 699.274L1628.45 708.912L1649.88 717.094L1674.91 722.987" stroke="#D0D2CC" stroke-width="18.8111" stroke-miterlimit="10" stroke-linejoin="round"/>
<path d="M1 153.938L31.5771 155.256L57.2314 159.624L79.0722 166.28L98.1395 174.67L132.461 193.807L149.933 203.236L169.001 211.626L190.772 218.282L216.496 222.65L247.073 223.968L277.581 221.888L303.166 216.895L324.798 209.684L343.658 200.809L377.494 180.771L394.689 170.995L413.548 162.12L435.181 154.84L460.697 149.848L491.274 147.768L521.851 149.085L547.505 153.453L569.346 160.179L588.413 168.568L622.735 187.705L640.138 197.065L659.275 205.455L681.046 212.181L706.7 216.549L737.347 217.866L767.855 215.786L793.44 210.794L815.072 203.514L833.932 194.639L867.768 174.67L884.963 164.824L903.822 155.949L925.455 148.738L950.971 143.746L981.548 141.666L1012.12 142.983L1037.78 147.282L1059.62 154.008L1078.69 162.397L1113.01 181.534L1130.48 190.964L1149.55 199.353L1171.39 206.01L1197.04 210.378L1227.62 211.695L1258.2 209.615L1283.71 204.623L1305.35 197.343L1324.21 188.537L1358.04 168.499L1375.24 158.653L1394.1 149.848L1415.73 142.567L1441.31 137.575L1471.82 135.495L1504.13 137.021L1530.9 141.874L1553.5 149.293L1573.26 158.445L1591.5 168.568L1609.45 178.83L1628.45 188.468L1649.88 196.649L1674.91 202.543" stroke="#D0D2CC" stroke-width="18.8111" stroke-miterlimit="10" stroke-linejoin="round"/>
<path d="M1 544.232L31.5771 545.55L57.2314 549.918L79.0722 556.644L98.1395 565.033L132.461 584.17L149.933 593.53L169.001 601.92L190.772 608.645L216.496 613.014L247.073 614.331L277.581 612.251L303.166 607.259L324.798 599.978L343.658 591.103L377.494 571.135L394.689 561.289L413.548 552.414L435.181 545.203L460.697 540.211L491.274 538.131L521.851 539.448L547.505 543.816L569.346 550.473L588.413 558.862L622.735 577.999L640.138 587.429L659.275 595.818L681.046 602.544L706.7 606.843L737.347 608.16L767.855 606.08L793.44 601.088L815.072 593.877L833.932 585.002L867.768 565.033L884.963 555.187L903.822 546.313L925.455 539.032L950.971 534.04L981.548 531.96L1012.12 533.277L1037.78 537.646L1059.62 544.371L1078.69 552.761L1113.01 571.897L1130.48 581.258L1149.55 589.647L1171.39 596.373L1197.04 600.741L1227.62 602.058L1258.2 599.978L1283.71 594.986L1305.35 587.706L1324.21 578.831L1358.04 558.862L1375.24 549.017L1394.1 540.142L1415.73 532.931L1441.31 527.938L1471.82 525.858L1504.13 527.314L1530.9 532.168L1553.5 539.587L1573.26 548.739L1591.5 558.862L1609.45 569.193L1628.45 578.762L1649.88 586.943L1674.91 592.906" stroke="#D0D2CC" stroke-width="18.8111" stroke-miterlimit="10" stroke-linejoin="round"/>
<path d="M1 414.155L31.5771 415.473L57.2314 419.841L79.0722 426.497L98.1395 434.887L132.461 454.023L149.933 463.453L169.001 471.843L190.772 478.568L216.496 482.867L247.073 484.184L277.581 482.104L303.166 477.112L324.798 469.901L343.658 461.026L377.494 441.058L394.689 431.212L413.548 422.337L435.181 415.057L460.697 410.064L491.274 407.984L521.851 409.302L547.505 413.67L569.346 420.395L588.413 428.785L622.735 447.922L640.138 457.282L659.275 465.672L681.046 472.397L706.7 476.766L737.347 478.083L767.855 476.003L793.44 471.011L815.072 463.73L833.932 454.855L867.768 434.887L884.963 425.041L903.822 416.166L925.455 408.955L950.971 403.963L981.548 401.883L1012.12 403.2L1037.78 407.499L1059.62 414.225L1078.69 422.614L1113.01 441.751L1130.48 451.181L1149.55 459.57L1171.39 466.226L1197.04 470.595L1227.62 471.912L1258.2 469.832L1283.71 464.84L1305.35 457.629L1324.21 448.754L1358.04 428.716L1375.24 418.939L1394.1 410.064L1415.73 402.784L1441.31 397.792L1471.82 395.712L1504.13 397.237L1530.9 402.091L1553.5 409.51L1573.26 418.662L1591.5 428.785L1609.45 439.047L1628.45 448.685L1649.88 456.866L1674.91 462.76" stroke="#D0D2CC" stroke-width="18.8111" stroke-miterlimit="10" stroke-linejoin="round"/>
<path d="M1 284.008L31.5771 285.325L57.2314 289.693L79.0722 296.419L98.1395 304.809L132.461 323.945L149.933 333.306L169.001 341.695L190.772 348.421L216.496 352.789L247.073 354.106L277.581 352.026L303.166 347.034L324.798 339.754L343.658 330.879L377.494 310.91L394.689 301.064L413.548 292.189L435.181 284.979L460.697 279.986L491.274 277.906L521.851 279.224L547.505 283.522L569.346 290.248L588.413 298.638L622.735 317.774L640.138 327.204L659.275 335.594L681.046 342.25L706.7 346.618L737.347 347.935L767.855 345.855L793.44 340.863L815.072 333.652L833.932 324.777L867.768 304.739L884.963 294.963L903.822 286.088L925.455 278.808L950.971 273.815L981.548 271.735L1012.12 273.053L1037.78 277.421L1059.62 284.146L1078.69 292.536L1113.01 311.673L1130.48 321.033L1149.55 329.423L1171.39 336.148L1197.04 340.517L1227.62 341.834L1258.2 339.754L1283.71 334.762L1305.35 327.481L1324.21 318.606L1358.04 298.638L1375.24 288.792L1394.1 279.917L1415.73 272.706L1441.31 267.714L1471.82 265.634L1504.13 267.09L1530.9 271.943L1553.5 279.362L1573.26 288.515L1591.5 298.638L1609.45 308.899L1628.45 318.537L1649.88 326.719L1674.91 332.682" stroke="#D0D2CC" stroke-width="18.8111" stroke-miterlimit="10" stroke-linejoin="round"/>
<path d="M1 28.4433L31.5771 29.7607L57.2314 34.1289L79.0722 40.7851L98.1395 49.1748L132.461 68.3115L149.933 77.7411L169.001 86.1308L190.772 92.8563L216.496 97.1552L247.073 98.4725L277.581 96.3925L303.166 91.4003L324.798 84.1894L343.658 75.3144L377.494 55.3457L394.689 45.5L413.548 36.625L435.181 29.3447L460.697 24.3525L491.274 22.2724L521.851 23.5898L547.505 27.958L569.346 34.6836L588.413 43.0732L622.735 62.2099L640.138 71.5702L659.275 79.9599L681.046 86.6854L706.7 91.0536L737.347 92.371L767.855 90.2909L793.44 85.2987L815.072 78.0185L833.932 69.1435L867.768 49.1748L884.963 39.3291L903.822 30.4541L925.455 23.2431L950.971 18.251L981.548 16.1709L1012.12 17.4883L1037.78 21.7871L1059.62 28.5127L1078.69 36.9023L1113.01 56.039L1130.48 65.4687L1149.55 73.8583L1171.39 80.5146L1197.04 84.8827L1227.62 86.2001L1258.2 84.12L1283.71 79.1278L1305.35 71.9169L1324.21 63.0419L1358.04 43.0039L1375.24 33.2275L1394.1 24.3525L1415.73 17.0723L1441.31 12.0801L1471.82 10L1504.13 11.5254L1530.9 16.3789L1553.5 23.7978L1573.26 32.9502L1591.5 43.0732L1609.45 53.3349L1628.45 62.9726L1649.88 71.1542L1674.91 77.0478" stroke="#D0D2CC" stroke-width="18.8111" stroke-miterlimit="10" stroke-linejoin="round"/>
<path d="M1 789.547L31.5771 790.864L57.2314 795.232L79.0722 801.889L98.1395 810.278L132.461 829.415L149.933 838.845L169.001 847.234L190.772 853.96L216.496 858.259L247.073 859.576L277.581 857.496L303.166 852.504L324.798 845.293L343.658 836.418L377.494 816.449L394.689 806.603L413.548 797.728L435.181 790.448L460.697 785.456L491.274 783.376L521.851 784.693L547.505 789.061L569.346 795.787L588.413 804.177L622.735 823.313L640.138 832.674L659.275 841.063L681.046 847.789L706.7 852.157L737.347 853.474L767.855 851.394L793.44 846.402L815.072 839.122L833.932 830.247L867.768 810.278L884.963 800.433L903.822 791.558L925.455 784.347L950.971 779.354L981.548 777.274L1012.12 778.592L1037.78 782.891L1059.62 789.616L1078.69 798.006L1113.01 817.143L1130.48 826.572L1149.55 834.962L1171.39 841.618L1197.04 845.986L1227.62 847.304L1258.2 845.224L1283.71 840.231L1305.35 833.02L1324.21 824.145L1358.04 804.107L1375.24 794.331L1394.1 785.456L1415.73 778.176L1441.31 773.184L1471.82 771.104L1504.13 772.629L1530.9 777.482L1553.5 784.901L1573.26 794.054L1591.5 804.177L1609.45 814.438L1628.45 824.076L1649.88 832.258L1674.91 838.151" stroke="#D0D2CC" stroke-width="18.8111" stroke-miterlimit="10" stroke-linejoin="round"/>
</g>
<g style="mix-blend-mode:soft-light">
<path d="M1 1550.38L31.5771 1551.7L57.2314 1556.07L79.0722 1562.72L98.1395 1571.11L132.461 1590.25L149.933 1599.68L169.001 1608.07L190.772 1614.8L216.496 1619.09L247.073 1620.48L277.581 1618.33L303.166 1613.34L324.798 1606.13L343.658 1597.25L377.494 1577.29L394.689 1567.44L413.548 1558.56L435.181 1551.28L460.697 1546.29L491.274 1544.21L521.851 1545.53L547.505 1549.9L569.346 1556.62L588.413 1565.01L622.735 1584.15L640.138 1593.51L659.275 1601.9L681.046 1608.62L706.7 1612.99L737.347 1614.31L767.855 1612.23L793.44 1607.24L815.072 1599.96L833.932 1591.08L867.768 1571.11L884.963 1561.27L903.822 1552.39L925.455 1545.18L950.971 1540.19L981.548 1538.11L1012.12 1539.43L1037.78 1543.8L1059.62 1550.45L1078.69 1558.84L1113.01 1577.98L1130.48 1587.41L1149.55 1595.8L1171.39 1602.52L1197.04 1606.82L1227.62 1608.14L1258.2 1606.06L1283.71 1601.07L1305.35 1593.86L1324.21 1584.98L1358.04 1565.01L1375.24 1555.17L1394.1 1546.29L1415.73 1539.01L1441.31 1534.02L1471.82 1531.94L1504.13 1533.46L1530.9 1538.32L1553.5 1545.74L1573.26 1554.89L1591.5 1565.01L1609.45 1575.27L1628.45 1584.91L1649.88 1593.09L1674.91 1598.99" stroke="#D0D2CC" stroke-width="18.8111" stroke-miterlimit="10" stroke-linejoin="round"/>
<path d="M1 1029.94L31.5771 1031.26L57.2314 1035.62L79.0722 1042.28L98.1395 1050.67L132.461 1069.81L149.933 1079.24L169.001 1087.63L190.772 1094.28L216.496 1098.65L247.073 1099.97L277.581 1097.89L303.166 1092.9L324.798 1085.68L343.658 1076.81L377.494 1056.77L394.689 1047L413.548 1038.12L435.181 1030.84L460.697 1025.85L491.274 1023.77L521.851 1025.08L547.505 1029.45L569.346 1036.18L588.413 1044.57L622.735 1063.71L640.138 1073.07L659.275 1081.46L681.046 1088.18L706.7 1092.55L737.347 1093.87L767.855 1091.79L793.44 1086.79L815.072 1079.51L833.932 1070.64L867.768 1050.67L884.963 1040.82L903.822 1031.95L925.455 1024.74L950.971 1019.75L981.548 1017.67L1012.12 1018.98L1037.78 1023.28L1059.62 1030.01L1078.69 1038.4L1113.01 1057.53L1130.48 1066.96L1149.55 1075.35L1171.39 1082.01L1197.04 1086.38L1227.62 1087.7L1258.2 1085.62L1283.71 1080.62L1305.35 1073.34L1324.21 1064.54L1358.04 1044.5L1375.24 1034.65L1394.1 1025.85L1415.73 1018.57L1441.31 1013.58L1471.82 1011.5L1504.13 1013.02L1530.9 1017.87L1553.5 1025.29L1573.26 1034.45L1591.5 1044.57L1609.45 1054.83L1628.45 1064.47L1649.88 1072.65L1674.91 1078.54" stroke="#D0D2CC" stroke-width="18.8111" stroke-miterlimit="10" stroke-linejoin="round"/>
<path d="M1 1420.23L31.5771 1421.55L57.2314 1425.92L79.0722 1432.64L98.1395 1441.03L132.461 1460.17L149.933 1469.53L169.001 1477.92L190.772 1484.65L216.496 1489.01L247.073 1490.33L277.581 1488.25L303.166 1483.26L324.798 1475.98L343.658 1467.1L377.494 1447.13L394.689 1437.29L413.548 1428.41L435.181 1421.2L460.697 1416.21L491.274 1414.13L521.851 1415.45L547.505 1419.82L569.346 1426.47L588.413 1434.86L622.735 1454L640.138 1463.43L659.275 1471.82L681.046 1478.54L706.7 1482.84L737.347 1484.16L767.855 1482.08L793.44 1477.09L815.072 1469.88L833.932 1461L867.768 1441.03L884.963 1431.19L903.822 1422.31L925.455 1415.03L950.971 1410.04L981.548 1407.96L1012.12 1409.28L1037.78 1413.65L1059.62 1420.37L1078.69 1428.76L1113.01 1447.9L1130.48 1457.26L1149.55 1465.65L1171.39 1472.37L1197.04 1476.74L1227.62 1478.06L1258.2 1475.98L1283.71 1470.99L1305.35 1463.71L1324.21 1454.83L1358.04 1434.86L1375.24 1425.02L1394.1 1416.14L1415.73 1408.93L1441.31 1403.94L1471.82 1401.86L1504.13 1403.31L1530.9 1408.17L1553.5 1415.59L1573.26 1424.74L1591.5 1434.86L1609.45 1445.19L1628.45 1454.76L1649.88 1462.94L1674.91 1468.91" stroke="#D0D2CC" stroke-width="18.8111" stroke-miterlimit="10" stroke-linejoin="round"/>
<path d="M1 1290.16L31.5771 1291.47L57.2314 1295.84L79.0722 1302.5L98.1395 1310.89L132.461 1330.02L149.933 1339.45L169.001 1347.84L190.772 1354.57L216.496 1358.87L247.073 1360.18L277.581 1358.1L303.166 1353.11L324.798 1345.9L343.658 1337.03L377.494 1317.06L394.689 1307.21L413.548 1298.34L435.181 1291.06L460.697 1286.06L491.274 1283.98L521.851 1285.3L547.505 1289.67L569.346 1296.4L588.413 1304.79L622.735 1323.92L640.138 1333.28L659.275 1341.67L681.046 1348.4L706.7 1352.77L737.347 1354.08L767.855 1352L793.44 1347.01L815.072 1339.73L833.932 1330.86L867.768 1310.89L884.963 1301.04L903.822 1292.17L925.455 1284.96L950.971 1279.96L981.548 1277.88L1012.12 1279.2L1037.78 1283.5L1059.62 1290.22L1078.69 1298.61L1113.01 1317.75L1130.48 1327.18L1149.55 1335.57L1171.39 1342.23L1197.04 1346.59L1227.62 1347.91L1258.2 1345.83L1283.71 1340.84L1305.35 1333.63L1324.21 1324.75L1358.04 1304.72L1375.24 1294.94L1394.1 1286.06L1415.73 1278.78L1441.31 1273.79L1471.82 1271.71L1504.13 1273.24L1530.9 1278.09L1553.5 1285.51L1573.26 1294.66L1591.5 1304.79L1609.45 1315.05L1628.45 1324.68L1649.88 1332.87L1674.91 1338.76" stroke="#D0D2CC" stroke-width="18.8111" stroke-miterlimit="10" stroke-linejoin="round"/>
<path d="M1 1160.01L31.5771 1161.33L57.2314 1165.69L79.0722 1172.42L98.1395 1180.81L132.461 1199.95L149.933 1209.31L169.001 1217.7L190.772 1224.42L216.496 1228.79L247.073 1230.11L277.581 1228.03L303.166 1223.03L324.798 1215.75L343.658 1206.88L377.494 1186.91L394.689 1177.06L413.548 1168.19L435.181 1160.98L460.697 1155.99L491.274 1153.91L521.851 1155.22L547.505 1159.52L569.346 1166.25L588.413 1174.64L622.735 1193.77L640.138 1203.2L659.275 1211.59L681.046 1218.25L706.7 1222.62L737.347 1223.94L767.855 1221.86L793.44 1216.86L815.072 1209.65L833.932 1200.78L867.768 1180.74L884.963 1170.96L903.822 1162.09L925.455 1154.81L950.971 1149.82L981.548 1147.74L1012.12 1149.05L1037.78 1153.42L1059.62 1160.15L1078.69 1168.54L1113.01 1187.67L1130.48 1197.03L1149.55 1205.42L1171.39 1212.15L1197.04 1216.52L1227.62 1217.83L1258.2 1215.75L1283.71 1210.76L1305.35 1203.48L1324.21 1194.61L1358.04 1174.64L1375.24 1164.79L1394.1 1155.92L1415.73 1148.71L1441.31 1143.71L1471.82 1141.63L1504.13 1143.09L1530.9 1147.94L1553.5 1155.36L1573.26 1164.51L1591.5 1174.64L1609.45 1184.9L1628.45 1194.54L1649.88 1202.72L1674.91 1208.68" stroke="#D0D2CC" stroke-width="18.8111" stroke-miterlimit="10" stroke-linejoin="round"/>
<path d="M1 904.443L31.5771 905.761L57.2314 910.129L79.0722 916.785L98.1395 925.175L132.461 944.311L149.933 953.741L169.001 962.131L190.772 968.856L216.496 973.155L247.073 974.473L277.581 972.392L303.166 967.4L324.798 960.189L343.658 951.314L377.494 931.346L394.689 921.5L413.548 912.625L435.181 905.345L460.697 900.353L491.274 898.272L521.851 899.59L547.505 903.958L569.346 910.684L588.413 919.073L622.735 938.21L640.138 947.57L659.275 955.96L681.046 962.685L706.7 967.054L737.347 968.371L767.855 966.291L793.44 961.299L815.072 954.018L833.932 945.143L867.768 925.175L884.963 915.329L903.822 906.454L925.455 899.243L950.971 894.251L981.548 892.171L1012.12 893.488L1037.78 897.787L1059.62 904.513L1078.69 912.902L1113.01 932.039L1130.48 941.469L1149.55 949.858L1171.39 956.515L1197.04 960.883L1227.62 962.2L1258.2 960.12L1283.71 955.128L1305.35 947.917L1324.21 939.042L1358.04 919.004L1375.24 909.228L1394.1 900.353L1415.73 893.072L1441.31 888.08L1471.82 886L1504.13 887.525L1530.9 892.379L1553.5 899.798L1573.26 908.95L1591.5 919.073L1609.45 929.335L1628.45 938.973L1649.88 947.154L1674.91 953.048" stroke="#D0D2CC" stroke-width="18.8111" stroke-miterlimit="10" stroke-linejoin="round"/>
<path d="M1 1665.55L31.5771 1666.86L57.2314 1671.23L79.0722 1677.89L98.1395 1686.28L132.461 1705.41L149.933 1714.84L169.001 1723.23L190.772 1729.96L216.496 1734.26L247.073 1735.58L277.581 1733.5L303.166 1728.5L324.798 1721.29L343.658 1712.42L377.494 1692.45L394.689 1682.6L413.548 1673.73L435.181 1666.45L460.697 1661.46L491.274 1659.38L521.851 1660.69L547.505 1665.06L569.346 1671.79L588.413 1680.18L622.735 1699.31L640.138 1708.67L659.275 1717.06L681.046 1723.79L706.7 1728.16L737.347 1729.47L767.855 1727.39L793.44 1722.4L815.072 1715.12L833.932 1706.25L867.768 1686.28L884.963 1676.43L903.822 1667.56L925.455 1660.35L950.971 1655.35L981.548 1653.27L1012.12 1654.59L1037.78 1658.89L1059.62 1665.62L1078.69 1674.01L1113.01 1693.14L1130.48 1702.57L1149.55 1710.96L1171.39 1717.62L1197.04 1721.99L1227.62 1723.3L1258.2 1721.22L1283.71 1716.23L1305.35 1709.02L1324.21 1700.15L1358.04 1680.11L1375.24 1670.33L1394.1 1661.46L1415.73 1654.18L1441.31 1649.18L1471.82 1647.1L1504.13 1648.63L1530.9 1653.48L1553.5 1660.9L1573.26 1670.05L1591.5 1680.18L1609.45 1690.44L1628.45 1700.08L1649.88 1708.26L1674.91 1714.15" stroke="#D0D2CC" stroke-width="18.8111" stroke-miterlimit="10" stroke-linejoin="round"/>
</g>
</svg>
